<ttFont>
<head>
    <!-- Most of this table will be recalculated by the compiler -->
    <tableVersion value="1.0"/>
    <fontRevision value="1.0"/>
    <checkSumAdjustment value="0x966588e"/>
    <magicNumber value="0x5f0f3cf5"/>
    <flags value="00000000 00011111"/>
    <unitsPerEm value="1000"/>
    <created value="Tue Dec 30 19:36:19 2014"/>
    <modified value="Tue Dec 30 19:36:19 2014"/>
    <xMin value="-255"/>
    <yMin value="-205"/>
    <xMax value="1236"/>
    <yMax value="936"/>
    <macStyle value="00000000 00000000"/>
    <lowestRecPPEM value="8"/>
    <fontDirectionHint value="2"/>
    <indexToLocFormat value="0"/>
    <glyphDataFormat value="0"/>
  </head>
    <TTGlyph name=".notdef" xMin="42" yMin="-15" xMax="738" yMax="684">
      <contour>
        <pt x="391" y="684" on="1"/>
        <pt x="535" y="684" on="0"/>
        <pt x="738" y="484" on="0"/>
        <pt x="738" y="333" on="1"/>
        <pt x="738" y="184" on="0"/>
        <pt x="535" y="-15" on="0"/>
        <pt x="391" y="-15" on="1"/>
        <pt x="246" y="-15" on="0"/>
        <pt x="42" y="184" on="0"/>
        <pt x="42" y="333" on="1"/>
        <pt x="42" y="484" on="0"/>
        <pt x="246" y="684" on="0"/>
      </contour>
      <contour>
        <pt x="391" y="638" on="1"/>
        <pt x="266" y="638" on="0"/>
        <pt x="92" y="465" on="0"/>
        <pt x="92" y="334" on="1"/>
        <pt x="92" y="204" on="0"/>
        <pt x="266" y="31" on="0"/>
        <pt x="391" y="31" on="1"/>
        <pt x="514" y="31" on="0"/>
        <pt x="688" y="204" on="0"/>
        <pt x="688" y="334" on="1"/>
        <pt x="688" y="465" on="0"/>
        <pt x="514" y="638" on="0"/>
      </contour>
      <contour>
        <pt x="523" y="400" on="1"/>
        <pt x="523" y="356" on="0"/>
        <pt x="462" y="298" on="0"/>
        <pt x="412" y="293" on="1"/>
        <pt x="412" y="256" on="1"/>
        <pt x="356" y="256" on="1"/>
        <pt x="356" y="340" on="1"/>
        <pt x="391" y="340" on="1"/>
        <pt x="423" y="340" on="0"/>
        <pt x="464" y="373" on="0"/>
        <pt x="464" y="400" on="1"/>
        <pt x="464" y="429" on="0"/>
        <pt x="424" y="465" on="0"/>
        <pt x="392" y="465" on="1"/>
        <pt x="358" y="465" on="0"/>
        <pt x="315" y="424" on="0"/>
        <pt x="312" y="390" on="1"/>
        <pt x="254" y="400" on="1"/>
        <pt x="256" y="450" on="0"/>
        <pt x="334" y="519" on="0"/>
        <pt x="392" y="519" on="1"/>
        <pt x="451" y="519" on="0"/>
        <pt x="523" y="453" on="0"/>
      </contour>
      <contour>
        <pt x="383" y="213" on="1"/>
        <pt x="399" y="213" on="0"/>
        <pt x="421" y="192" on="0"/>
        <pt x="421" y="177" on="1"/>
        <pt x="421" y="161" on="0"/>
        <pt x="399" y="139" on="0"/>
        <pt x="367" y="139" on="0"/>
        <pt x="346" y="161" on="0"/>
        <pt x="346" y="177" on="1"/>
        <pt x="346" y="192" on="0"/>
        <pt x="368" y="213" on="0"/>
      </contour>
    </TTGlyph>
    <TTGlyph name="A" xMin="-45" yMin="0" xMax="645" yMax="670">
      <contour>
        <pt x="645" y="0" on="1"/>
        <pt x="535" y="0" on="1"/>
        <pt x="505" y="156" on="1"/>
        <pt x="180" y="156" on="1"/>
        <pt x="78" y="0" on="1"/>
        <pt x="-45" y="0" on="1"/>
        <pt x="405" y="670" on="1"/>
        <pt x="505" y="670" on="1"/>
      </contour>
      <contour>
        <pt x="486" y="254" on="1"/>
        <pt x="431" y="539" on="1"/>
        <pt x="244" y="254" on="1"/>
      </contour>
    </TTGlyph>
    <TTGlyph name="AE" xMin="-45" yMin="0" xMax="1184" yMax="670">
      <contour>
        <pt x="772" y="573" on="1"/>
        <pt x="728" y="384" on="1"/>
        <pt x="1089" y="384" on="1"/>
        <pt x="1067" y="288" on="1"/>
        <pt x="706" y="288" on="1"/>
        <pt x="662" y="97" on="1"/>
        <pt x="1054" y="97" on="1"/>
        <pt x="1032" y="0" on="1"/>
        <pt x="532" y="0" on="1"/>
        <pt x="564" y="139" on="1"/>
        <pt x="244" y="139" on="1"/>
        <pt x="98" y="0" on="1"/>
        <pt x="-45" y="0" on="1"/>
        <pt x="674" y="670" on="1"/>
        <pt x="1184" y="670" on="1"/>
        <pt x="1162" y="573" on="1"/>
      </contour>
      <contour>
        <pt x="587" y="236" on="1"/>
        <pt x="655" y="531" on="1"/>
        <pt x="346" y="236" on="1"/>
      </contour>
    </TTGlyph>
    <TTGlyph name="AEacute" xMin="-45" yMin="0" xMax="1184" yMax="883">
      <contour>
        <pt x="931" y="741" on="1"/>
        <pt x="835" y="741" on="1"/>
        <pt x="941" y="883" on="1"/>
        <pt x="1071" y="883" on="1"/>
      </contour>
      <contour>
        <pt x="772" y="573" on="1"/>
        <pt x="728" y="384" on="1"/>
        <pt x="1089" y="384" on="1"/>
        <pt x="1067" y="288" on="1"/>
        <pt x="706" y="288" on="1"/>
        <pt x="662" y="97" on="1"/>
        <pt x="1054" y="97" on="1"/>
        <pt x="1032" y="0" on="1"/>
        <pt x="532" y="0" on="1"/>
        <pt x="564" y="139" on="1"/>
        <pt x="244" y="139" on="1"/>
        <pt x="98" y="0" on="1"/>
        <pt x="-45" y="0" on="1"/>
        <pt x="674" y="670" on="1"/>
        <pt x="1184" y="670" on="1"/>
        <pt x="1162" y="573" on="1"/>
      </contour>
      <contour>
        <pt x="587" y="236" on="1"/>
        <pt x="655" y="531" on="1"/>
        <pt x="346" y="236" on="1"/>
      </contour>
    </TTGlyph>
    <TTGlyph name="Aacute" xMin="-45" yMin="0" xMax="664" yMax="883">
      <contour>
        <pt x="524" y="741" on="1"/>
        <pt x="428" y="741" on="1"/>
        <pt x="534" y="883" on="1"/>
        <pt x="664" y="883" on="1"/>
      </contour>
      <contour>
        <pt x="505" y="670" on="1"/>
        <pt x="645" y="0" on="1"/>
        <pt x="535" y="0" on="1"/>
        <pt x="505" y="156" on="1"/>
        <pt x="180" y="156" on="1"/>
        <pt x="78" y="0" on="1"/>
        <pt x="-45" y="0" on="1"/>
        <pt x="405" y="670" on="1"/>
      </contour>
      <contour>
        <pt x="486" y="254" on="1"/>
        <pt x="431" y="539" on="1"/>
        <pt x="244" y="254" on="1"/>
      </contour>
    </TTGlyph>
    <TTGlyph name="Abreve" xMin="-45" yMin="0" xMax="657" yMax="867">
      <contour>
        <pt x="470" y="725" on="1"/>
        <pt x="398" y="725" on="0"/>
        <pt x="330" y="802" on="0"/>
        <pt x="345" y="867" on="1"/>
        <pt x="426" y="867" on="1"/>
        <pt x="419" y="836" on="0"/>
        <pt x="451" y="797" on="0"/>
        <pt x="480" y="797" on="1"/>
        <pt x="510" y="797" on="0"/>
        <pt x="557" y="836" on="0"/>
        <pt x="564" y="867" on="1"/>
        <pt x="657" y="867" on="1"/>
        <pt x="642" y="802" on="0"/>
        <pt x="541" y="725" on="0"/>
      </contour>
      <contour>
        <pt x="505" y="670" on="1"/>
        <pt x="645" y="0" on="1"/>
        <pt x="535" y="0" on="1"/>
        <pt x="505" y="156" on="1"/>
        <pt x="180" y="156" on="1"/>
        <pt x="78" y="0" on="1"/>
        <pt x="-45" y="0" on="1"/>
        <pt x="405" y="670" on="1"/>
      </contour>
      <contour>
        <pt x="486" y="254" on="1"/>
        <pt x="431" y="539" on="1"/>
        <pt x="244" y="254" on="1"/>
      </contour>
    </TTGlyph>
    <TTGlyph name="Acircumflex" xMin="-45" yMin="0" xMax="655" yMax="878">
      <contour>
        <pt x="435" y="733" on="1"/>
        <pt x="325" y="733" on="1"/>
        <pt x="474" y="878" on="1"/>
        <pt x="573" y="878" on="1"/>
        <pt x="655" y="733" on="1"/>
        <pt x="556" y="733" on="1"/>
        <pt x="514" y="810" on="1"/>
      </contour>
      <contour>
        <pt x="505" y="670" on="1"/>
        <pt x="645" y="0" on="1"/>
        <pt x="535" y="0" on="1"/>
        <pt x="505" y="156" on="1"/>
        <pt x="180" y="156" on="1"/>
        <pt x="78" y="0" on="1"/>
        <pt x="-45" y="0" on="1"/>
        <pt x="405" y="670" on="1"/>
      </contour>
      <contour>
        <pt x="486" y="254" on="1"/>
        <pt x="431" y="539" on="1"/>
        <pt x="244" y="254" on="1"/>
      </contour>
    </TTGlyph>
    <TTGlyph name="Adieresis" xMin="-45" yMin="0" xMax="656" yMax="873">
      <contour>
        <pt x="383" y="744" on="1"/>
        <pt x="355" y="744" on="0"/>
        <pt x="318" y="780" on="0"/>
        <pt x="318" y="808" on="1"/>
        <pt x="318" y="834" on="0"/>
        <pt x="355" y="873" on="0"/>
        <pt x="411" y="873" on="0"/>
        <pt x="449" y="834" on="0"/>
        <pt x="449" y="808" on="1"/>
        <pt x="449" y="780" on="0"/>
        <pt x="412" y="744" on="0"/>
      </contour>
      <contour>
        <pt x="590" y="744" on="1"/>
        <pt x="562" y="744" on="0"/>
        <pt x="525" y="780" on="0"/>
        <pt x="525" y="808" on="1"/>
        <pt x="525" y="834" on="0"/>
        <pt x="562" y="873" on="0"/>
        <pt x="618" y="873" on="0"/>
        <pt x="656" y="834" on="0"/>
        <pt x="656" y="808" on="1"/>
        <pt x="656" y="780" on="0"/>
        <pt x="619" y="744" on="0"/>
      </contour>
      <contour>
        <pt x="505" y="670" on="1"/>
        <pt x="645" y="0" on="1"/>
        <pt x="535" y="0" on="1"/>
        <pt x="505" y="156" on="1"/>
        <pt x="180" y="156" on="1"/>
        <pt x="78" y="0" on="1"/>
        <pt x="-45" y="0" on="1"/>
        <pt x="405" y="670" on="1"/>
      </contour>
      <contour>
        <pt x="486" y="254" on="1"/>
        <pt x="431" y="539" on="1"/>
        <pt x="244" y="254" on="1"/>
      </contour>
    </TTGlyph>
    <TTGlyph name="Agrave" xMin="-45" yMin="0" xMax="645" yMax="883">
      <contour>
        <pt x="426" y="741" on="1"/>
        <pt x="286" y="883" on="1"/>
        <pt x="416" y="883" on="1"/>
        <pt x="522" y="741" on="1"/>
      </contour>
      <contour>
        <pt x="645" y="0" on="1"/>
        <pt x="535" y="0" on="1"/>
        <pt x="505" y="156" on="1"/>
        <pt x="180" y="156" on="1"/>
        <pt x="78" y="0" on="1"/>
        <pt x="-45" y="0" on="1"/>
        <pt x="405" y="670" on="1"/>
        <pt x="505" y="670" on="1"/>
      </contour>
      <contour>
        <pt x="486" y="254" on="1"/>
        <pt x="431" y="539" on="1"/>
        <pt x="244" y="254" on="1"/>
      </contour>
    </TTGlyph>
    <TTGlyph name="Amacron" xMin="-45" yMin="0" xMax="645" yMax="837">
      <contour>
        <pt x="625" y="752" on="1"/>
        <pt x="324" y="752" on="1"/>
        <pt x="343" y="837" on="1"/>
        <pt x="644" y="837" on="1"/>
      </contour>
      <contour>
        <pt x="645" y="0" on="1"/>
        <pt x="535" y="0" on="1"/>
        <pt x="505" y="156" on="1"/>
        <pt x="180" y="156" on="1"/>
        <pt x="78" y="0" on="1"/>
        <pt x="-45" y="0" on="1"/>
        <pt x="405" y="670" on="1"/>
        <pt x="505" y="670" on="1"/>
      </contour>
      <contour>
        <pt x="486" y="254" on="1"/>
        <pt x="431" y="539" on="1"/>
        <pt x="244" y="254" on="1"/>
      </contour>
    </TTGlyph>
    <TTGlyph name="Aogonek" xMin="-45" yMin="-205" xMax="645" yMax="670">
      <contour>
        <pt x="554" y="-105" on="1"/>
        <pt x="554" y="-133" on="0"/>
        <pt x="586" y="-133" on="1"/>
        <pt x="599" y="-133" on="0"/>
        <pt x="634" y="-122" on="1"/>
        <pt x="620" y="-188" on="1"/>
        <pt x="587" y="-205" on="0"/>
        <pt x="552" y="-205" on="1"/>
        <pt x="515" y="-205" on="0"/>
        <pt x="470" y="-165" on="0"/>
        <pt x="470" y="-131" on="1"/>
        <pt x="470" y="-69" on="0"/>
        <pt x="571" y="0" on="1"/>
        <pt x="535" y="0" on="1"/>
        <pt x="505" y="156" on="1"/>
        <pt x="180" y="156" on="1"/>
        <pt x="78" y="0" on="1"/>
        <pt x="-45" y="0" on="1"/>
        <pt x="405" y="670" on="1"/>
        <pt x="505" y="670" on="1"/>
        <pt x="645" y="0" on="1"/>
        <pt x="637" y="-7" on="0"/>
        <pt x="613" y="-28" on="0"/>
        <pt x="602" y="-38" on="0"/>
        <pt x="584" y="-53" on="0"/>
        <pt x="577" y="-61" on="0"/>
        <pt x="566" y="-73" on="0"/>
        <pt x="561" y="-81" on="0"/>
        <pt x="556" y="-91" on="0"/>
        <pt x="554" y="-100" on="0"/>
      </contour>
      <contour>
        <pt x="486" y="254" on="1"/>
        <pt x="431" y="539" on="1"/>
        <pt x="244" y="254" on="1"/>
      </contour>
    </TTGlyph>
    <TTGlyph name="Aring" xMin="-45" yMin="0" xMax="645" yMax="936">
      <contour>
        <pt x="481" y="721" on="1"/>
        <pt x="436" y="721" on="0"/>
        <pt x="378" y="779" on="0"/>
        <pt x="378" y="821" on="1"/>
        <pt x="378" y="868" on="0"/>
        <pt x="449" y="936" on="0"/>
        <pt x="498" y="936" on="1"/>
        <pt x="543" y="936" on="0"/>
        <pt x="601" y="878" on="0"/>
        <pt x="601" y="836" on="1"/>
        <pt x="601" y="788" on="0"/>
        <pt x="530" y="721" on="0"/>
      </contour>
      <contour>
        <pt x="493" y="875" on="1"/>
        <pt x="472" y="875" on="0"/>
        <pt x="443" y="846" on="0"/>
        <pt x="443" y="825" on="1"/>
        <pt x="443" y="806" on="0"/>
        <pt x="466" y="781" on="0"/>
        <pt x="486" y="781" on="1"/>
        <pt x="507" y="781" on="0"/>
        <pt x="538" y="812" on="0"/>
        <pt x="538" y="833" on="1"/>
        <pt x="538" y="851" on="0"/>
        <pt x="513" y="875" on="0"/>
      </contour>
      <contour>
        <pt x="645" y="0" on="1"/>
        <pt x="535" y="0" on="1"/>
        <pt x="505" y="156" on="1"/>
        <pt x="180" y="156" on="1"/>
        <pt x="78" y="0" on="1"/>
        <pt x="-45" y="0" on="1"/>
        <pt x="405" y="670" on="1"/>
        <pt x="505" y="670" on="1"/>
      </contour>
      <contour>
        <pt x="486" y="254" on="1"/>
        <pt x="431" y="539" on="1"/>
        <pt x="244" y="254" on="1"/>
      </contour>
    </TTGlyph>
    <TTGlyph name="Atilde" xMin="-45" yMin="0" xMax="669" yMax="879">
      <contour>
        <pt x="432" y="803" on="1"/>
        <pt x="417" y="803" on="0"/>
        <pt x="395" y="781" on="0"/>
        <pt x="391" y="763" on="1"/>
        <pt x="320" y="763" on="1"/>
        <pt x="334" y="824" on="0"/>
        <pt x="405" y="879" on="0"/>
        <pt x="444" y="879" on="1"/>
        <pt x="478" y="879" on="0"/>
        <pt x="536" y="836" on="0"/>
        <pt x="556" y="836" on="1"/>
        <pt x="571" y="836" on="0"/>
        <pt x="593" y="860" on="0"/>
        <pt x="598" y="879" on="1"/>
        <pt x="669" y="879" on="1"/>
        <pt x="654" y="816" on="0"/>
        <pt x="584" y="761" on="0"/>
        <pt x="544" y="761" on="1"/>
        <pt x="510" y="761" on="0"/>
        <pt x="452" y="803" on="0"/>
      </contour>
      <contour>
        <pt x="505" y="670" on="1"/>
        <pt x="645" y="0" on="1"/>
        <pt x="535" y="0" on="1"/>
        <pt x="505" y="156" on="1"/>
        <pt x="180" y="156" on="1"/>
        <pt x="78" y="0" on="1"/>
        <pt x="-45" y="0" on="1"/>
        <pt x="405" y="670" on="1"/>
      </contour>
      <contour>
        <pt x="486" y="254" on="1"/>
        <pt x="431" y="539" on="1"/>
        <pt x="244" y="254" on="1"/>
      </contour>
    </TTGlyph>
    <TTGlyph name="B" xMin="25" yMin="0" xMax="658" yMax="670">
      <contour>
        <pt x="518" y="345" on="1"/>
        <pt x="517" y="341" on="1"/>
        <pt x="558" y="336" on="0"/>
        <pt x="611" y="270" on="0"/>
        <pt x="611" y="218" on="1"/>
        <pt x="611" y="125" on="0"/>
        <pt x="465" y="0" on="0"/>
        <pt x="344" y="0" on="1"/>
        <pt x="25" y="0" on="1"/>
        <pt x="46" y="92" on="1"/>
        <pt x="158" y="578" on="1"/>
        <pt x="180" y="670" on="1"/>
        <pt x="486" y="670" on="1"/>
        <pt x="565" y="670" on="0"/>
        <pt x="658" y="590" on="0"/>
        <pt x="658" y="523" on="1"/>
        <pt x="658" y="452" on="0"/>
        <pt x="569" y="355" on="0"/>
      </contour>
      <contour>
        <pt x="220" y="380" on="1"/>
        <pt x="415" y="380" on="1"/>
        <pt x="472" y="380" on="0"/>
        <pt x="550" y="450" on="0"/>
        <pt x="550" y="500" on="1"/>
        <pt x="550" y="536" on="0"/>
        <pt x="501" y="578" on="0"/>
        <pt x="462" y="578" on="1"/>
        <pt x="266" y="578" on="1"/>
      </contour>
      <contour>
        <pt x="153" y="92" on="1"/>
        <pt x="361" y="92" on="1"/>
        <pt x="425" y="92" on="0"/>
        <pt x="501" y="162" on="0"/>
        <pt x="501" y="215" on="1"/>
        <pt x="501" y="252" on="0"/>
        <pt x="454" y="294" on="0"/>
        <pt x="412" y="294" on="1"/>
        <pt x="200" y="294" on="1"/>
      </contour>
    </TTGlyph>
    <TTGlyph name="C" xMin="66" yMin="-14" xMax="762" yMax="684">
      <contour>
        <pt x="469" y="684" on="1"/>
        <pt x="588" y="684" on="0"/>
        <pt x="749" y="561" on="0"/>
        <pt x="762" y="459" on="1"/>
        <pt x="651" y="437" on="1"/>
        <pt x="639" y="504" on="0"/>
        <pt x="545" y="584" on="0"/>
        <pt x="467" y="584" on="1"/>
        <pt x="350" y="584" on="0"/>
        <pt x="175" y="417" on="0"/>
        <pt x="175" y="299" on="1"/>
        <pt x="175" y="206" on="0"/>
        <pt x="289" y="86" on="0"/>
        <pt x="383" y="86" on="1"/>
        <pt x="462" y="86" on="0"/>
        <pt x="587" y="167" on="0"/>
        <pt x="616" y="230" on="1"/>
        <pt x="714" y="199" on="1"/>
        <pt x="675" y="102" on="0"/>
        <pt x="501" y="-14" on="0"/>
        <pt x="379" y="-14" on="1"/>
        <pt x="238" y="-14" on="0"/>
        <pt x="66" y="157" on="0"/>
        <pt x="66" y="292" on="1"/>
        <pt x="66" y="453" on="0"/>
        <pt x="301" y="684" on="0"/>
      </contour>
    </TTGlyph>
    <TTGlyph name="Cacute" xMin="66" yMin="-14" xMax="762" yMax="883">
      <contour>
        <pt x="543" y="741" on="1"/>
        <pt x="447" y="741" on="1"/>
        <pt x="553" y="883" on="1"/>
        <pt x="683" y="883" on="1"/>
      </contour>
      <contour>
        <pt x="469" y="684" on="1"/>
        <pt x="588" y="684" on="0"/>
        <pt x="749" y="561" on="0"/>
        <pt x="762" y="459" on="1"/>
        <pt x="651" y="437" on="1"/>
        <pt x="639" y="504" on="0"/>
        <pt x="545" y="584" on="0"/>
        <pt x="467" y="584" on="1"/>
        <pt x="350" y="584" on="0"/>
        <pt x="175" y="417" on="0"/>
        <pt x="175" y="299" on="1"/>
        <pt x="175" y="206" on="0"/>
        <pt x="289" y="86" on="0"/>
        <pt x="383" y="86" on="1"/>
        <pt x="462" y="86" on="0"/>
        <pt x="587" y="167" on="0"/>
        <pt x="616" y="230" on="1"/>
        <pt x="714" y="199" on="1"/>
        <pt x="675" y="102" on="0"/>
        <pt x="501" y="-14" on="0"/>
        <pt x="379" y="-14" on="1"/>
        <pt x="238" y="-14" on="0"/>
        <pt x="66" y="157" on="0"/>
        <pt x="66" y="292" on="1"/>
        <pt x="66" y="453" on="0"/>
        <pt x="301" y="684" on="0"/>
      </contour>
    </TTGlyph>
    <TTGlyph name="Ccaron" xMin="66" yMin="-14" xMax="762" yMax="879">
      <contour>
        <pt x="440" y="733" on="1"/>
        <pt x="359" y="879" on="1"/>
        <pt x="457" y="879" on="1"/>
        <pt x="499" y="801" on="1"/>
        <pt x="578" y="879" on="1"/>
        <pt x="688" y="879" on="1"/>
        <pt x="539" y="733" on="1"/>
      </contour>
      <contour>
        <pt x="383" y="86" on="1"/>
        <pt x="462" y="86" on="0"/>
        <pt x="587" y="167" on="0"/>
        <pt x="616" y="230" on="1"/>
        <pt x="714" y="199" on="1"/>
        <pt x="675" y="102" on="0"/>
        <pt x="501" y="-14" on="0"/>
        <pt x="379" y="-14" on="1"/>
        <pt x="238" y="-14" on="0"/>
        <pt x="66" y="157" on="0"/>
        <pt x="66" y="292" on="1"/>
        <pt x="66" y="453" on="0"/>
        <pt x="301" y="684" on="0"/>
        <pt x="469" y="684" on="1"/>
        <pt x="588" y="684" on="0"/>
        <pt x="749" y="561" on="0"/>
        <pt x="762" y="459" on="1"/>
        <pt x="651" y="437" on="1"/>
        <pt x="639" y="504" on="0"/>
        <pt x="545" y="584" on="0"/>
        <pt x="467" y="584" on="1"/>
        <pt x="350" y="584" on="0"/>
        <pt x="175" y="417" on="0"/>
        <pt x="175" y="299" on="1"/>
        <pt x="175" y="206" on="0"/>
        <pt x="289" y="86" on="0"/>
      </contour>
    </TTGlyph>
    <TTGlyph name="Ccedilla" xMin="66" yMin="-165" xMax="762" yMax="684">
      <contour>
        <pt x="383" y="86" on="1"/>
        <pt x="462" y="86" on="0"/>
        <pt x="587" y="167" on="0"/>
        <pt x="616" y="230" on="1"/>
        <pt x="714" y="199" on="1"/>
        <pt x="676" y="104" on="0"/>
        <pt x="508" y="-11" on="0"/>
        <pt x="390" y="-14" on="1"/>
        <pt x="297" y="-165" on="1"/>
        <pt x="176" y="-165" on="1"/>
        <pt x="313" y="-8" on="1"/>
        <pt x="199" y="11" on="0"/>
        <pt x="66" y="175" on="0"/>
        <pt x="66" y="292" on="1"/>
        <pt x="66" y="453" on="0"/>
        <pt x="301" y="684" on="0"/>
        <pt x="469" y="684" on="1"/>
        <pt x="588" y="684" on="0"/>
        <pt x="749" y="561" on="0"/>
        <pt x="762" y="459" on="1"/>
        <pt x="651" y="437" on="1"/>
        <pt x="639" y="504" on="0"/>
        <pt x="545" y="584" on="0"/>
        <pt x="467" y="584" on="1"/>
        <pt x="350" y="584" on="0"/>
        <pt x="175" y="417" on="0"/>
        <pt x="175" y="299" on="1"/>
        <pt x="175" y="206" on="0"/>
        <pt x="289" y="86" on="0"/>
      </contour>
    </TTGlyph>
    <TTGlyph name="Cdotaccent" xMin="66" yMin="-14" xMax="762" yMax="878">
      <contour>
        <pt x="479" y="878" on="0"/>
        <pt x="533" y="878" on="0"/>
        <pt x="571" y="841" on="0"/>
        <pt x="571" y="815" on="1"/>
        <pt x="571" y="788" on="0"/>
        <pt x="534" y="752" on="0"/>
        <pt x="478" y="752" on="0"/>
        <pt x="442" y="788" on="0"/>
        <pt x="442" y="815" on="1"/>
        <pt x="442" y="841" on="0"/>
      </contour>
      <contour>
        <pt x="469" y="684" on="1"/>
        <pt x="588" y="684" on="0"/>
        <pt x="749" y="561" on="0"/>
        <pt x="762" y="459" on="1"/>
        <pt x="651" y="437" on="1"/>
        <pt x="639" y="504" on="0"/>
        <pt x="545" y="584" on="0"/>
        <pt x="467" y="584" on="1"/>
        <pt x="350" y="584" on="0"/>
        <pt x="175" y="417" on="0"/>
        <pt x="175" y="299" on="1"/>
        <pt x="175" y="206" on="0"/>
        <pt x="289" y="86" on="0"/>
        <pt x="383" y="86" on="1"/>
        <pt x="462" y="86" on="0"/>
        <pt x="587" y="167" on="0"/>
        <pt x="616" y="230" on="1"/>
        <pt x="714" y="199" on="1"/>
        <pt x="675" y="102" on="0"/>
        <pt x="501" y="-14" on="0"/>
        <pt x="379" y="-14" on="1"/>
        <pt x="238" y="-14" on="0"/>
        <pt x="66" y="157" on="0"/>
        <pt x="66" y="292" on="1"/>
        <pt x="66" y="453" on="0"/>
        <pt x="301" y="684" on="0"/>
      </contour>
    </TTGlyph>
    <TTGlyph name="D" xMin="22" yMin="0" xMax="714" yMax="670">
      <contour>
        <pt x="177" y="670" on="1"/>
        <pt x="411" y="670" on="1"/>
        <pt x="554" y="670" on="0"/>
        <pt x="714" y="519" on="0"/>
        <pt x="714" y="393" on="1"/>
        <pt x="714" y="228" on="0"/>
        <pt x="458" y="0" on="0"/>
        <pt x="266" y="0" on="1"/>
        <pt x="22" y="0" on="1"/>
      </contour>
      <contour>
        <pt x="152" y="97" on="1"/>
        <pt x="254" y="97" on="1"/>
        <pt x="399" y="97" on="0"/>
        <pt x="603" y="266" on="0"/>
        <pt x="603" y="391" on="1"/>
        <pt x="603" y="476" on="0"/>
        <pt x="498" y="573" on="0"/>
        <pt x="399" y="573" on="1"/>
        <pt x="262" y="573" on="1"/>
      </contour>
    </TTGlyph>
    <TTGlyph name="Dcaron" xMin="22" yMin="0" xMax="714" yMax="879">
      <contour>
        <pt x="415" y="733" on="1"/>
        <pt x="334" y="879" on="1"/>
        <pt x="432" y="879" on="1"/>
        <pt x="474" y="801" on="1"/>
        <pt x="553" y="879" on="1"/>
        <pt x="663" y="879" on="1"/>
        <pt x="514" y="733" on="1"/>
      </contour>
      <contour>
        <pt x="177" y="670" on="1"/>
        <pt x="411" y="670" on="1"/>
        <pt x="554" y="670" on="0"/>
        <pt x="714" y="519" on="0"/>
        <pt x="714" y="393" on="1"/>
        <pt x="714" y="228" on="0"/>
        <pt x="458" y="0" on="0"/>
        <pt x="266" y="0" on="1"/>
        <pt x="22" y="0" on="1"/>
      </contour>
      <contour>
        <pt x="152" y="97" on="1"/>
        <pt x="254" y="97" on="1"/>
        <pt x="399" y="97" on="0"/>
        <pt x="603" y="266" on="0"/>
        <pt x="603" y="391" on="1"/>
        <pt x="603" y="476" on="0"/>
        <pt x="498" y="573" on="0"/>
        <pt x="399" y="573" on="1"/>
        <pt x="262" y="573" on="1"/>
      </contour>
    </TTGlyph>
    <TTGlyph name="Dcroat" xMin="38" yMin="0" xMax="753" yMax="670">
      <contour>
        <pt x="216" y="670" on="1"/>
        <pt x="450" y="670" on="1"/>
        <pt x="593" y="670" on="0"/>
        <pt x="753" y="519" on="0"/>
        <pt x="753" y="393" on="1"/>
        <pt x="753" y="228" on="0"/>
        <pt x="497" y="0" on="0"/>
        <pt x="305" y="0" on="1"/>
        <pt x="61" y="0" on="1"/>
        <pt x="128" y="288" on="1"/>
        <pt x="38" y="288" on="1"/>
        <pt x="60" y="386" on="1"/>
        <pt x="150" y="386" on="1"/>
      </contour>
      <contour>
        <pt x="191" y="97" on="1"/>
        <pt x="293" y="97" on="1"/>
        <pt x="438" y="97" on="0"/>
        <pt x="642" y="266" on="0"/>
        <pt x="642" y="391" on="1"/>
        <pt x="642" y="476" on="0"/>
        <pt x="537" y="573" on="0"/>
        <pt x="438" y="573" on="1"/>
        <pt x="301" y="573" on="1"/>
        <pt x="258" y="386" on="1"/>
        <pt x="398" y="386" on="1"/>
        <pt x="376" y="288" on="1"/>
        <pt x="235" y="288" on="1"/>
      </contour>
    </TTGlyph>
    <TTGlyph name="E" xMin="22" yMin="0" xMax="674" yMax="670">
      <contour>
        <pt x="262" y="573" on="1"/>
        <pt x="218" y="384" on="1"/>
        <pt x="579" y="384" on="1"/>
        <pt x="557" y="288" on="1"/>
        <pt x="196" y="288" on="1"/>
        <pt x="152" y="97" on="1"/>
        <pt x="544" y="97" on="1"/>
        <pt x="521" y="0" on="1"/>
        <pt x="22" y="0" on="1"/>
        <pt x="176" y="670" on="1"/>
        <pt x="674" y="670" on="1"/>
        <pt x="652" y="573" on="1"/>
      </contour>
    </TTGlyph>
    <TTGlyph name="Eacute" xMin="22" yMin="0" xMax="674" yMax="883">
      <contour>
        <pt x="504" y="741" on="1"/>
        <pt x="408" y="741" on="1"/>
        <pt x="514" y="883" on="1"/>
        <pt x="644" y="883" on="1"/>
      </contour>
      <contour>
        <pt x="262" y="573" on="1"/>
        <pt x="218" y="384" on="1"/>
        <pt x="579" y="384" on="1"/>
        <pt x="557" y="288" on="1"/>
        <pt x="196" y="288" on="1"/>
        <pt x="152" y="97" on="1"/>
        <pt x="544" y="97" on="1"/>
        <pt x="521" y="0" on="1"/>
        <pt x="22" y="0" on="1"/>
        <pt x="176" y="670" on="1"/>
        <pt x="674" y="670" on="1"/>
        <pt x="652" y="573" on="1"/>
      </contour>
    </TTGlyph>
    <TTGlyph name="Ecaron" xMin="22" yMin="0" xMax="674" yMax="879">
      <contour>
        <pt x="401" y="733" on="1"/>
        <pt x="320" y="879" on="1"/>
        <pt x="418" y="879" on="1"/>
        <pt x="460" y="801" on="1"/>
        <pt x="539" y="879" on="1"/>
        <pt x="649" y="879" on="1"/>
        <pt x="500" y="733" on="1"/>
      </contour>
      <contour>
        <pt x="262" y="573" on="1"/>
        <pt x="218" y="384" on="1"/>
        <pt x="579" y="384" on="1"/>
        <pt x="557" y="288" on="1"/>
        <pt x="196" y="288" on="1"/>
        <pt x="152" y="97" on="1"/>
        <pt x="544" y="97" on="1"/>
        <pt x="521" y="0" on="1"/>
        <pt x="22" y="0" on="1"/>
        <pt x="176" y="670" on="1"/>
        <pt x="674" y="670" on="1"/>
        <pt x="652" y="573" on="1"/>
      </contour>
    </TTGlyph>
    <TTGlyph name="Ecircumflex" xMin="22" yMin="0" xMax="674" yMax="878">
      <contour>
        <pt x="415" y="733" on="1"/>
        <pt x="305" y="733" on="1"/>
        <pt x="454" y="878" on="1"/>
        <pt x="553" y="878" on="1"/>
        <pt x="635" y="733" on="1"/>
        <pt x="536" y="733" on="1"/>
        <pt x="494" y="810" on="1"/>
      </contour>
      <contour>
        <pt x="262" y="573" on="1"/>
        <pt x="218" y="384" on="1"/>
        <pt x="579" y="384" on="1"/>
        <pt x="557" y="288" on="1"/>
        <pt x="196" y="288" on="1"/>
        <pt x="152" y="97" on="1"/>
        <pt x="544" y="97" on="1"/>
        <pt x="521" y="0" on="1"/>
        <pt x="22" y="0" on="1"/>
        <pt x="176" y="670" on="1"/>
        <pt x="674" y="670" on="1"/>
        <pt x="652" y="573" on="1"/>
      </contour>
    </TTGlyph>
    <TTGlyph name="Edieresis" xMin="22" yMin="0" xMax="674" yMax="873">
      <contour>
        <pt x="363" y="744" on="1"/>
        <pt x="335" y="744" on="0"/>
        <pt x="298" y="780" on="0"/>
        <pt x="298" y="808" on="1"/>
        <pt x="298" y="834" on="0"/>
        <pt x="335" y="873" on="0"/>
        <pt x="391" y="873" on="0"/>
        <pt x="429" y="834" on="0"/>
        <pt x="429" y="808" on="1"/>
        <pt x="429" y="780" on="0"/>
        <pt x="392" y="744" on="0"/>
      </contour>
      <contour>
        <pt x="570" y="744" on="1"/>
        <pt x="542" y="744" on="0"/>
        <pt x="505" y="780" on="0"/>
        <pt x="505" y="808" on="1"/>
        <pt x="505" y="834" on="0"/>
        <pt x="542" y="873" on="0"/>
        <pt x="598" y="873" on="0"/>
        <pt x="636" y="834" on="0"/>
        <pt x="636" y="808" on="1"/>
        <pt x="636" y="780" on="0"/>
        <pt x="599" y="744" on="0"/>
      </contour>
      <contour>
        <pt x="262" y="573" on="1"/>
        <pt x="218" y="384" on="1"/>
        <pt x="579" y="384" on="1"/>
        <pt x="557" y="288" on="1"/>
        <pt x="196" y="288" on="1"/>
        <pt x="152" y="97" on="1"/>
        <pt x="544" y="97" on="1"/>
        <pt x="521" y="0" on="1"/>
        <pt x="22" y="0" on="1"/>
        <pt x="176" y="670" on="1"/>
        <pt x="674" y="670" on="1"/>
        <pt x="652" y="573" on="1"/>
      </contour>
    </TTGlyph>
    <TTGlyph name="Edotaccent" xMin="22" yMin="0" xMax="674" yMax="878">
      <contour>
        <pt x="495" y="752" on="0"/>
        <pt x="439" y="752" on="0"/>
        <pt x="403" y="788" on="0"/>
        <pt x="403" y="815" on="1"/>
        <pt x="403" y="841" on="0"/>
        <pt x="440" y="878" on="0"/>
        <pt x="494" y="878" on="0"/>
        <pt x="532" y="841" on="0"/>
        <pt x="532" y="815" on="1"/>
        <pt x="532" y="788" on="0"/>
      </contour>
      <contour>
        <pt x="262" y="573" on="1"/>
        <pt x="218" y="384" on="1"/>
        <pt x="579" y="384" on="1"/>
        <pt x="557" y="288" on="1"/>
        <pt x="196" y="288" on="1"/>
        <pt x="152" y="97" on="1"/>
        <pt x="544" y="97" on="1"/>
        <pt x="521" y="0" on="1"/>
        <pt x="22" y="0" on="1"/>
        <pt x="176" y="670" on="1"/>
        <pt x="674" y="670" on="1"/>
        <pt x="652" y="573" on="1"/>
      </contour>
    </TTGlyph>
    <TTGlyph name="Egrave" xMin="22" yMin="0" xMax="674" yMax="883">
      <contour>
        <pt x="406" y="741" on="1"/>
        <pt x="266" y="883" on="1"/>
        <pt x="396" y="883" on="1"/>
        <pt x="502" y="741" on="1"/>
      </contour>
      <contour>
        <pt x="262" y="573" on="1"/>
        <pt x="218" y="384" on="1"/>
        <pt x="579" y="384" on="1"/>
        <pt x="557" y="288" on="1"/>
        <pt x="196" y="288" on="1"/>
        <pt x="152" y="97" on="1"/>
        <pt x="544" y="97" on="1"/>
        <pt x="521" y="0" on="1"/>
        <pt x="22" y="0" on="1"/>
        <pt x="176" y="670" on="1"/>
        <pt x="674" y="670" on="1"/>
        <pt x="652" y="573" on="1"/>
      </contour>
    </TTGlyph>
    <TTGlyph name="Emacron" xMin="22" yMin="0" xMax="674" yMax="837">
      <contour>
        <pt x="605" y="752" on="1"/>
        <pt x="304" y="752" on="1"/>
        <pt x="323" y="837" on="1"/>
        <pt x="624" y="837" on="1"/>
      </contour>
      <contour>
        <pt x="262" y="573" on="1"/>
        <pt x="218" y="384" on="1"/>
        <pt x="579" y="384" on="1"/>
        <pt x="557" y="288" on="1"/>
        <pt x="196" y="288" on="1"/>
        <pt x="152" y="97" on="1"/>
        <pt x="544" y="97" on="1"/>
        <pt x="521" y="0" on="1"/>
        <pt x="22" y="0" on="1"/>
        <pt x="176" y="670" on="1"/>
        <pt x="674" y="670" on="1"/>
        <pt x="652" y="573" on="1"/>
      </contour>
    </TTGlyph>
    <TTGlyph name="Eng" xMin="22" yMin="-183" xMax="776" yMax="670">
      <contour>
        <pt x="776" y="670" on="1"/>
        <pt x="613" y="-41" on="1"/>
        <pt x="600" y="-102" on="0"/>
        <pt x="506" y="-183" on="0"/>
        <pt x="446" y="-183" on="1"/>
        <pt x="392" y="-183" on="0"/>
        <pt x="346" y="-159" on="1"/>
        <pt x="378" y="-79" on="1"/>
        <pt x="411" y="-91" on="0"/>
        <pt x="461" y="-91" on="0"/>
        <pt x="498" y="-64" on="0"/>
        <pt x="504" y="-41" on="1"/>
        <pt x="519" y="23" on="1"/>
        <pt x="244" y="494" on="1"/>
        <pt x="130" y="0" on="1"/>
        <pt x="22" y="0" on="1"/>
        <pt x="176" y="670" on="1"/>
        <pt x="267" y="670" on="1"/>
        <pt x="553" y="171" on="1"/>
        <pt x="669" y="670" on="1"/>
      </contour>
    </TTGlyph>
    <TTGlyph name="Eogonek" xMin="22" yMin="-205" xMax="674" yMax="670">
      <contour>
        <pt x="262" y="573" on="1"/>
        <pt x="218" y="384" on="1"/>
        <pt x="579" y="384" on="1"/>
        <pt x="557" y="288" on="1"/>
        <pt x="196" y="288" on="1"/>
        <pt x="152" y="97" on="1"/>
        <pt x="544" y="97" on="1"/>
        <pt x="521" y="0" on="1"/>
        <pt x="480" y="0" on="1"/>
        <pt x="472" y="-7" on="0"/>
        <pt x="448" y="-28" on="0"/>
        <pt x="437" y="-38" on="0"/>
        <pt x="419" y="-53" on="0"/>
        <pt x="412" y="-61" on="0"/>
        <pt x="401" y="-73" on="0"/>
        <pt x="396" y="-81" on="0"/>
        <pt x="391" y="-91" on="0"/>
        <pt x="389" y="-100" on="0"/>
        <pt x="389" y="-105" on="1"/>
        <pt x="389" y="-133" on="0"/>
        <pt x="421" y="-133" on="1"/>
        <pt x="434" y="-133" on="0"/>
        <pt x="469" y="-122" on="1"/>
        <pt x="455" y="-188" on="1"/>
        <pt x="422" y="-205" on="0"/>
        <pt x="387" y="-205" on="1"/>
        <pt x="350" y="-205" on="0"/>
        <pt x="305" y="-165" on="0"/>
        <pt x="305" y="-131" on="1"/>
        <pt x="305" y="-69" on="0"/>
        <pt x="406" y="0" on="1"/>
        <pt x="22" y="0" on="1"/>
        <pt x="176" y="670" on="1"/>
        <pt x="674" y="670" on="1"/>
        <pt x="652" y="573" on="1"/>
      </contour>
    </TTGlyph>
    <TTGlyph name="Eth" xMin="38" yMin="0" xMax="753" yMax="670">
      <contour>
        <pt x="216" y="670" on="1"/>
        <pt x="450" y="670" on="1"/>
        <pt x="593" y="670" on="0"/>
        <pt x="753" y="519" on="0"/>
        <pt x="753" y="393" on="1"/>
        <pt x="753" y="228" on="0"/>
        <pt x="497" y="0" on="0"/>
        <pt x="305" y="0" on="1"/>
        <pt x="61" y="0" on="1"/>
        <pt x="128" y="288" on="1"/>
        <pt x="38" y="288" on="1"/>
        <pt x="60" y="386" on="1"/>
        <pt x="150" y="386" on="1"/>
      </contour>
      <contour>
        <pt x="191" y="97" on="1"/>
        <pt x="293" y="97" on="1"/>
        <pt x="438" y="97" on="0"/>
        <pt x="642" y="266" on="0"/>
        <pt x="642" y="391" on="1"/>
        <pt x="642" y="476" on="0"/>
        <pt x="537" y="573" on="0"/>
        <pt x="438" y="573" on="1"/>
        <pt x="301" y="573" on="1"/>
        <pt x="258" y="386" on="1"/>
        <pt x="398" y="386" on="1"/>
        <pt x="376" y="288" on="1"/>
        <pt x="235" y="288" on="1"/>
      </contour>
    </TTGlyph>
    <TTGlyph name="Euro" xMin="78" yMin="-14" xMax="786" yMax="684">
      <contour>
        <pt x="451" y="87" on="1"/>
        <pt x="575" y="87" on="0"/>
        <pt x="643" y="242" on="1"/>
        <pt x="745" y="219" on="1"/>
        <pt x="702" y="112" on="0"/>
        <pt x="537" y="-14" on="0"/>
        <pt x="436" y="-14" on="1"/>
        <pt x="336" y="-14" on="0"/>
        <pt x="210" y="114" on="0"/>
        <pt x="200" y="223" on="1"/>
        <pt x="78" y="223" on="1"/>
        <pt x="95" y="300" on="1"/>
        <pt x="200" y="300" on="1"/>
        <pt x="203" y="337" on="0"/>
        <pt x="210" y="367" on="1"/>
        <pt x="109" y="367" on="1"/>
        <pt x="127" y="443" on="1"/>
        <pt x="231" y="443" on="1"/>
        <pt x="273" y="553" on="0"/>
        <pt x="443" y="684" on="0"/>
        <pt x="550" y="684" on="1"/>
        <pt x="652" y="684" on="0"/>
        <pt x="778" y="558" on="0"/>
        <pt x="786" y="451" on="1"/>
        <pt x="674" y="429" on="1"/>
        <pt x="670" y="505" on="0"/>
        <pt x="594" y="584" on="0"/>
        <pt x="535" y="584" on="1"/>
        <pt x="474" y="584" on="0"/>
        <pt x="375" y="509" on="0"/>
        <pt x="345" y="443" on="1"/>
        <pt x="577" y="443" on="1"/>
        <pt x="546" y="367" on="1"/>
        <pt x="319" y="367" on="1"/>
        <pt x="311" y="326" on="0"/>
        <pt x="310" y="300" on="1"/>
        <pt x="514" y="300" on="1"/>
        <pt x="483" y="223" on="1"/>
        <pt x="312" y="223" on="1"/>
        <pt x="323" y="160" on="0"/>
        <pt x="396" y="87" on="0"/>
      </contour>
    </TTGlyph>
    <TTGlyph name="Euro.tf" xMin="14" yMin="-14" xMax="627" yMax="684">
      <contour>
        <pt x="313" y="87" on="1"/>
        <pt x="415" y="87" on="0"/>
        <pt x="483" y="234" on="1"/>
        <pt x="587" y="214" on="1"/>
        <pt x="546" y="110" on="0"/>
        <pt x="391" y="-14" on="0"/>
        <pt x="297" y="-14" on="1"/>
        <pt x="202" y="-14" on="0"/>
        <pt x="85" y="111" on="0"/>
        <pt x="78" y="223" on="1"/>
        <pt x="14" y="223" on="1"/>
        <pt x="31" y="300" on="1"/>
        <pt x="79" y="300" on="1"/>
        <pt x="80" y="332" on="0"/>
        <pt x="87" y="367" on="1"/>
        <pt x="47" y="367" on="1"/>
        <pt x="64" y="443" on="1"/>
        <pt x="106" y="443" on="1"/>
        <pt x="144" y="557" on="0"/>
        <pt x="305" y="684" on="0"/>
        <pt x="410" y="684" on="1"/>
        <pt x="505" y="684" on="0"/>
        <pt x="619" y="558" on="0"/>
        <pt x="627" y="451" on="1"/>
        <pt x="517" y="433" on="1"/>
        <pt x="511" y="506" on="0"/>
        <pt x="445" y="584" on="0"/>
        <pt x="394" y="584" on="1"/>
        <pt x="336" y="584" on="0"/>
        <pt x="245" y="511" on="0"/>
        <pt x="218" y="443" on="1"/>
        <pt x="441" y="443" on="1"/>
        <pt x="411" y="367" on="1"/>
        <pt x="196" y="367" on="1"/>
        <pt x="192" y="344" on="0"/>
        <pt x="188" y="300" on="1"/>
        <pt x="383" y="300" on="1"/>
        <pt x="354" y="223" on="1"/>
        <pt x="189" y="223" on="1"/>
        <pt x="197" y="157" on="0"/>
        <pt x="262" y="87" on="0"/>
      </contour>
    </TTGlyph>
    <TTGlyph name="F" xMin="22" yMin="0" xMax="666" yMax="670">
      <contour>
        <pt x="262" y="573" on="1"/>
        <pt x="216" y="374" on="1"/>
        <pt x="561" y="374" on="1"/>
        <pt x="539" y="277" on="1"/>
        <pt x="194" y="277" on="1"/>
        <pt x="130" y="0" on="1"/>
        <pt x="22" y="0" on="1"/>
        <pt x="176" y="670" on="1"/>
        <pt x="666" y="670" on="1"/>
        <pt x="644" y="573" on="1"/>
      </contour>
    </TTGlyph>
    <TTGlyph name="G" xMin="66" yMin="-14" xMax="765" yMax="684">
      <contour>
        <pt x="404" y="380" on="1"/>
        <pt x="765" y="380" on="1"/>
        <pt x="765" y="358" on="0"/>
        <pt x="761" y="334" on="1"/>
        <pt x="732" y="175" on="0"/>
        <pt x="522" y="-14" on="0"/>
        <pt x="371" y="-14" on="1"/>
        <pt x="234" y="-14" on="0"/>
        <pt x="66" y="154" on="0"/>
        <pt x="66" y="290" on="1"/>
        <pt x="66" y="452" on="0"/>
        <pt x="308" y="684" on="0"/>
        <pt x="477" y="684" on="1"/>
        <pt x="584" y="684" on="0"/>
        <pt x="743" y="579" on="0"/>
        <pt x="763" y="486" on="1"/>
        <pt x="655" y="462" on="1"/>
        <pt x="636" y="524" on="0"/>
        <pt x="536" y="583" on="0"/>
        <pt x="470" y="583" on="1"/>
        <pt x="350" y="583" on="0"/>
        <pt x="176" y="417" on="0"/>
        <pt x="176" y="299" on="1"/>
        <pt x="176" y="206" on="0"/>
        <pt x="290" y="87" on="0"/>
        <pt x="382" y="87" on="1"/>
        <pt x="472" y="87" on="0"/>
        <pt x="611" y="196" on="0"/>
        <pt x="635" y="282" on="1"/>
        <pt x="381" y="282" on="1"/>
      </contour>
    </TTGlyph>
    <TTGlyph name="Gbreve" xMin="66" yMin="-14" xMax="765" yMax="867">
      <contour>
        <pt x="494" y="725" on="1"/>
        <pt x="422" y="725" on="0"/>
        <pt x="354" y="802" on="0"/>
        <pt x="369" y="867" on="1"/>
        <pt x="450" y="867" on="1"/>
        <pt x="443" y="836" on="0"/>
        <pt x="475" y="797" on="0"/>
        <pt x="504" y="797" on="1"/>
        <pt x="534" y="797" on="0"/>
        <pt x="581" y="836" on="0"/>
        <pt x="588" y="867" on="1"/>
        <pt x="681" y="867" on="1"/>
        <pt x="666" y="802" on="0"/>
        <pt x="565" y="725" on="0"/>
      </contour>
      <contour>
        <pt x="404" y="380" on="1"/>
        <pt x="765" y="380" on="1"/>
        <pt x="765" y="358" on="0"/>
        <pt x="761" y="334" on="1"/>
        <pt x="732" y="175" on="0"/>
        <pt x="522" y="-14" on="0"/>
        <pt x="371" y="-14" on="1"/>
        <pt x="234" y="-14" on="0"/>
        <pt x="66" y="154" on="0"/>
        <pt x="66" y="290" on="1"/>
        <pt x="66" y="452" on="0"/>
        <pt x="308" y="684" on="0"/>
        <pt x="477" y="684" on="1"/>
        <pt x="584" y="684" on="0"/>
        <pt x="743" y="579" on="0"/>
        <pt x="763" y="486" on="1"/>
        <pt x="655" y="462" on="1"/>
        <pt x="636" y="524" on="0"/>
        <pt x="536" y="583" on="0"/>
        <pt x="470" y="583" on="1"/>
        <pt x="350" y="583" on="0"/>
        <pt x="176" y="417" on="0"/>
        <pt x="176" y="299" on="1"/>
        <pt x="176" y="206" on="0"/>
        <pt x="290" y="87" on="0"/>
        <pt x="382" y="87" on="1"/>
        <pt x="472" y="87" on="0"/>
        <pt x="611" y="196" on="0"/>
        <pt x="635" y="282" on="1"/>
        <pt x="381" y="282" on="1"/>
      </contour>
    </TTGlyph>
    <TTGlyph name="Gcommaaccent" xMin="66" yMin="-191" xMax="765" yMax="684">
      <contour>
        <pt x="404" y="380" on="1"/>
        <pt x="765" y="380" on="1"/>
        <pt x="765" y="358" on="0"/>
        <pt x="761" y="334" on="1"/>
        <pt x="732" y="175" on="0"/>
        <pt x="522" y="-14" on="0"/>
        <pt x="371" y="-14" on="1"/>
        <pt x="234" y="-14" on="0"/>
        <pt x="66" y="154" on="0"/>
        <pt x="66" y="290" on="1"/>
        <pt x="66" y="452" on="0"/>
        <pt x="308" y="684" on="0"/>
        <pt x="477" y="684" on="1"/>
        <pt x="584" y="684" on="0"/>
        <pt x="743" y="579" on="0"/>
        <pt x="763" y="486" on="1"/>
        <pt x="655" y="462" on="1"/>
        <pt x="636" y="524" on="0"/>
        <pt x="536" y="583" on="0"/>
        <pt x="470" y="583" on="1"/>
        <pt x="350" y="583" on="0"/>
        <pt x="176" y="417" on="0"/>
        <pt x="176" y="299" on="1"/>
        <pt x="176" y="206" on="0"/>
        <pt x="290" y="87" on="0"/>
        <pt x="382" y="87" on="1"/>
        <pt x="472" y="87" on="0"/>
        <pt x="611" y="196" on="0"/>
        <pt x="635" y="282" on="1"/>
        <pt x="381" y="282" on="1"/>
      </contour>
      <contour>
        <pt x="212" y="-191" on="1"/>
        <pt x="294" y="-45" on="1"/>
        <pt x="408" y="-45" on="1"/>
        <pt x="291" y="-191" on="1"/>
      </contour>
    </TTGlyph>
    <TTGlyph name="Gdotaccent" xMin="66" yMin="-14" xMax="765" yMax="878">
      <contour>
        <pt x="484" y="878" on="0"/>
        <pt x="538" y="878" on="0"/>
        <pt x="576" y="841" on="0"/>
        <pt x="576" y="815" on="1"/>
        <pt x="576" y="788" on="0"/>
        <pt x="539" y="752" on="0"/>
        <pt x="483" y="752" on="0"/>
        <pt x="447" y="788" on="0"/>
        <pt x="447" y="815" on="1"/>
        <pt x="447" y="841" on="0"/>
      </contour>
      <contour>
        <pt x="404" y="380" on="1"/>
        <pt x="765" y="380" on="1"/>
        <pt x="765" y="358" on="0"/>
        <pt x="761" y="334" on="1"/>
        <pt x="732" y="175" on="0"/>
        <pt x="522" y="-14" on="0"/>
        <pt x="371" y="-14" on="1"/>
        <pt x="234" y="-14" on="0"/>
        <pt x="66" y="154" on="0"/>
        <pt x="66" y="290" on="1"/>
        <pt x="66" y="452" on="0"/>
        <pt x="308" y="684" on="0"/>
        <pt x="477" y="684" on="1"/>
        <pt x="584" y="684" on="0"/>
        <pt x="743" y="579" on="0"/>
        <pt x="763" y="486" on="1"/>
        <pt x="655" y="462" on="1"/>
        <pt x="636" y="524" on="0"/>
        <pt x="536" y="583" on="0"/>
        <pt x="470" y="583" on="1"/>
        <pt x="350" y="583" on="0"/>
        <pt x="176" y="417" on="0"/>
        <pt x="176" y="299" on="1"/>
        <pt x="176" y="206" on="0"/>
        <pt x="290" y="87" on="0"/>
        <pt x="382" y="87" on="1"/>
        <pt x="472" y="87" on="0"/>
        <pt x="611" y="196" on="0"/>
        <pt x="635" y="282" on="1"/>
        <pt x="381" y="282" on="1"/>
      </contour>
    </TTGlyph>
    <TTGlyph name="H" xMin="22" yMin="0" xMax="753" yMax="670">
      <contour>
        <pt x="753" y="670" on="1"/>
        <pt x="598" y="0" on="1"/>
        <pt x="491" y="0" on="1"/>
        <pt x="557" y="288" on="1"/>
        <pt x="196" y="288" on="1"/>
        <pt x="130" y="0" on="1"/>
        <pt x="22" y="0" on="1"/>
        <pt x="176" y="670" on="1"/>
        <pt x="284" y="670" on="1"/>
        <pt x="219" y="386" on="1"/>
        <pt x="580" y="386" on="1"/>
        <pt x="645" y="670" on="1"/>
      </contour>
    </TTGlyph>
    <TTGlyph name="Hbar" xMin="52" yMin="0" xMax="813" yMax="670">
      <contour>
        <pt x="793" y="455" on="1"/>
        <pt x="727" y="455" on="1"/>
        <pt x="622" y="0" on="1"/>
        <pt x="515" y="0" on="1"/>
        <pt x="574" y="258" on="1"/>
        <pt x="219" y="258" on="1"/>
        <pt x="160" y="0" on="1"/>
        <pt x="52" y="0" on="1"/>
        <pt x="157" y="455" on="1"/>
        <pt x="91" y="455" on="1"/>
        <pt x="112" y="545" on="1"/>
        <pt x="177" y="545" on="1"/>
        <pt x="206" y="670" on="1"/>
        <pt x="314" y="670" on="1"/>
        <pt x="285" y="545" on="1"/>
        <pt x="640" y="545" on="1"/>
        <pt x="669" y="670" on="1"/>
        <pt x="777" y="670" on="1"/>
        <pt x="748" y="545" on="1"/>
        <pt x="813" y="545" on="1"/>
      </contour>
      <contour>
        <pt x="620" y="455" on="1"/>
        <pt x="265" y="455" on="1"/>
        <pt x="242" y="356" on="1"/>
        <pt x="597" y="356" on="1"/>
      </contour>
    </TTGlyph>
    <TTGlyph name="I" xMin="22" yMin="0" xMax="284" yMax="670">
      <contour>
        <pt x="130" y="0" on="1"/>
        <pt x="22" y="0" on="1"/>
        <pt x="176" y="670" on="1"/>
        <pt x="284" y="670" on="1"/>
      </contour>
    </TTGlyph>
    <TTGlyph name="I.ss05" xMin="-34" yMin="0" xMax="523" yMax="670">
      <contour>
        <pt x="353" y="573" on="1"/>
        <pt x="243" y="97" on="1"/>
        <pt x="391" y="97" on="1"/>
        <pt x="369" y="0" on="1"/>
        <pt x="-34" y="0" on="1"/>
        <pt x="-12" y="97" on="1"/>
        <pt x="136" y="97" on="1"/>
        <pt x="246" y="573" on="1"/>
        <pt x="98" y="573" on="1"/>
        <pt x="120" y="670" on="1"/>
        <pt x="523" y="670" on="1"/>
        <pt x="501" y="573" on="1"/>
      </contour>
    </TTGlyph>
    <TTGlyph name="IJ" xMin="22" yMin="-14" xMax="891" yMax="670">
      <contour>
        <pt x="130" y="0" on="1"/>
        <pt x="22" y="0" on="1"/>
        <pt x="176" y="670" on="1"/>
        <pt x="284" y="670" on="1"/>
      </contour>
      <contour>
        <pt x="891" y="670" on="1"/>
        <pt x="790" y="240" on="1"/>
        <pt x="762" y="121" on="0"/>
        <pt x="610" y="-14" on="0"/>
        <pt x="503" y="-14" on="1"/>
        <pt x="400" y="-14" on="0"/>
        <pt x="277" y="105" on="0"/>
        <pt x="275" y="204" on="1"/>
        <pt x="377" y="225" on="1"/>
        <pt x="376" y="161" on="0"/>
        <pt x="443" y="83" on="0"/>
        <pt x="505" y="83" on="1"/>
        <pt x="570" y="83" on="0"/>
        <pt x="665" y="170" on="0"/>
        <pt x="682" y="240" on="1"/>
        <pt x="783" y="670" on="1"/>
      </contour>
    </TTGlyph>
    <TTGlyph name="IJ.ss05" xMin="-34" yMin="-14" xMax="1073" yMax="670">
      <contour>
        <pt x="243" y="97" on="1"/>
        <pt x="391" y="97" on="1"/>
        <pt x="369" y="0" on="1"/>
        <pt x="-34" y="0" on="1"/>
        <pt x="-12" y="97" on="1"/>
        <pt x="136" y="97" on="1"/>
        <pt x="246" y="573" on="1"/>
        <pt x="98" y="573" on="1"/>
        <pt x="120" y="670" on="1"/>
        <pt x="523" y="670" on="1"/>
        <pt x="501" y="573" on="1"/>
        <pt x="353" y="573" on="1"/>
      </contour>
      <contour>
        <pt x="1073" y="670" on="1"/>
        <pt x="972" y="240" on="1"/>
        <pt x="944" y="120" on="0"/>
        <pt x="790" y="-14" on="0"/>
        <pt x="678" y="-14" on="1"/>
        <pt x="580" y="-14" on="0"/>
        <pt x="458" y="105" on="0"/>
        <pt x="457" y="204" on="1"/>
        <pt x="559" y="225" on="1"/>
        <pt x="558" y="161" on="0"/>
        <pt x="625" y="83" on="0"/>
        <pt x="687" y="83" on="1"/>
        <pt x="752" y="83" on="0"/>
        <pt x="847" y="170" on="0"/>
        <pt x="864" y="240" on="1"/>
        <pt x="942" y="573" on="1"/>
        <pt x="676" y="573" on="1"/>
        <pt x="698" y="670" on="1"/>
      </contour>
    </TTGlyph>
    <TTGlyph name="Iacute" xMin="22" yMin="0" xMax="439" yMax="883">
      <contour>
        <pt x="299" y="741" on="1"/>
        <pt x="203" y="741" on="1"/>
        <pt x="309" y="883" on="1"/>
        <pt x="439" y="883" on="1"/>
      </contour>
      <contour>
        <pt x="130" y="0" on="1"/>
        <pt x="22" y="0" on="1"/>
        <pt x="176" y="670" on="1"/>
        <pt x="284" y="670" on="1"/>
      </contour>
    </TTGlyph>
    <TTGlyph name="Iacute.ss05" xMin="-34" yMin="0" xMax="530" yMax="883">
      <contour>
        <pt x="390" y="741" on="1"/>
        <pt x="294" y="741" on="1"/>
        <pt x="400" y="883" on="1"/>
        <pt x="530" y="883" on="1"/>
      </contour>
      <contour>
        <pt x="523" y="670" on="1"/>
        <pt x="501" y="573" on="1"/>
        <pt x="353" y="573" on="1"/>
        <pt x="243" y="97" on="1"/>
        <pt x="391" y="97" on="1"/>
        <pt x="369" y="0" on="1"/>
        <pt x="-34" y="0" on="1"/>
        <pt x="-12" y="97" on="1"/>
        <pt x="136" y="97" on="1"/>
        <pt x="246" y="573" on="1"/>
        <pt x="98" y="573" on="1"/>
        <pt x="120" y="670" on="1"/>
      </contour>
    </TTGlyph>
    <TTGlyph name="Icircumflex" xMin="22" yMin="0" xMax="430" yMax="878">
      <contour>
        <pt x="331" y="733" on="1"/>
        <pt x="289" y="810" on="1"/>
        <pt x="210" y="733" on="1"/>
        <pt x="100" y="733" on="1"/>
        <pt x="249" y="878" on="1"/>
        <pt x="348" y="878" on="1"/>
        <pt x="430" y="733" on="1"/>
      </contour>
      <contour>
        <pt x="176" y="670" on="1"/>
        <pt x="284" y="670" on="1"/>
        <pt x="130" y="0" on="1"/>
        <pt x="22" y="0" on="1"/>
      </contour>
    </TTGlyph>
    <TTGlyph name="Icircumflex.ss05" xMin="-34" yMin="0" xMax="523" yMax="878">
      <contour>
        <pt x="301" y="733" on="1"/>
        <pt x="191" y="733" on="1"/>
        <pt x="340" y="878" on="1"/>
        <pt x="439" y="878" on="1"/>
        <pt x="521" y="733" on="1"/>
        <pt x="422" y="733" on="1"/>
        <pt x="380" y="810" on="1"/>
      </contour>
      <contour>
        <pt x="353" y="573" on="1"/>
        <pt x="243" y="97" on="1"/>
        <pt x="391" y="97" on="1"/>
        <pt x="369" y="0" on="1"/>
        <pt x="-34" y="0" on="1"/>
        <pt x="-12" y="97" on="1"/>
        <pt x="136" y="97" on="1"/>
        <pt x="246" y="573" on="1"/>
        <pt x="98" y="573" on="1"/>
        <pt x="120" y="670" on="1"/>
        <pt x="523" y="670" on="1"/>
        <pt x="501" y="573" on="1"/>
      </contour>
    </TTGlyph>
    <TTGlyph name="Idieresis" xMin="22" yMin="0" xMax="431" yMax="873">
      <contour>
        <pt x="130" y="873" on="0"/>
        <pt x="186" y="873" on="0"/>
        <pt x="224" y="834" on="0"/>
        <pt x="224" y="808" on="1"/>
        <pt x="224" y="780" on="0"/>
        <pt x="187" y="744" on="0"/>
        <pt x="158" y="744" on="1"/>
        <pt x="130" y="744" on="0"/>
        <pt x="93" y="780" on="0"/>
        <pt x="93" y="808" on="1"/>
        <pt x="93" y="834" on="0"/>
      </contour>
      <contour>
        <pt x="337" y="873" on="0"/>
        <pt x="393" y="873" on="0"/>
        <pt x="431" y="834" on="0"/>
        <pt x="431" y="808" on="1"/>
        <pt x="431" y="780" on="0"/>
        <pt x="394" y="744" on="0"/>
        <pt x="365" y="744" on="1"/>
        <pt x="337" y="744" on="0"/>
        <pt x="300" y="780" on="0"/>
        <pt x="300" y="808" on="1"/>
        <pt x="300" y="834" on="0"/>
      </contour>
      <contour>
        <pt x="130" y="0" on="1"/>
        <pt x="22" y="0" on="1"/>
        <pt x="176" y="670" on="1"/>
        <pt x="284" y="670" on="1"/>
      </contour>
    </TTGlyph>
    <TTGlyph name="Idieresis.ss05" xMin="-34" yMin="0" xMax="523" yMax="873">
      <contour>
        <pt x="249" y="744" on="1"/>
        <pt x="221" y="744" on="0"/>
        <pt x="184" y="780" on="0"/>
        <pt x="184" y="808" on="1"/>
        <pt x="184" y="834" on="0"/>
        <pt x="221" y="873" on="0"/>
        <pt x="277" y="873" on="0"/>
        <pt x="315" y="834" on="0"/>
        <pt x="315" y="808" on="1"/>
        <pt x="315" y="780" on="0"/>
        <pt x="278" y="744" on="0"/>
      </contour>
      <contour>
        <pt x="456" y="744" on="1"/>
        <pt x="428" y="744" on="0"/>
        <pt x="391" y="780" on="0"/>
        <pt x="391" y="808" on="1"/>
        <pt x="391" y="834" on="0"/>
        <pt x="428" y="873" on="0"/>
        <pt x="484" y="873" on="0"/>
        <pt x="522" y="834" on="0"/>
        <pt x="522" y="808" on="1"/>
        <pt x="522" y="780" on="0"/>
        <pt x="485" y="744" on="0"/>
      </contour>
      <contour>
        <pt x="353" y="573" on="1"/>
        <pt x="243" y="97" on="1"/>
        <pt x="391" y="97" on="1"/>
        <pt x="369" y="0" on="1"/>
        <pt x="-34" y="0" on="1"/>
        <pt x="-12" y="97" on="1"/>
        <pt x="136" y="97" on="1"/>
        <pt x="246" y="573" on="1"/>
        <pt x="98" y="573" on="1"/>
        <pt x="120" y="670" on="1"/>
        <pt x="523" y="670" on="1"/>
        <pt x="501" y="573" on="1"/>
      </contour>
    </TTGlyph>
    <TTGlyph name="Idotaccent" xMin="22" yMin="0" xMax="327" yMax="878">
      <contour>
        <pt x="235" y="878" on="0"/>
        <pt x="289" y="878" on="0"/>
        <pt x="327" y="841" on="0"/>
        <pt x="327" y="815" on="1"/>
        <pt x="327" y="788" on="0"/>
        <pt x="290" y="752" on="0"/>
        <pt x="234" y="752" on="0"/>
        <pt x="198" y="788" on="0"/>
        <pt x="198" y="815" on="1"/>
        <pt x="198" y="841" on="0"/>
      </contour>
      <contour>
        <pt x="130" y="0" on="1"/>
        <pt x="22" y="0" on="1"/>
        <pt x="176" y="670" on="1"/>
        <pt x="284" y="670" on="1"/>
      </contour>
    </TTGlyph>
    <TTGlyph name="Idotaccent.ss05" xMin="-34" yMin="0" xMax="523" yMax="878">
      <contour>
        <pt x="381" y="752" on="0"/>
        <pt x="325" y="752" on="0"/>
        <pt x="289" y="788" on="0"/>
        <pt x="289" y="815" on="1"/>
        <pt x="289" y="841" on="0"/>
        <pt x="326" y="878" on="0"/>
        <pt x="380" y="878" on="0"/>
        <pt x="418" y="841" on="0"/>
        <pt x="418" y="815" on="1"/>
        <pt x="418" y="788" on="0"/>
      </contour>
      <contour>
        <pt x="353" y="573" on="1"/>
        <pt x="243" y="97" on="1"/>
        <pt x="391" y="97" on="1"/>
        <pt x="369" y="0" on="1"/>
        <pt x="-34" y="0" on="1"/>
        <pt x="-12" y="97" on="1"/>
        <pt x="136" y="97" on="1"/>
        <pt x="246" y="573" on="1"/>
        <pt x="98" y="573" on="1"/>
        <pt x="120" y="670" on="1"/>
        <pt x="523" y="670" on="1"/>
        <pt x="501" y="573" on="1"/>
      </contour>
    </TTGlyph>
    <TTGlyph name="Igrave" xMin="22" yMin="0" xMax="297" yMax="883">
      <contour>
        <pt x="191" y="883" on="1"/>
        <pt x="297" y="741" on="1"/>
        <pt x="201" y="741" on="1"/>
        <pt x="61" y="883" on="1"/>
      </contour>
      <contour>
        <pt x="130" y="0" on="1"/>
        <pt x="22" y="0" on="1"/>
        <pt x="176" y="670" on="1"/>
        <pt x="284" y="670" on="1"/>
      </contour>
    </TTGlyph>
    <TTGlyph name="Igrave.ss05" xMin="-34" yMin="0" xMax="523" yMax="883">
      <contour>
        <pt x="292" y="741" on="1"/>
        <pt x="152" y="883" on="1"/>
        <pt x="282" y="883" on="1"/>
        <pt x="388" y="741" on="1"/>
      </contour>
      <contour>
        <pt x="353" y="573" on="1"/>
        <pt x="243" y="97" on="1"/>
        <pt x="391" y="97" on="1"/>
        <pt x="369" y="0" on="1"/>
        <pt x="-34" y="0" on="1"/>
        <pt x="-12" y="97" on="1"/>
        <pt x="136" y="97" on="1"/>
        <pt x="246" y="573" on="1"/>
        <pt x="98" y="573" on="1"/>
        <pt x="120" y="670" on="1"/>
        <pt x="523" y="670" on="1"/>
        <pt x="501" y="573" on="1"/>
      </contour>
    </TTGlyph>
    <TTGlyph name="Imacron" xMin="22" yMin="0" xMax="419" yMax="837">
      <contour>
        <pt x="400" y="752" on="1"/>
        <pt x="99" y="752" on="1"/>
        <pt x="118" y="837" on="1"/>
        <pt x="419" y="837" on="1"/>
      </contour>
      <contour>
        <pt x="130" y="0" on="1"/>
        <pt x="22" y="0" on="1"/>
        <pt x="176" y="670" on="1"/>
        <pt x="284" y="670" on="1"/>
      </contour>
    </TTGlyph>
    <TTGlyph name="Imacron.ss05" xMin="-34" yMin="0" xMax="523" yMax="837">
      <contour>
        <pt x="491" y="752" on="1"/>
        <pt x="190" y="752" on="1"/>
        <pt x="209" y="837" on="1"/>
        <pt x="510" y="837" on="1"/>
      </contour>
      <contour>
        <pt x="353" y="573" on="1"/>
        <pt x="243" y="97" on="1"/>
        <pt x="391" y="97" on="1"/>
        <pt x="369" y="0" on="1"/>
        <pt x="-34" y="0" on="1"/>
        <pt x="-12" y="97" on="1"/>
        <pt x="136" y="97" on="1"/>
        <pt x="246" y="573" on="1"/>
        <pt x="98" y="573" on="1"/>
        <pt x="120" y="670" on="1"/>
        <pt x="523" y="670" on="1"/>
        <pt x="501" y="573" on="1"/>
      </contour>
    </TTGlyph>
    <TTGlyph name="Iogonek" xMin="-46" yMin="-205" xMax="284" yMax="670">
      <contour>
        <pt x="284" y="670" on="1"/>
        <pt x="130" y="0" on="1"/>
        <pt x="129" y="0" on="1"/>
        <pt x="121" y="-7" on="0"/>
        <pt x="97" y="-28" on="0"/>
        <pt x="86" y="-38" on="0"/>
        <pt x="68" y="-53" on="0"/>
        <pt x="61" y="-61" on="0"/>
        <pt x="50" y="-73" on="0"/>
        <pt x="45" y="-81" on="0"/>
        <pt x="40" y="-91" on="0"/>
        <pt x="38" y="-100" on="0"/>
        <pt x="38" y="-105" on="1"/>
        <pt x="38" y="-133" on="0"/>
        <pt x="70" y="-133" on="1"/>
        <pt x="83" y="-133" on="0"/>
        <pt x="118" y="-122" on="1"/>
        <pt x="104" y="-188" on="1"/>
        <pt x="71" y="-205" on="0"/>
        <pt x="36" y="-205" on="1"/>
        <pt x="-1" y="-205" on="0"/>
        <pt x="-46" y="-165" on="0"/>
        <pt x="-46" y="-131" on="1"/>
        <pt x="-46" y="-69" on="0"/>
        <pt x="55" y="0" on="1"/>
        <pt x="22" y="0" on="1"/>
        <pt x="176" y="670" on="1"/>
      </contour>
    </TTGlyph>
    <TTGlyph name="Iogonek.ss05" xMin="-34" yMin="-205" xMax="523" yMax="670">
      <contour>
        <pt x="353" y="573" on="1"/>
        <pt x="243" y="97" on="1"/>
        <pt x="391" y="97" on="1"/>
        <pt x="369" y="0" on="1"/>
        <pt x="221" y="0" on="1"/>
        <pt x="213" y="-7" on="0"/>
        <pt x="189" y="-28" on="0"/>
        <pt x="178" y="-38" on="0"/>
        <pt x="160" y="-53" on="0"/>
        <pt x="153" y="-61" on="0"/>
        <pt x="142" y="-73" on="0"/>
        <pt x="137" y="-81" on="0"/>
        <pt x="132" y="-91" on="0"/>
        <pt x="130" y="-100" on="0"/>
        <pt x="130" y="-105" on="1"/>
        <pt x="130" y="-133" on="0"/>
        <pt x="162" y="-133" on="1"/>
        <pt x="175" y="-133" on="0"/>
        <pt x="210" y="-122" on="1"/>
        <pt x="196" y="-188" on="1"/>
        <pt x="163" y="-205" on="0"/>
        <pt x="128" y="-205" on="1"/>
        <pt x="91" y="-205" on="0"/>
        <pt x="46" y="-165" on="0"/>
        <pt x="46" y="-131" on="1"/>
        <pt x="46" y="-69" on="0"/>
        <pt x="147" y="0" on="1"/>
        <pt x="-34" y="0" on="1"/>
        <pt x="-12" y="97" on="1"/>
        <pt x="136" y="97" on="1"/>
        <pt x="246" y="573" on="1"/>
        <pt x="98" y="573" on="1"/>
        <pt x="120" y="670" on="1"/>
        <pt x="523" y="670" on="1"/>
        <pt x="501" y="573" on="1"/>
      </contour>
    </TTGlyph>
    <TTGlyph name="J" xMin="9" yMin="-14" xMax="625" yMax="670">
      <contour>
        <pt x="625" y="670" on="1"/>
        <pt x="524" y="240" on="1"/>
        <pt x="496" y="121" on="0"/>
        <pt x="344" y="-14" on="0"/>
        <pt x="237" y="-14" on="1"/>
        <pt x="134" y="-14" on="0"/>
        <pt x="11" y="105" on="0"/>
        <pt x="9" y="204" on="1"/>
        <pt x="111" y="225" on="1"/>
        <pt x="110" y="161" on="0"/>
        <pt x="177" y="83" on="0"/>
        <pt x="239" y="83" on="1"/>
        <pt x="304" y="83" on="0"/>
        <pt x="399" y="170" on="0"/>
        <pt x="416" y="240" on="1"/>
        <pt x="517" y="670" on="1"/>
      </contour>
    </TTGlyph>
    <TTGlyph name="J.ss05" xMin="9" yMin="-14" xMax="625" yMax="670">
      <contour>
        <pt x="625" y="670" on="1"/>
        <pt x="524" y="240" on="1"/>
        <pt x="496" y="120" on="0"/>
        <pt x="342" y="-14" on="0"/>
        <pt x="230" y="-14" on="1"/>
        <pt x="132" y="-14" on="0"/>
        <pt x="10" y="105" on="0"/>
        <pt x="9" y="204" on="1"/>
        <pt x="111" y="225" on="1"/>
        <pt x="110" y="161" on="0"/>
        <pt x="177" y="83" on="0"/>
        <pt x="239" y="83" on="1"/>
        <pt x="304" y="83" on="0"/>
        <pt x="399" y="170" on="0"/>
        <pt x="416" y="240" on="1"/>
        <pt x="494" y="573" on="1"/>
        <pt x="228" y="573" on="1"/>
        <pt x="250" y="670" on="1"/>
      </contour>
    </TTGlyph>
    <TTGlyph name="K" xMin="15" yMin="0" xMax="744" yMax="670">
      <contour>
        <pt x="323" y="330" on="1"/>
        <pt x="606" y="0" on="1"/>
        <pt x="474" y="0" on="1"/>
        <pt x="235" y="282" on="1"/>
        <pt x="187" y="282" on="1"/>
        <pt x="122" y="0" on="1"/>
        <pt x="15" y="0" on="1"/>
        <pt x="169" y="670" on="1"/>
        <pt x="277" y="670" on="1"/>
        <pt x="210" y="380" on="1"/>
        <pt x="235" y="380" on="1"/>
        <pt x="599" y="670" on="1"/>
        <pt x="744" y="670" on="1"/>
      </contour>
    </TTGlyph>
    <TTGlyph name="K.ss03" xMin="18" yMin="0" xMax="743" yMax="670">
      <contour>
        <pt x="431" y="384" on="1"/>
        <pt x="622" y="0" on="1"/>
        <pt x="500" y="0" on="1"/>
        <pt x="348" y="308" on="1"/>
        <pt x="157" y="133" on="1"/>
        <pt x="126" y="0" on="1"/>
        <pt x="18" y="0" on="1"/>
        <pt x="173" y="670" on="1"/>
        <pt x="280" y="670" on="1"/>
        <pt x="195" y="300" on="1"/>
        <pt x="610" y="670" on="1"/>
        <pt x="743" y="670" on="1"/>
      </contour>
    </TTGlyph>
    <TTGlyph name="Kcommaaccent" xMin="15" yMin="-191" xMax="744" yMax="670">
      <contour>
        <pt x="323" y="330" on="1"/>
        <pt x="606" y="0" on="1"/>
        <pt x="474" y="0" on="1"/>
        <pt x="235" y="282" on="1"/>
        <pt x="187" y="282" on="1"/>
        <pt x="122" y="0" on="1"/>
        <pt x="15" y="0" on="1"/>
        <pt x="169" y="670" on="1"/>
        <pt x="277" y="670" on="1"/>
        <pt x="210" y="380" on="1"/>
        <pt x="235" y="380" on="1"/>
        <pt x="599" y="670" on="1"/>
        <pt x="744" y="670" on="1"/>
      </contour>
      <contour>
        <pt x="225" y="-45" on="1"/>
        <pt x="339" y="-45" on="1"/>
        <pt x="222" y="-191" on="1"/>
        <pt x="143" y="-191" on="1"/>
      </contour>
    </TTGlyph>
    <TTGlyph name="Kcommaaccent.ss03" xMin="18" yMin="-191" xMax="743" yMax="670">
      <contour>
        <pt x="431" y="384" on="1"/>
        <pt x="622" y="0" on="1"/>
        <pt x="500" y="0" on="1"/>
        <pt x="348" y="308" on="1"/>
        <pt x="157" y="133" on="1"/>
        <pt x="126" y="0" on="1"/>
        <pt x="18" y="0" on="1"/>
        <pt x="173" y="670" on="1"/>
        <pt x="280" y="670" on="1"/>
        <pt x="195" y="300" on="1"/>
        <pt x="610" y="670" on="1"/>
        <pt x="743" y="670" on="1"/>
      </contour>
      <contour>
        <pt x="236" y="-45" on="1"/>
        <pt x="350" y="-45" on="1"/>
        <pt x="233" y="-191" on="1"/>
        <pt x="154" y="-191" on="1"/>
      </contour>
    </TTGlyph>
    <TTGlyph name="L" xMin="22" yMin="0" xMax="517" yMax="670">
      <contour>
        <pt x="517" y="97" on="1"/>
        <pt x="495" y="0" on="1"/>
        <pt x="22" y="0" on="1"/>
        <pt x="176" y="670" on="1"/>
        <pt x="284" y="670" on="1"/>
        <pt x="152" y="97" on="1"/>
      </contour>
    </TTGlyph>
    <TTGlyph name="Lacute" xMin="22" yMin="0" xMax="517" yMax="883">
      <contour>
        <pt x="297" y="741" on="1"/>
        <pt x="201" y="741" on="1"/>
        <pt x="307" y="883" on="1"/>
        <pt x="437" y="883" on="1"/>
      </contour>
      <contour>
        <pt x="517" y="97" on="1"/>
        <pt x="495" y="0" on="1"/>
        <pt x="22" y="0" on="1"/>
        <pt x="176" y="670" on="1"/>
        <pt x="284" y="670" on="1"/>
        <pt x="152" y="97" on="1"/>
      </contour>
    </TTGlyph>
    <TTGlyph name="Lcaron" xMin="22" yMin="0" xMax="517" yMax="670">
      <contour>
        <pt x="517" y="97" on="1"/>
        <pt x="495" y="0" on="1"/>
        <pt x="22" y="0" on="1"/>
        <pt x="176" y="670" on="1"/>
        <pt x="284" y="670" on="1"/>
        <pt x="152" y="97" on="1"/>
      </contour>
      <contour>
        <pt x="440" y="484" on="1"/>
        <pt x="358" y="484" on="1"/>
        <pt x="401" y="670" on="1"/>
        <pt x="506" y="670" on="1"/>
      </contour>
    </TTGlyph>
    <TTGlyph name="Lcommaaccent" xMin="22" yMin="-191" xMax="517" yMax="670">
      <contour>
        <pt x="517" y="97" on="1"/>
        <pt x="495" y="0" on="1"/>
        <pt x="22" y="0" on="1"/>
        <pt x="176" y="670" on="1"/>
        <pt x="284" y="670" on="1"/>
        <pt x="152" y="97" on="1"/>
      </contour>
      <contour>
        <pt x="184" y="-45" on="1"/>
        <pt x="298" y="-45" on="1"/>
        <pt x="181" y="-191" on="1"/>
        <pt x="102" y="-191" on="1"/>
      </contour>
    </TTGlyph>
    <TTGlyph name="Ldot" xMin="22" yMin="0" xMax="517" yMax="670">
      <contour>
        <pt x="517" y="97" on="1"/>
        <pt x="495" y="0" on="1"/>
        <pt x="22" y="0" on="1"/>
        <pt x="176" y="670" on="1"/>
        <pt x="284" y="670" on="1"/>
        <pt x="152" y="97" on="1"/>
      </contour>
      <contour>
        <pt x="413" y="285" on="0"/>
        <pt x="357" y="285" on="0"/>
        <pt x="321" y="320" on="0"/>
        <pt x="321" y="348" on="1"/>
        <pt x="321" y="373" on="0"/>
        <pt x="358" y="410" on="0"/>
        <pt x="412" y="410" on="0"/>
        <pt x="450" y="373" on="0"/>
        <pt x="450" y="348" on="1"/>
        <pt x="450" y="320" on="0"/>
      </contour>
    </TTGlyph>
    <TTGlyph name="Lslash" xMin="32" yMin="0" xMax="558" yMax="670">
      <contour>
        <pt x="558" y="97" on="1"/>
        <pt x="536" y="0" on="1"/>
        <pt x="63" y="0" on="1"/>
        <pt x="117" y="237" on="1"/>
        <pt x="32" y="200" on="1"/>
        <pt x="55" y="301" on="1"/>
        <pt x="141" y="338" on="1"/>
        <pt x="217" y="670" on="1"/>
        <pt x="325" y="670" on="1"/>
        <pt x="260" y="389" on="1"/>
        <pt x="405" y="451" on="1"/>
        <pt x="382" y="350" on="1"/>
        <pt x="237" y="288" on="1"/>
        <pt x="192" y="97" on="1"/>
      </contour>
    </TTGlyph>
    <TTGlyph name="M" xMin="22" yMin="0" xMax="911" yMax="670">
      <contour>
        <pt x="911" y="670" on="1"/>
        <pt x="756" y="0" on="1"/>
        <pt x="652" y="0" on="1"/>
        <pt x="750" y="426" on="1"/>
        <pt x="430" y="0" on="1"/>
        <pt x="349" y="0" on="1"/>
        <pt x="225" y="427" on="1"/>
        <pt x="126" y="0" on="1"/>
        <pt x="22" y="0" on="1"/>
        <pt x="176" y="670" on="1"/>
        <pt x="262" y="670" on="1"/>
        <pt x="413" y="140" on="1"/>
        <pt x="808" y="670" on="1"/>
      </contour>
    </TTGlyph>
    <TTGlyph name="N" xMin="24" yMin="0" xMax="778" yMax="670">
      <contour>
        <pt x="778" y="670" on="1"/>
        <pt x="624" y="0" on="1"/>
        <pt x="533" y="0" on="1"/>
        <pt x="245" y="493" on="1"/>
        <pt x="131" y="0" on="1"/>
        <pt x="24" y="0" on="1"/>
        <pt x="178" y="670" on="1"/>
        <pt x="269" y="670" on="1"/>
        <pt x="554" y="172" on="1"/>
        <pt x="670" y="670" on="1"/>
      </contour>
    </TTGlyph>
    <TTGlyph name="Nacute" xMin="24" yMin="0" xMax="778" yMax="883">
      <contour>
        <pt x="549" y="741" on="1"/>
        <pt x="453" y="741" on="1"/>
        <pt x="559" y="883" on="1"/>
        <pt x="689" y="883" on="1"/>
      </contour>
      <contour>
        <pt x="778" y="670" on="1"/>
        <pt x="624" y="0" on="1"/>
        <pt x="533" y="0" on="1"/>
        <pt x="245" y="493" on="1"/>
        <pt x="131" y="0" on="1"/>
        <pt x="24" y="0" on="1"/>
        <pt x="178" y="670" on="1"/>
        <pt x="269" y="670" on="1"/>
        <pt x="554" y="172" on="1"/>
        <pt x="670" y="670" on="1"/>
      </contour>
    </TTGlyph>
    <TTGlyph name="Ncaron" xMin="24" yMin="0" xMax="778" yMax="879">
      <contour>
        <pt x="446" y="733" on="1"/>
        <pt x="365" y="879" on="1"/>
        <pt x="463" y="879" on="1"/>
        <pt x="505" y="801" on="1"/>
        <pt x="584" y="879" on="1"/>
        <pt x="694" y="879" on="1"/>
        <pt x="545" y="733" on="1"/>
      </contour>
      <contour>
        <pt x="778" y="670" on="1"/>
        <pt x="624" y="0" on="1"/>
        <pt x="533" y="0" on="1"/>
        <pt x="245" y="493" on="1"/>
        <pt x="131" y="0" on="1"/>
        <pt x="24" y="0" on="1"/>
        <pt x="178" y="670" on="1"/>
        <pt x="269" y="670" on="1"/>
        <pt x="554" y="172" on="1"/>
        <pt x="670" y="670" on="1"/>
      </contour>
    </TTGlyph>
    <TTGlyph name="Ncommaaccent" xMin="24" yMin="-191" xMax="778" yMax="670">
      <contour>
        <pt x="778" y="670" on="1"/>
        <pt x="624" y="0" on="1"/>
        <pt x="533" y="0" on="1"/>
        <pt x="245" y="493" on="1"/>
        <pt x="131" y="0" on="1"/>
        <pt x="24" y="0" on="1"/>
        <pt x="178" y="670" on="1"/>
        <pt x="269" y="670" on="1"/>
        <pt x="554" y="172" on="1"/>
        <pt x="670" y="670" on="1"/>
      </contour>
      <contour>
        <pt x="276" y="-45" on="1"/>
        <pt x="390" y="-45" on="1"/>
        <pt x="273" y="-191" on="1"/>
        <pt x="194" y="-191" on="1"/>
      </contour>
    </TTGlyph>
    <TTGlyph name="Ntilde" xMin="24" yMin="0" xMax="778" yMax="879">
      <contour>
        <pt x="457" y="803" on="1"/>
        <pt x="442" y="803" on="0"/>
        <pt x="420" y="781" on="0"/>
        <pt x="416" y="763" on="1"/>
        <pt x="345" y="763" on="1"/>
        <pt x="359" y="824" on="0"/>
        <pt x="430" y="879" on="0"/>
        <pt x="469" y="879" on="1"/>
        <pt x="503" y="879" on="0"/>
        <pt x="561" y="836" on="0"/>
        <pt x="581" y="836" on="1"/>
        <pt x="596" y="836" on="0"/>
        <pt x="618" y="860" on="0"/>
        <pt x="623" y="879" on="1"/>
        <pt x="694" y="879" on="1"/>
        <pt x="679" y="816" on="0"/>
        <pt x="609" y="761" on="0"/>
        <pt x="569" y="761" on="1"/>
        <pt x="535" y="761" on="0"/>
        <pt x="477" y="803" on="0"/>
      </contour>
      <contour>
        <pt x="778" y="670" on="1"/>
        <pt x="624" y="0" on="1"/>
        <pt x="533" y="0" on="1"/>
        <pt x="245" y="493" on="1"/>
        <pt x="131" y="0" on="1"/>
        <pt x="24" y="0" on="1"/>
        <pt x="178" y="670" on="1"/>
        <pt x="269" y="670" on="1"/>
        <pt x="554" y="172" on="1"/>
        <pt x="670" y="670" on="1"/>
      </contour>
    </TTGlyph>
    <TTGlyph name="O" xMin="70" yMin="-15" xMax="767" yMax="685">
      <contour>
        <pt x="461" y="685" on="1"/>
        <pt x="613" y="685" on="0"/>
        <pt x="788" y="480" on="0"/>
        <pt x="767" y="334" on="1"/>
        <pt x="745" y="178" on="0"/>
        <pt x="525" y="-15" on="0"/>
        <pt x="375" y="-15" on="1"/>
        <pt x="224" y="-15" on="0"/>
        <pt x="49" y="187" on="0"/>
        <pt x="70" y="335" on="1"/>
        <pt x="91" y="481" on="0"/>
        <pt x="320" y="685" on="0"/>
      </contour>
      <contour>
        <pt x="377" y="87" on="1"/>
        <pt x="484" y="87" on="0"/>
        <pt x="643" y="227" on="0"/>
        <pt x="658" y="334" on="1"/>
        <pt x="674" y="440" on="0"/>
        <pt x="557" y="584" on="0"/>
        <pt x="459" y="584" on="1"/>
        <pt x="352" y="584" on="0"/>
        <pt x="193" y="441" on="0"/>
        <pt x="177" y="334" on="1"/>
        <pt x="162" y="229" on="0"/>
        <pt x="281" y="87" on="0"/>
      </contour>
    </TTGlyph>
    <TTGlyph name="OE" xMin="68" yMin="0" xMax="1073" yMax="670">
      <contour>
        <pt x="661" y="573" on="1"/>
        <pt x="617" y="384" on="1"/>
        <pt x="978" y="384" on="1"/>
        <pt x="956" y="288" on="1"/>
        <pt x="595" y="288" on="1"/>
        <pt x="551" y="97" on="1"/>
        <pt x="943" y="97" on="1"/>
        <pt x="921" y="0" on="1"/>
        <pt x="356" y="0" on="1"/>
        <pt x="207" y="0" on="0"/>
        <pt x="45" y="178" on="0"/>
        <pt x="68" y="319" on="1"/>
        <pt x="91" y="474" on="0"/>
        <pt x="356" y="670" on="0"/>
        <pt x="535" y="670" on="1"/>
        <pt x="1073" y="670" on="1"/>
        <pt x="1051" y="573" on="1"/>
      </contour>
      <contour>
        <pt x="443" y="97" on="1"/>
        <pt x="554" y="573" on="1"/>
        <pt x="520" y="573" on="1"/>
        <pt x="384" y="573" on="0"/>
        <pt x="192" y="432" on="0"/>
        <pt x="176" y="319" on="1"/>
        <pt x="159" y="220" on="0"/>
        <pt x="257" y="97" on="0"/>
        <pt x="356" y="97" on="1"/>
      </contour>
    </TTGlyph>
    <TTGlyph name="Oacute" xMin="70" yMin="-15" xMax="767" yMax="883">
      <contour>
        <pt x="556" y="741" on="1"/>
        <pt x="460" y="741" on="1"/>
        <pt x="566" y="883" on="1"/>
        <pt x="696" y="883" on="1"/>
      </contour>
      <contour>
        <pt x="461" y="685" on="1"/>
        <pt x="613" y="685" on="0"/>
        <pt x="788" y="480" on="0"/>
        <pt x="767" y="334" on="1"/>
        <pt x="745" y="178" on="0"/>
        <pt x="525" y="-15" on="0"/>
        <pt x="375" y="-15" on="1"/>
        <pt x="224" y="-15" on="0"/>
        <pt x="49" y="187" on="0"/>
        <pt x="70" y="335" on="1"/>
        <pt x="91" y="481" on="0"/>
        <pt x="320" y="685" on="0"/>
      </contour>
      <contour>
        <pt x="377" y="87" on="1"/>
        <pt x="484" y="87" on="0"/>
        <pt x="643" y="227" on="0"/>
        <pt x="658" y="334" on="1"/>
        <pt x="674" y="440" on="0"/>
        <pt x="557" y="584" on="0"/>
        <pt x="459" y="584" on="1"/>
        <pt x="352" y="584" on="0"/>
        <pt x="193" y="441" on="0"/>
        <pt x="177" y="334" on="1"/>
        <pt x="162" y="229" on="0"/>
        <pt x="281" y="87" on="0"/>
      </contour>
    </TTGlyph>
    <TTGlyph name="Ocircumflex" xMin="70" yMin="-15" xMax="767" yMax="878">
      <contour>
        <pt x="467" y="733" on="1"/>
        <pt x="357" y="733" on="1"/>
        <pt x="506" y="878" on="1"/>
        <pt x="605" y="878" on="1"/>
        <pt x="687" y="733" on="1"/>
        <pt x="588" y="733" on="1"/>
        <pt x="546" y="810" on="1"/>
      </contour>
      <contour>
        <pt x="461" y="685" on="1"/>
        <pt x="613" y="685" on="0"/>
        <pt x="788" y="480" on="0"/>
        <pt x="767" y="334" on="1"/>
        <pt x="745" y="178" on="0"/>
        <pt x="525" y="-15" on="0"/>
        <pt x="375" y="-15" on="1"/>
        <pt x="224" y="-15" on="0"/>
        <pt x="49" y="187" on="0"/>
        <pt x="70" y="335" on="1"/>
        <pt x="91" y="481" on="0"/>
        <pt x="320" y="685" on="0"/>
      </contour>
      <contour>
        <pt x="658" y="334" on="1"/>
        <pt x="674" y="440" on="0"/>
        <pt x="557" y="584" on="0"/>
        <pt x="459" y="584" on="1"/>
        <pt x="352" y="584" on="0"/>
        <pt x="193" y="441" on="0"/>
        <pt x="177" y="334" on="1"/>
        <pt x="162" y="229" on="0"/>
        <pt x="281" y="87" on="0"/>
        <pt x="377" y="87" on="1"/>
        <pt x="484" y="87" on="0"/>
        <pt x="643" y="227" on="0"/>
      </contour>
    </TTGlyph>
    <TTGlyph name="Odieresis" xMin="70" yMin="-15" xMax="767" yMax="873">
      <contour>
        <pt x="387" y="873" on="0"/>
        <pt x="443" y="873" on="0"/>
        <pt x="481" y="834" on="0"/>
        <pt x="481" y="808" on="1"/>
        <pt x="481" y="780" on="0"/>
        <pt x="444" y="744" on="0"/>
        <pt x="415" y="744" on="1"/>
        <pt x="387" y="744" on="0"/>
        <pt x="350" y="780" on="0"/>
        <pt x="350" y="808" on="1"/>
        <pt x="350" y="834" on="0"/>
      </contour>
      <contour>
        <pt x="594" y="873" on="0"/>
        <pt x="650" y="873" on="0"/>
        <pt x="688" y="834" on="0"/>
        <pt x="688" y="808" on="1"/>
        <pt x="688" y="780" on="0"/>
        <pt x="651" y="744" on="0"/>
        <pt x="622" y="744" on="1"/>
        <pt x="594" y="744" on="0"/>
        <pt x="557" y="780" on="0"/>
        <pt x="557" y="808" on="1"/>
        <pt x="557" y="834" on="0"/>
      </contour>
      <contour>
        <pt x="461" y="685" on="1"/>
        <pt x="613" y="685" on="0"/>
        <pt x="788" y="480" on="0"/>
        <pt x="767" y="334" on="1"/>
        <pt x="745" y="178" on="0"/>
        <pt x="525" y="-15" on="0"/>
        <pt x="375" y="-15" on="1"/>
        <pt x="224" y="-15" on="0"/>
        <pt x="49" y="187" on="0"/>
        <pt x="70" y="335" on="1"/>
        <pt x="91" y="481" on="0"/>
        <pt x="320" y="685" on="0"/>
      </contour>
      <contour>
        <pt x="377" y="87" on="1"/>
        <pt x="484" y="87" on="0"/>
        <pt x="643" y="227" on="0"/>
        <pt x="658" y="334" on="1"/>
        <pt x="674" y="440" on="0"/>
        <pt x="557" y="584" on="0"/>
        <pt x="459" y="584" on="1"/>
        <pt x="352" y="584" on="0"/>
        <pt x="193" y="441" on="0"/>
        <pt x="177" y="334" on="1"/>
        <pt x="162" y="229" on="0"/>
        <pt x="281" y="87" on="0"/>
      </contour>
    </TTGlyph>
    <TTGlyph name="Ograve" xMin="70" yMin="-15" xMax="767" yMax="883">
      <contour>
        <pt x="448" y="883" on="1"/>
        <pt x="554" y="741" on="1"/>
        <pt x="458" y="741" on="1"/>
        <pt x="318" y="883" on="1"/>
      </contour>
      <contour>
        <pt x="461" y="685" on="1"/>
        <pt x="613" y="685" on="0"/>
        <pt x="788" y="480" on="0"/>
        <pt x="767" y="334" on="1"/>
        <pt x="745" y="178" on="0"/>
        <pt x="525" y="-15" on="0"/>
        <pt x="375" y="-15" on="1"/>
        <pt x="224" y="-15" on="0"/>
        <pt x="49" y="187" on="0"/>
        <pt x="70" y="335" on="1"/>
        <pt x="91" y="481" on="0"/>
        <pt x="320" y="685" on="0"/>
      </contour>
      <contour>
        <pt x="377" y="87" on="1"/>
        <pt x="484" y="87" on="0"/>
        <pt x="643" y="227" on="0"/>
        <pt x="658" y="334" on="1"/>
        <pt x="674" y="440" on="0"/>
        <pt x="557" y="584" on="0"/>
        <pt x="459" y="584" on="1"/>
        <pt x="352" y="584" on="0"/>
        <pt x="193" y="441" on="0"/>
        <pt x="177" y="334" on="1"/>
        <pt x="162" y="229" on="0"/>
        <pt x="281" y="87" on="0"/>
      </contour>
    </TTGlyph>
    <TTGlyph name="Ohungarumlaut" xMin="70" yMin="-15" xMax="773" yMax="883">
      <contour>
        <pt x="462" y="741" on="1"/>
        <pt x="368" y="741" on="1"/>
        <pt x="474" y="883" on="1"/>
        <pt x="603" y="883" on="1"/>
      </contour>
      <contour>
        <pt x="632" y="741" on="1"/>
        <pt x="538" y="741" on="1"/>
        <pt x="644" y="883" on="1"/>
        <pt x="773" y="883" on="1"/>
      </contour>
      <contour>
        <pt x="461" y="685" on="1"/>
        <pt x="613" y="685" on="0"/>
        <pt x="788" y="480" on="0"/>
        <pt x="767" y="334" on="1"/>
        <pt x="745" y="178" on="0"/>
        <pt x="525" y="-15" on="0"/>
        <pt x="375" y="-15" on="1"/>
        <pt x="224" y="-15" on="0"/>
        <pt x="49" y="187" on="0"/>
        <pt x="70" y="335" on="1"/>
        <pt x="91" y="481" on="0"/>
        <pt x="320" y="685" on="0"/>
      </contour>
      <contour>
        <pt x="377" y="87" on="1"/>
        <pt x="484" y="87" on="0"/>
        <pt x="643" y="227" on="0"/>
        <pt x="658" y="334" on="1"/>
        <pt x="674" y="440" on="0"/>
        <pt x="557" y="584" on="0"/>
        <pt x="459" y="584" on="1"/>
        <pt x="352" y="584" on="0"/>
        <pt x="193" y="441" on="0"/>
        <pt x="177" y="334" on="1"/>
        <pt x="162" y="229" on="0"/>
        <pt x="281" y="87" on="0"/>
      </contour>
    </TTGlyph>
    <TTGlyph name="Omacron" xMin="70" yMin="-15" xMax="767" yMax="837">
      <contour>
        <pt x="657" y="752" on="1"/>
        <pt x="356" y="752" on="1"/>
        <pt x="375" y="837" on="1"/>
        <pt x="676" y="837" on="1"/>
      </contour>
      <contour>
        <pt x="461" y="685" on="1"/>
        <pt x="613" y="685" on="0"/>
        <pt x="788" y="480" on="0"/>
        <pt x="767" y="334" on="1"/>
        <pt x="745" y="178" on="0"/>
        <pt x="525" y="-15" on="0"/>
        <pt x="375" y="-15" on="1"/>
        <pt x="224" y="-15" on="0"/>
        <pt x="49" y="187" on="0"/>
        <pt x="70" y="335" on="1"/>
        <pt x="91" y="481" on="0"/>
        <pt x="320" y="685" on="0"/>
      </contour>
      <contour>
        <pt x="377" y="87" on="1"/>
        <pt x="484" y="87" on="0"/>
        <pt x="643" y="227" on="0"/>
        <pt x="658" y="334" on="1"/>
        <pt x="674" y="440" on="0"/>
        <pt x="557" y="584" on="0"/>
        <pt x="459" y="584" on="1"/>
        <pt x="352" y="584" on="0"/>
        <pt x="193" y="441" on="0"/>
        <pt x="177" y="334" on="1"/>
        <pt x="162" y="229" on="0"/>
        <pt x="281" y="87" on="0"/>
      </contour>
    </TTGlyph>
    <TTGlyph name="Oslash" xMin="-2" yMin="-15" xMax="813" yMax="685">
      <contour>
        <pt x="813" y="606" on="1"/>
        <pt x="731" y="539" on="1"/>
        <pt x="783" y="447" on="0"/>
        <pt x="767" y="334" on="1"/>
        <pt x="745" y="178" on="0"/>
        <pt x="525" y="-15" on="0"/>
        <pt x="375" y="-15" on="1"/>
        <pt x="240" y="-15" on="0"/>
        <pt x="153" y="69" on="1"/>
        <pt x="55" y="-10" on="1"/>
        <pt x="-2" y="60" on="1"/>
        <pt x="99" y="142" on="1"/>
        <pt x="55" y="228" on="0"/>
        <pt x="70" y="335" on="1"/>
        <pt x="91" y="481" on="0"/>
        <pt x="320" y="685" on="0"/>
        <pt x="461" y="685" on="1"/>
        <pt x="588" y="685" on="0"/>
        <pt x="675" y="609" on="1"/>
        <pt x="758" y="676" on="1"/>
      </contour>
      <contour>
        <pt x="177" y="334" on="1"/>
        <pt x="167" y="271" on="0"/>
        <pt x="188" y="214" on="1"/>
        <pt x="588" y="539" on="1"/>
        <pt x="533" y="584" on="0"/>
        <pt x="459" y="584" on="1"/>
        <pt x="352" y="584" on="0"/>
        <pt x="193" y="441" on="0"/>
      </contour>
      <contour>
        <pt x="658" y="334" on="1"/>
        <pt x="669" y="405" on="0"/>
        <pt x="643" y="467" on="1"/>
        <pt x="239" y="139" on="1"/>
        <pt x="296" y="87" on="0"/>
        <pt x="377" y="87" on="1"/>
        <pt x="484" y="87" on="0"/>
        <pt x="643" y="227" on="0"/>
      </contour>
    </TTGlyph>
    <TTGlyph name="Otilde" xMin="70" yMin="-15" xMax="767" yMax="879">
      <contour>
        <pt x="423" y="763" on="1"/>
        <pt x="352" y="763" on="1"/>
        <pt x="366" y="824" on="0"/>
        <pt x="437" y="879" on="0"/>
        <pt x="476" y="879" on="1"/>
        <pt x="510" y="879" on="0"/>
        <pt x="568" y="836" on="0"/>
        <pt x="588" y="836" on="1"/>
        <pt x="603" y="836" on="0"/>
        <pt x="625" y="860" on="0"/>
        <pt x="630" y="879" on="1"/>
        <pt x="701" y="879" on="1"/>
        <pt x="686" y="816" on="0"/>
        <pt x="616" y="761" on="0"/>
        <pt x="576" y="761" on="1"/>
        <pt x="542" y="761" on="0"/>
        <pt x="484" y="803" on="0"/>
        <pt x="464" y="803" on="1"/>
        <pt x="449" y="803" on="0"/>
        <pt x="427" y="781" on="0"/>
      </contour>
      <contour>
        <pt x="461" y="685" on="1"/>
        <pt x="613" y="685" on="0"/>
        <pt x="788" y="480" on="0"/>
        <pt x="767" y="334" on="1"/>
        <pt x="745" y="178" on="0"/>
        <pt x="525" y="-15" on="0"/>
        <pt x="375" y="-15" on="1"/>
        <pt x="224" y="-15" on="0"/>
        <pt x="49" y="187" on="0"/>
        <pt x="70" y="335" on="1"/>
        <pt x="91" y="481" on="0"/>
        <pt x="320" y="685" on="0"/>
      </contour>
      <contour>
        <pt x="377" y="87" on="1"/>
        <pt x="484" y="87" on="0"/>
        <pt x="643" y="227" on="0"/>
        <pt x="658" y="334" on="1"/>
        <pt x="674" y="440" on="0"/>
        <pt x="557" y="584" on="0"/>
        <pt x="459" y="584" on="1"/>
        <pt x="352" y="584" on="0"/>
        <pt x="193" y="441" on="0"/>
        <pt x="177" y="334" on="1"/>
        <pt x="162" y="229" on="0"/>
        <pt x="281" y="87" on="0"/>
      </contour>
    </TTGlyph>
    <TTGlyph name="P" xMin="22" yMin="0" xMax="676" yMax="670">
      <contour>
        <pt x="176" y="670" on="1"/>
        <pt x="460" y="670" on="1"/>
        <pt x="558" y="670" on="0"/>
        <pt x="676" y="566" on="0"/>
        <pt x="676" y="480" on="1"/>
        <pt x="676" y="372" on="0"/>
        <pt x="514" y="236" on="0"/>
        <pt x="385" y="236" on="1"/>
        <pt x="184" y="236" on="1"/>
        <pt x="129" y="0" on="1"/>
        <pt x="22" y="0" on="1"/>
      </contour>
      <contour>
        <pt x="206" y="334" on="1"/>
        <pt x="391" y="334" on="1"/>
        <pt x="468" y="334" on="0"/>
        <pt x="566" y="416" on="0"/>
        <pt x="566" y="477" on="1"/>
        <pt x="566" y="522" on="0"/>
        <pt x="508" y="573" on="0"/>
        <pt x="452" y="573" on="1"/>
        <pt x="261" y="573" on="1"/>
      </contour>
    </TTGlyph>
    <TTGlyph name="Q" xMin="70" yMin="-164" xMax="767" yMax="685">
      <contour>
        <pt x="767" y="334" on="1"/>
        <pt x="743" y="164" on="0"/>
        <pt x="615" y="65" on="1"/>
        <pt x="745" y="-89" on="1"/>
        <pt x="662" y="-164" on="1"/>
        <pt x="514" y="9" on="1"/>
        <pt x="445" y="-15" on="0"/>
        <pt x="375" y="-15" on="1"/>
        <pt x="224" y="-15" on="0"/>
        <pt x="49" y="187" on="0"/>
        <pt x="70" y="335" on="1"/>
        <pt x="91" y="481" on="0"/>
        <pt x="320" y="685" on="0"/>
        <pt x="461" y="685" on="1"/>
        <pt x="613" y="685" on="0"/>
        <pt x="788" y="480" on="0"/>
      </contour>
      <contour>
        <pt x="177" y="334" on="1"/>
        <pt x="162" y="229" on="0"/>
        <pt x="281" y="87" on="0"/>
        <pt x="377" y="87" on="1"/>
        <pt x="484" y="87" on="0"/>
        <pt x="643" y="227" on="0"/>
        <pt x="658" y="334" on="1"/>
        <pt x="674" y="440" on="0"/>
        <pt x="557" y="584" on="0"/>
        <pt x="459" y="584" on="1"/>
        <pt x="352" y="584" on="0"/>
        <pt x="193" y="441" on="0"/>
      </contour>
    </TTGlyph>
    <TTGlyph name="Q.ss04" xMin="70" yMin="-170" xMax="777" yMax="685">
      <contour>
        <pt x="629" y="-170" on="1"/>
        <pt x="494" y="3" on="1"/>
        <pt x="437" y="-15" on="0"/>
        <pt x="375" y="-15" on="1"/>
        <pt x="224" y="-15" on="0"/>
        <pt x="49" y="187" on="0"/>
        <pt x="70" y="335" on="1"/>
        <pt x="91" y="481" on="0"/>
        <pt x="320" y="685" on="0"/>
        <pt x="461" y="685" on="1"/>
        <pt x="613" y="685" on="0"/>
        <pt x="788" y="480" on="0"/>
        <pt x="767" y="334" on="1"/>
        <pt x="754" y="244" on="0"/>
        <pt x="666" y="100" on="0"/>
        <pt x="598" y="53" on="1"/>
        <pt x="777" y="-170" on="1"/>
      </contour>
      <contour>
        <pt x="177" y="334" on="1"/>
        <pt x="162" y="229" on="0"/>
        <pt x="281" y="87" on="0"/>
        <pt x="377" y="87" on="1"/>
        <pt x="484" y="87" on="0"/>
        <pt x="643" y="227" on="0"/>
        <pt x="658" y="334" on="1"/>
        <pt x="674" y="440" on="0"/>
        <pt x="557" y="584" on="0"/>
        <pt x="459" y="584" on="1"/>
        <pt x="352" y="584" on="0"/>
        <pt x="193" y="441" on="0"/>
      </contour>
    </TTGlyph>
    <TTGlyph name="R" xMin="24" yMin="0" xMax="682" yMax="670">
      <contour>
        <pt x="682" y="497" on="1"/>
        <pt x="682" y="408" on="0"/>
        <pt x="557" y="284" on="0"/>
        <pt x="453" y="270" on="1"/>
        <pt x="608" y="0" on="1"/>
        <pt x="486" y="0" on="1"/>
        <pt x="340" y="267" on="1"/>
        <pt x="193" y="267" on="1"/>
        <pt x="132" y="0" on="1"/>
        <pt x="24" y="0" on="1"/>
        <pt x="156" y="573" on="1"/>
        <pt x="179" y="670" on="1"/>
        <pt x="479" y="670" on="1"/>
        <pt x="572" y="670" on="0"/>
        <pt x="682" y="578" on="0"/>
      </contour>
      <contour>
        <pt x="216" y="364" on="1"/>
        <pt x="407" y="364" on="1"/>
        <pt x="481" y="364" on="0"/>
        <pt x="573" y="434" on="0"/>
        <pt x="573" y="489" on="1"/>
        <pt x="573" y="529" on="0"/>
        <pt x="518" y="573" on="0"/>
        <pt x="473" y="573" on="1"/>
        <pt x="264" y="573" on="1"/>
      </contour>
    </TTGlyph>
    <TTGlyph name="Racute" xMin="24" yMin="0" xMax="682" yMax="883">
      <contour>
        <pt x="480" y="741" on="1"/>
        <pt x="384" y="741" on="1"/>
        <pt x="490" y="883" on="1"/>
        <pt x="620" y="883" on="1"/>
      </contour>
      <contour>
        <pt x="682" y="497" on="1"/>
        <pt x="682" y="408" on="0"/>
        <pt x="557" y="284" on="0"/>
        <pt x="453" y="270" on="1"/>
        <pt x="608" y="0" on="1"/>
        <pt x="486" y="0" on="1"/>
        <pt x="340" y="267" on="1"/>
        <pt x="193" y="267" on="1"/>
        <pt x="132" y="0" on="1"/>
        <pt x="24" y="0" on="1"/>
        <pt x="156" y="573" on="1"/>
        <pt x="179" y="670" on="1"/>
        <pt x="479" y="670" on="1"/>
        <pt x="572" y="670" on="0"/>
        <pt x="682" y="578" on="0"/>
      </contour>
      <contour>
        <pt x="216" y="364" on="1"/>
        <pt x="407" y="364" on="1"/>
        <pt x="481" y="364" on="0"/>
        <pt x="573" y="434" on="0"/>
        <pt x="573" y="489" on="1"/>
        <pt x="573" y="529" on="0"/>
        <pt x="518" y="573" on="0"/>
        <pt x="473" y="573" on="1"/>
        <pt x="264" y="573" on="1"/>
      </contour>
    </TTGlyph>
    <TTGlyph name="Rcaron" xMin="24" yMin="0" xMax="682" yMax="879">
      <contour>
        <pt x="377" y="733" on="1"/>
        <pt x="296" y="879" on="1"/>
        <pt x="394" y="879" on="1"/>
        <pt x="436" y="801" on="1"/>
        <pt x="515" y="879" on="1"/>
        <pt x="625" y="879" on="1"/>
        <pt x="476" y="733" on="1"/>
      </contour>
      <contour>
        <pt x="682" y="497" on="1"/>
        <pt x="682" y="408" on="0"/>
        <pt x="557" y="284" on="0"/>
        <pt x="453" y="270" on="1"/>
        <pt x="608" y="0" on="1"/>
        <pt x="486" y="0" on="1"/>
        <pt x="340" y="267" on="1"/>
        <pt x="193" y="267" on="1"/>
        <pt x="132" y="0" on="1"/>
        <pt x="24" y="0" on="1"/>
        <pt x="156" y="573" on="1"/>
        <pt x="179" y="670" on="1"/>
        <pt x="479" y="670" on="1"/>
        <pt x="572" y="670" on="0"/>
        <pt x="682" y="578" on="0"/>
      </contour>
      <contour>
        <pt x="216" y="364" on="1"/>
        <pt x="407" y="364" on="1"/>
        <pt x="481" y="364" on="0"/>
        <pt x="573" y="434" on="0"/>
        <pt x="573" y="489" on="1"/>
        <pt x="573" y="529" on="0"/>
        <pt x="518" y="573" on="0"/>
        <pt x="473" y="573" on="1"/>
        <pt x="264" y="573" on="1"/>
      </contour>
    </TTGlyph>
    <TTGlyph name="Rcommaaccent" xMin="24" yMin="-191" xMax="682" yMax="670">
      <contour>
        <pt x="682" y="497" on="1"/>
        <pt x="682" y="408" on="0"/>
        <pt x="557" y="284" on="0"/>
        <pt x="453" y="270" on="1"/>
        <pt x="608" y="0" on="1"/>
        <pt x="486" y="0" on="1"/>
        <pt x="340" y="267" on="1"/>
        <pt x="193" y="267" on="1"/>
        <pt x="132" y="0" on="1"/>
        <pt x="24" y="0" on="1"/>
        <pt x="156" y="573" on="1"/>
        <pt x="179" y="670" on="1"/>
        <pt x="479" y="670" on="1"/>
        <pt x="572" y="670" on="0"/>
        <pt x="682" y="578" on="0"/>
      </contour>
      <contour>
        <pt x="216" y="364" on="1"/>
        <pt x="407" y="364" on="1"/>
        <pt x="481" y="364" on="0"/>
        <pt x="573" y="434" on="0"/>
        <pt x="573" y="489" on="1"/>
        <pt x="573" y="529" on="0"/>
        <pt x="518" y="573" on="0"/>
        <pt x="473" y="573" on="1"/>
        <pt x="264" y="573" on="1"/>
      </contour>
      <contour>
        <pt x="227" y="-45" on="1"/>
        <pt x="341" y="-45" on="1"/>
        <pt x="224" y="-191" on="1"/>
        <pt x="145" y="-191" on="1"/>
      </contour>
    </TTGlyph>
    <TTGlyph name="S" xMin="24" yMin="-14" xMax="629" yMax="684">
      <contour>
        <pt x="388" y="684" on="1"/>
        <pt x="493" y="684" on="0"/>
        <pt x="621" y="582" on="0"/>
        <pt x="629" y="493" on="1"/>
        <pt x="521" y="470" on="1"/>
        <pt x="519" y="525" on="0"/>
        <pt x="440" y="593" on="0"/>
        <pt x="377" y="593" on="1"/>
        <pt x="315" y="593" on="0"/>
        <pt x="234" y="529" on="0"/>
        <pt x="234" y="482" on="1"/>
        <pt x="234" y="455" on="0"/>
        <pt x="267" y="421" on="0"/>
        <pt x="306" y="407" on="1"/>
        <pt x="413" y="372" on="1"/>
        <pt x="561" y="324" on="0"/>
        <pt x="561" y="205" on="1"/>
        <pt x="561" y="106" on="0"/>
        <pt x="412" y="-14" on="0"/>
        <pt x="291" y="-14" on="1"/>
        <pt x="181" y="-14" on="0"/>
        <pt x="30" y="90" on="0"/>
        <pt x="24" y="188" on="1"/>
        <pt x="138" y="211" on="1"/>
        <pt x="142" y="147" on="0"/>
        <pt x="228" y="79" on="0"/>
        <pt x="372" y="79" on="0"/>
        <pt x="454" y="142" on="0"/>
        <pt x="454" y="193" on="1"/>
        <pt x="454" y="222" on="0"/>
        <pt x="418" y="259" on="0"/>
        <pt x="374" y="274" on="1"/>
        <pt x="268" y="308" on="1"/>
        <pt x="200" y="331" on="0"/>
        <pt x="122" y="401" on="0"/>
        <pt x="122" y="468" on="1"/>
        <pt x="122" y="563" on="0"/>
        <pt x="271" y="684" on="0"/>
      </contour>
    </TTGlyph>
    <TTGlyph name="Sacute" xMin="24" yMin="-14" xMax="629" yMax="883">
      <contour>
        <pt x="461" y="741" on="1"/>
        <pt x="365" y="741" on="1"/>
        <pt x="471" y="883" on="1"/>
        <pt x="601" y="883" on="1"/>
      </contour>
      <contour>
        <pt x="388" y="684" on="1"/>
        <pt x="493" y="684" on="0"/>
        <pt x="621" y="582" on="0"/>
        <pt x="629" y="493" on="1"/>
        <pt x="521" y="470" on="1"/>
        <pt x="519" y="525" on="0"/>
        <pt x="440" y="593" on="0"/>
        <pt x="377" y="593" on="1"/>
        <pt x="315" y="593" on="0"/>
        <pt x="234" y="529" on="0"/>
        <pt x="234" y="482" on="1"/>
        <pt x="234" y="455" on="0"/>
        <pt x="267" y="421" on="0"/>
        <pt x="306" y="407" on="1"/>
        <pt x="413" y="372" on="1"/>
        <pt x="561" y="324" on="0"/>
        <pt x="561" y="205" on="1"/>
        <pt x="561" y="106" on="0"/>
        <pt x="412" y="-14" on="0"/>
        <pt x="291" y="-14" on="1"/>
        <pt x="181" y="-14" on="0"/>
        <pt x="30" y="90" on="0"/>
        <pt x="24" y="188" on="1"/>
        <pt x="138" y="211" on="1"/>
        <pt x="142" y="147" on="0"/>
        <pt x="228" y="79" on="0"/>
        <pt x="372" y="79" on="0"/>
        <pt x="454" y="142" on="0"/>
        <pt x="454" y="193" on="1"/>
        <pt x="454" y="222" on="0"/>
        <pt x="418" y="259" on="0"/>
        <pt x="374" y="274" on="1"/>
        <pt x="268" y="308" on="1"/>
        <pt x="200" y="331" on="0"/>
        <pt x="122" y="401" on="0"/>
        <pt x="122" y="468" on="1"/>
        <pt x="122" y="563" on="0"/>
        <pt x="271" y="684" on="0"/>
      </contour>
    </TTGlyph>
    <TTGlyph name="Scaron" xMin="24" yMin="-14" xMax="629" yMax="879">
      <contour>
        <pt x="358" y="733" on="1"/>
        <pt x="277" y="879" on="1"/>
        <pt x="375" y="879" on="1"/>
        <pt x="417" y="801" on="1"/>
        <pt x="496" y="879" on="1"/>
        <pt x="606" y="879" on="1"/>
        <pt x="457" y="733" on="1"/>
      </contour>
      <contour>
        <pt x="306" y="407" on="1"/>
        <pt x="413" y="372" on="1"/>
        <pt x="561" y="324" on="0"/>
        <pt x="561" y="205" on="1"/>
        <pt x="561" y="106" on="0"/>
        <pt x="412" y="-14" on="0"/>
        <pt x="291" y="-14" on="1"/>
        <pt x="181" y="-14" on="0"/>
        <pt x="30" y="90" on="0"/>
        <pt x="24" y="188" on="1"/>
        <pt x="138" y="211" on="1"/>
        <pt x="142" y="147" on="0"/>
        <pt x="228" y="79" on="0"/>
        <pt x="372" y="79" on="0"/>
        <pt x="454" y="142" on="0"/>
        <pt x="454" y="193" on="1"/>
        <pt x="454" y="222" on="0"/>
        <pt x="418" y="259" on="0"/>
        <pt x="374" y="274" on="1"/>
        <pt x="268" y="308" on="1"/>
        <pt x="200" y="331" on="0"/>
        <pt x="122" y="401" on="0"/>
        <pt x="122" y="468" on="1"/>
        <pt x="122" y="563" on="0"/>
        <pt x="271" y="684" on="0"/>
        <pt x="388" y="684" on="1"/>
        <pt x="493" y="684" on="0"/>
        <pt x="621" y="582" on="0"/>
        <pt x="629" y="493" on="1"/>
        <pt x="521" y="470" on="1"/>
        <pt x="519" y="525" on="0"/>
        <pt x="440" y="593" on="0"/>
        <pt x="377" y="593" on="1"/>
        <pt x="315" y="593" on="0"/>
        <pt x="234" y="529" on="0"/>
        <pt x="234" y="482" on="1"/>
        <pt x="234" y="455" on="0"/>
        <pt x="267" y="421" on="0"/>
      </contour>
    </TTGlyph>
    <TTGlyph name="Scedilla" xMin="24" yMin="-165" xMax="629" yMax="684">
      <contour>
        <pt x="306" y="407" on="1"/>
        <pt x="413" y="372" on="1"/>
        <pt x="561" y="324" on="0"/>
        <pt x="561" y="205" on="1"/>
        <pt x="561" y="112" on="0"/>
        <pt x="426" y="-7" on="0"/>
        <pt x="315" y="-13" on="1"/>
        <pt x="221" y="-165" on="1"/>
        <pt x="100" y="-165" on="1"/>
        <pt x="235" y="-10" on="1"/>
        <pt x="145" y="2" on="0"/>
        <pt x="29" y="104" on="0"/>
        <pt x="24" y="188" on="1"/>
        <pt x="138" y="211" on="1"/>
        <pt x="142" y="147" on="0"/>
        <pt x="228" y="79" on="0"/>
        <pt x="372" y="79" on="0"/>
        <pt x="454" y="142" on="0"/>
        <pt x="454" y="193" on="1"/>
        <pt x="454" y="222" on="0"/>
        <pt x="418" y="259" on="0"/>
        <pt x="374" y="274" on="1"/>
        <pt x="268" y="308" on="1"/>
        <pt x="200" y="331" on="0"/>
        <pt x="122" y="401" on="0"/>
        <pt x="122" y="468" on="1"/>
        <pt x="122" y="563" on="0"/>
        <pt x="271" y="684" on="0"/>
        <pt x="388" y="684" on="1"/>
        <pt x="493" y="684" on="0"/>
        <pt x="621" y="582" on="0"/>
        <pt x="629" y="493" on="1"/>
        <pt x="521" y="470" on="1"/>
        <pt x="519" y="525" on="0"/>
        <pt x="440" y="593" on="0"/>
        <pt x="377" y="593" on="1"/>
        <pt x="315" y="593" on="0"/>
        <pt x="234" y="529" on="0"/>
        <pt x="234" y="482" on="1"/>
        <pt x="234" y="455" on="0"/>
        <pt x="267" y="421" on="0"/>
      </contour>
    </TTGlyph>
    <TTGlyph name="Scommaaccent" xMin="24" yMin="-191" xMax="629" yMax="684">
      <contour>
        <pt x="388" y="684" on="1"/>
        <pt x="493" y="684" on="0"/>
        <pt x="621" y="582" on="0"/>
        <pt x="629" y="493" on="1"/>
        <pt x="521" y="470" on="1"/>
        <pt x="519" y="525" on="0"/>
        <pt x="440" y="593" on="0"/>
        <pt x="377" y="593" on="1"/>
        <pt x="315" y="593" on="0"/>
        <pt x="234" y="529" on="0"/>
        <pt x="234" y="482" on="1"/>
        <pt x="234" y="455" on="0"/>
        <pt x="267" y="421" on="0"/>
        <pt x="306" y="407" on="1"/>
        <pt x="413" y="372" on="1"/>
        <pt x="561" y="324" on="0"/>
        <pt x="561" y="205" on="1"/>
        <pt x="561" y="106" on="0"/>
        <pt x="412" y="-14" on="0"/>
        <pt x="291" y="-14" on="1"/>
        <pt x="181" y="-14" on="0"/>
        <pt x="30" y="90" on="0"/>
        <pt x="24" y="188" on="1"/>
        <pt x="138" y="211" on="1"/>
        <pt x="142" y="147" on="0"/>
        <pt x="228" y="79" on="0"/>
        <pt x="372" y="79" on="0"/>
        <pt x="454" y="142" on="0"/>
        <pt x="454" y="193" on="1"/>
        <pt x="454" y="222" on="0"/>
        <pt x="418" y="259" on="0"/>
        <pt x="374" y="274" on="1"/>
        <pt x="268" y="308" on="1"/>
        <pt x="200" y="331" on="0"/>
        <pt x="122" y="401" on="0"/>
        <pt x="122" y="468" on="1"/>
        <pt x="122" y="563" on="0"/>
        <pt x="271" y="684" on="0"/>
      </contour>
      <contour>
        <pt x="124" y="-191" on="1"/>
        <pt x="206" y="-45" on="1"/>
        <pt x="320" y="-45" on="1"/>
        <pt x="203" y="-191" on="1"/>
      </contour>
    </TTGlyph>
    <TTGlyph name="T" xMin="98" yMin="0" xMax="700" yMax="670">
      <contour>
        <pt x="677" y="573" on="1"/>
        <pt x="442" y="573" on="1"/>
        <pt x="310" y="0" on="1"/>
        <pt x="202" y="0" on="1"/>
        <pt x="334" y="573" on="1"/>
        <pt x="98" y="573" on="1"/>
        <pt x="120" y="670" on="1"/>
        <pt x="700" y="670" on="1"/>
      </contour>
    </TTGlyph>
    <TTGlyph name="Tbar" xMin="98" yMin="0" xMax="700" yMax="670">
      <contour>
        <pt x="442" y="573" on="1"/>
        <pt x="397" y="380" on="1"/>
        <pt x="527" y="380" on="1"/>
        <pt x="506" y="290" on="1"/>
        <pt x="377" y="290" on="1"/>
        <pt x="310" y="0" on="1"/>
        <pt x="202" y="0" on="1"/>
        <pt x="269" y="290" on="1"/>
        <pt x="145" y="290" on="1"/>
        <pt x="166" y="380" on="1"/>
        <pt x="289" y="380" on="1"/>
        <pt x="334" y="573" on="1"/>
        <pt x="98" y="573" on="1"/>
        <pt x="120" y="670" on="1"/>
        <pt x="700" y="670" on="1"/>
        <pt x="677" y="573" on="1"/>
      </contour>
    </TTGlyph>
    <TTGlyph name="Tcaron" xMin="98" yMin="0" xMax="700" yMax="879">
      <contour>
        <pt x="376" y="733" on="1"/>
        <pt x="295" y="879" on="1"/>
        <pt x="393" y="879" on="1"/>
        <pt x="435" y="801" on="1"/>
        <pt x="514" y="879" on="1"/>
        <pt x="624" y="879" on="1"/>
        <pt x="475" y="733" on="1"/>
      </contour>
      <contour>
        <pt x="677" y="573" on="1"/>
        <pt x="442" y="573" on="1"/>
        <pt x="310" y="0" on="1"/>
        <pt x="202" y="0" on="1"/>
        <pt x="334" y="573" on="1"/>
        <pt x="98" y="573" on="1"/>
        <pt x="120" y="670" on="1"/>
        <pt x="700" y="670" on="1"/>
      </contour>
    </TTGlyph>
    <TTGlyph name="Thorn" xMin="22" yMin="0" xMax="629" yMax="670">
      <contour>
        <pt x="258" y="555" on="1"/>
        <pt x="413" y="555" on="1"/>
        <pt x="511" y="555" on="0"/>
        <pt x="629" y="456" on="0"/>
        <pt x="629" y="374" on="1"/>
        <pt x="629" y="263" on="0"/>
        <pt x="472" y="115" on="0"/>
        <pt x="358" y="115" on="1"/>
        <pt x="156" y="115" on="1"/>
        <pt x="130" y="0" on="1"/>
        <pt x="22" y="0" on="1"/>
        <pt x="176" y="670" on="1"/>
        <pt x="284" y="670" on="1"/>
      </contour>
      <contour>
        <pt x="179" y="213" on="1"/>
        <pt x="351" y="213" on="1"/>
        <pt x="422" y="213" on="0"/>
        <pt x="519" y="298" on="0"/>
        <pt x="519" y="360" on="1"/>
        <pt x="519" y="406" on="0"/>
        <pt x="462" y="458" on="0"/>
        <pt x="409" y="458" on="1"/>
        <pt x="235" y="458" on="1"/>
      </contour>
    </TTGlyph>
    <TTGlyph name="U" xMin="83" yMin="-14" xMax="742" yMax="670">
      <contour>
        <pt x="742" y="670" on="1"/>
        <pt x="656" y="296" on="1"/>
        <pt x="623" y="152" on="0"/>
        <pt x="446" y="-14" on="0"/>
        <pt x="311" y="-14" on="1"/>
        <pt x="189" y="-14" on="0"/>
        <pt x="52" y="161" on="0"/>
        <pt x="83" y="296" on="1"/>
        <pt x="169" y="670" on="1"/>
        <pt x="277" y="670" on="1"/>
        <pt x="191" y="296" on="1"/>
        <pt x="169" y="202" on="0"/>
        <pt x="243" y="89" on="0"/>
        <pt x="325" y="89" on="1"/>
        <pt x="405" y="89" on="0"/>
        <pt x="526" y="202" on="0"/>
        <pt x="548" y="296" on="1"/>
        <pt x="634" y="670" on="1"/>
      </contour>
    </TTGlyph>
    <TTGlyph name="Uacute" xMin="83" yMin="-14" xMax="742" yMax="883">
      <contour>
        <pt x="521" y="741" on="1"/>
        <pt x="425" y="741" on="1"/>
        <pt x="531" y="883" on="1"/>
        <pt x="661" y="883" on="1"/>
      </contour>
      <contour>
        <pt x="742" y="670" on="1"/>
        <pt x="656" y="296" on="1"/>
        <pt x="623" y="152" on="0"/>
        <pt x="446" y="-14" on="0"/>
        <pt x="311" y="-14" on="1"/>
        <pt x="189" y="-14" on="0"/>
        <pt x="52" y="161" on="0"/>
        <pt x="83" y="296" on="1"/>
        <pt x="169" y="670" on="1"/>
        <pt x="277" y="670" on="1"/>
        <pt x="191" y="296" on="1"/>
        <pt x="169" y="202" on="0"/>
        <pt x="243" y="89" on="0"/>
        <pt x="325" y="89" on="1"/>
        <pt x="405" y="89" on="0"/>
        <pt x="526" y="202" on="0"/>
        <pt x="548" y="296" on="1"/>
        <pt x="634" y="670" on="1"/>
      </contour>
    </TTGlyph>
    <TTGlyph name="Ucircumflex" xMin="83" yMin="-14" xMax="742" yMax="878">
      <contour>
        <pt x="432" y="733" on="1"/>
        <pt x="322" y="733" on="1"/>
        <pt x="471" y="878" on="1"/>
        <pt x="570" y="878" on="1"/>
        <pt x="652" y="733" on="1"/>
        <pt x="553" y="733" on="1"/>
        <pt x="511" y="810" on="1"/>
      </contour>
      <contour>
        <pt x="742" y="670" on="1"/>
        <pt x="656" y="296" on="1"/>
        <pt x="623" y="152" on="0"/>
        <pt x="446" y="-14" on="0"/>
        <pt x="311" y="-14" on="1"/>
        <pt x="189" y="-14" on="0"/>
        <pt x="52" y="161" on="0"/>
        <pt x="83" y="296" on="1"/>
        <pt x="169" y="670" on="1"/>
        <pt x="277" y="670" on="1"/>
        <pt x="191" y="296" on="1"/>
        <pt x="169" y="202" on="0"/>
        <pt x="243" y="89" on="0"/>
        <pt x="325" y="89" on="1"/>
        <pt x="405" y="89" on="0"/>
        <pt x="526" y="202" on="0"/>
        <pt x="548" y="296" on="1"/>
        <pt x="634" y="670" on="1"/>
      </contour>
    </TTGlyph>
    <TTGlyph name="Udieresis" xMin="83" yMin="-14" xMax="742" yMax="873">
      <contour>
        <pt x="380" y="744" on="1"/>
        <pt x="352" y="744" on="0"/>
        <pt x="315" y="780" on="0"/>
        <pt x="315" y="808" on="1"/>
        <pt x="315" y="834" on="0"/>
        <pt x="352" y="873" on="0"/>
        <pt x="408" y="873" on="0"/>
        <pt x="446" y="834" on="0"/>
        <pt x="446" y="808" on="1"/>
        <pt x="446" y="780" on="0"/>
        <pt x="409" y="744" on="0"/>
      </contour>
      <contour>
        <pt x="587" y="744" on="1"/>
        <pt x="559" y="744" on="0"/>
        <pt x="522" y="780" on="0"/>
        <pt x="522" y="808" on="1"/>
        <pt x="522" y="834" on="0"/>
        <pt x="559" y="873" on="0"/>
        <pt x="615" y="873" on="0"/>
        <pt x="653" y="834" on="0"/>
        <pt x="653" y="808" on="1"/>
        <pt x="653" y="780" on="0"/>
        <pt x="616" y="744" on="0"/>
      </contour>
      <contour>
        <pt x="742" y="670" on="1"/>
        <pt x="656" y="296" on="1"/>
        <pt x="623" y="152" on="0"/>
        <pt x="446" y="-14" on="0"/>
        <pt x="311" y="-14" on="1"/>
        <pt x="189" y="-14" on="0"/>
        <pt x="52" y="161" on="0"/>
        <pt x="83" y="296" on="1"/>
        <pt x="169" y="670" on="1"/>
        <pt x="277" y="670" on="1"/>
        <pt x="191" y="296" on="1"/>
        <pt x="169" y="202" on="0"/>
        <pt x="243" y="89" on="0"/>
        <pt x="325" y="89" on="1"/>
        <pt x="405" y="89" on="0"/>
        <pt x="526" y="202" on="0"/>
        <pt x="548" y="296" on="1"/>
        <pt x="634" y="670" on="1"/>
      </contour>
    </TTGlyph>
    <TTGlyph name="Ugrave" xMin="83" yMin="-14" xMax="742" yMax="883">
      <contour>
        <pt x="423" y="741" on="1"/>
        <pt x="283" y="883" on="1"/>
        <pt x="413" y="883" on="1"/>
        <pt x="519" y="741" on="1"/>
      </contour>
      <contour>
        <pt x="742" y="670" on="1"/>
        <pt x="656" y="296" on="1"/>
        <pt x="623" y="152" on="0"/>
        <pt x="446" y="-14" on="0"/>
        <pt x="311" y="-14" on="1"/>
        <pt x="189" y="-14" on="0"/>
        <pt x="52" y="161" on="0"/>
        <pt x="83" y="296" on="1"/>
        <pt x="169" y="670" on="1"/>
        <pt x="277" y="670" on="1"/>
        <pt x="191" y="296" on="1"/>
        <pt x="169" y="202" on="0"/>
        <pt x="243" y="89" on="0"/>
        <pt x="325" y="89" on="1"/>
        <pt x="405" y="89" on="0"/>
        <pt x="526" y="202" on="0"/>
        <pt x="548" y="296" on="1"/>
        <pt x="634" y="670" on="1"/>
      </contour>
    </TTGlyph>
    <TTGlyph name="Uhungarumlaut" xMin="83" yMin="-14" xMax="742" yMax="883">
      <contour>
        <pt x="427" y="741" on="1"/>
        <pt x="333" y="741" on="1"/>
        <pt x="439" y="883" on="1"/>
        <pt x="568" y="883" on="1"/>
      </contour>
      <contour>
        <pt x="503" y="741" on="1"/>
        <pt x="609" y="883" on="1"/>
        <pt x="738" y="883" on="1"/>
        <pt x="597" y="741" on="1"/>
      </contour>
      <contour>
        <pt x="742" y="670" on="1"/>
        <pt x="656" y="296" on="1"/>
        <pt x="623" y="152" on="0"/>
        <pt x="446" y="-14" on="0"/>
        <pt x="311" y="-14" on="1"/>
        <pt x="189" y="-14" on="0"/>
        <pt x="52" y="161" on="0"/>
        <pt x="83" y="296" on="1"/>
        <pt x="169" y="670" on="1"/>
        <pt x="277" y="670" on="1"/>
        <pt x="191" y="296" on="1"/>
        <pt x="169" y="202" on="0"/>
        <pt x="243" y="89" on="0"/>
        <pt x="325" y="89" on="1"/>
        <pt x="405" y="89" on="0"/>
        <pt x="526" y="202" on="0"/>
        <pt x="548" y="296" on="1"/>
        <pt x="634" y="670" on="1"/>
      </contour>
    </TTGlyph>
    <TTGlyph name="Umacron" xMin="83" yMin="-14" xMax="742" yMax="837">
      <contour>
        <pt x="622" y="752" on="1"/>
        <pt x="321" y="752" on="1"/>
        <pt x="340" y="837" on="1"/>
        <pt x="641" y="837" on="1"/>
      </contour>
      <contour>
        <pt x="742" y="670" on="1"/>
        <pt x="656" y="296" on="1"/>
        <pt x="623" y="152" on="0"/>
        <pt x="446" y="-14" on="0"/>
        <pt x="311" y="-14" on="1"/>
        <pt x="189" y="-14" on="0"/>
        <pt x="52" y="161" on="0"/>
        <pt x="83" y="296" on="1"/>
        <pt x="169" y="670" on="1"/>
        <pt x="277" y="670" on="1"/>
        <pt x="191" y="296" on="1"/>
        <pt x="169" y="202" on="0"/>
        <pt x="243" y="89" on="0"/>
        <pt x="325" y="89" on="1"/>
        <pt x="405" y="89" on="0"/>
        <pt x="526" y="202" on="0"/>
        <pt x="548" y="296" on="1"/>
        <pt x="634" y="670" on="1"/>
      </contour>
    </TTGlyph>
    <TTGlyph name="Uogonek" xMin="83" yMin="-205" xMax="742" yMax="670">
      <contour>
        <pt x="742" y="670" on="1"/>
        <pt x="656" y="296" on="1"/>
        <pt x="618" y="138" on="0"/>
        <pt x="521" y="58" on="1"/>
        <pt x="404" y="-56" on="0"/>
        <pt x="393" y="-69" on="1"/>
        <pt x="376" y="-89" on="0"/>
        <pt x="376" y="-105" on="1"/>
        <pt x="376" y="-133" on="0"/>
        <pt x="408" y="-133" on="1"/>
        <pt x="422" y="-133" on="0"/>
        <pt x="457" y="-122" on="1"/>
        <pt x="443" y="-188" on="1"/>
        <pt x="409" y="-205" on="0"/>
        <pt x="374" y="-205" on="1"/>
        <pt x="338" y="-205" on="0"/>
        <pt x="293" y="-165" on="0"/>
        <pt x="293" y="-131" on="1"/>
        <pt x="293" y="-71" on="0"/>
        <pt x="384" y="-7" on="1"/>
        <pt x="352" y="-14" on="0"/>
        <pt x="311" y="-14" on="1"/>
        <pt x="189" y="-14" on="0"/>
        <pt x="52" y="161" on="0"/>
        <pt x="83" y="296" on="1"/>
        <pt x="169" y="670" on="1"/>
        <pt x="277" y="670" on="1"/>
        <pt x="191" y="296" on="1"/>
        <pt x="169" y="202" on="0"/>
        <pt x="243" y="89" on="0"/>
        <pt x="325" y="89" on="1"/>
        <pt x="405" y="89" on="0"/>
        <pt x="526" y="202" on="0"/>
        <pt x="548" y="296" on="1"/>
        <pt x="634" y="670" on="1"/>
      </contour>
    </TTGlyph>
    <TTGlyph name="Uring" xMin="83" yMin="-14" xMax="742" yMax="936">
      <contour>
        <pt x="478" y="721" on="1"/>
        <pt x="433" y="721" on="0"/>
        <pt x="375" y="779" on="0"/>
        <pt x="375" y="821" on="1"/>
        <pt x="375" y="868" on="0"/>
        <pt x="446" y="936" on="0"/>
        <pt x="495" y="936" on="1"/>
        <pt x="540" y="936" on="0"/>
        <pt x="598" y="878" on="0"/>
        <pt x="598" y="836" on="1"/>
        <pt x="598" y="788" on="0"/>
        <pt x="527" y="721" on="0"/>
      </contour>
      <contour>
        <pt x="490" y="875" on="1"/>
        <pt x="469" y="875" on="0"/>
        <pt x="440" y="846" on="0"/>
        <pt x="440" y="825" on="1"/>
        <pt x="440" y="806" on="0"/>
        <pt x="463" y="781" on="0"/>
        <pt x="483" y="781" on="1"/>
        <pt x="504" y="781" on="0"/>
        <pt x="535" y="812" on="0"/>
        <pt x="535" y="833" on="1"/>
        <pt x="535" y="851" on="0"/>
        <pt x="510" y="875" on="0"/>
      </contour>
      <contour>
        <pt x="742" y="670" on="1"/>
        <pt x="656" y="296" on="1"/>
        <pt x="623" y="152" on="0"/>
        <pt x="446" y="-14" on="0"/>
        <pt x="311" y="-14" on="1"/>
        <pt x="189" y="-14" on="0"/>
        <pt x="52" y="161" on="0"/>
        <pt x="83" y="296" on="1"/>
        <pt x="169" y="670" on="1"/>
        <pt x="277" y="670" on="1"/>
        <pt x="191" y="296" on="1"/>
        <pt x="169" y="202" on="0"/>
        <pt x="243" y="89" on="0"/>
        <pt x="325" y="89" on="1"/>
        <pt x="405" y="89" on="0"/>
        <pt x="526" y="202" on="0"/>
        <pt x="548" y="296" on="1"/>
        <pt x="634" y="670" on="1"/>
      </contour>
    </TTGlyph>
    <TTGlyph name="V" xMin="111" yMin="0" xMax="789" yMax="670">
      <contour>
        <pt x="789" y="670" on="1"/>
        <pt x="347" y="0" on="1"/>
        <pt x="243" y="0" on="1"/>
        <pt x="111" y="670" on="1"/>
        <pt x="222" y="670" on="1"/>
        <pt x="320" y="145" on="1"/>
        <pt x="662" y="670" on="1"/>
      </contour>
    </TTGlyph>
    <TTGlyph name="W" xMin="111" yMin="0" xMax="1041" yMax="670">
      <contour>
        <pt x="1041" y="670" on="1"/>
        <pt x="686" y="0" on="1"/>
        <pt x="571" y="0" on="1"/>
        <pt x="536" y="498" on="1"/>
        <pt x="270" y="0" on="1"/>
        <pt x="157" y="0" on="1"/>
        <pt x="111" y="670" on="1"/>
        <pt x="219" y="670" on="1"/>
        <pt x="249" y="165" on="1"/>
        <pt x="519" y="670" on="1"/>
        <pt x="625" y="670" on="1"/>
        <pt x="661" y="165" on="1"/>
        <pt x="925" y="670" on="1"/>
      </contour>
    </TTGlyph>
    <TTGlyph name="Wacute" xMin="111" yMin="0" xMax="1041" yMax="883">
      <contour>
        <pt x="645" y="741" on="1"/>
        <pt x="549" y="741" on="1"/>
        <pt x="655" y="883" on="1"/>
        <pt x="785" y="883" on="1"/>
      </contour>
      <contour>
        <pt x="1041" y="670" on="1"/>
        <pt x="686" y="0" on="1"/>
        <pt x="571" y="0" on="1"/>
        <pt x="536" y="498" on="1"/>
        <pt x="270" y="0" on="1"/>
        <pt x="157" y="0" on="1"/>
        <pt x="111" y="670" on="1"/>
        <pt x="219" y="670" on="1"/>
        <pt x="249" y="165" on="1"/>
        <pt x="519" y="670" on="1"/>
        <pt x="625" y="670" on="1"/>
        <pt x="661" y="165" on="1"/>
        <pt x="925" y="670" on="1"/>
      </contour>
    </TTGlyph>
    <TTGlyph name="Wcircumflex" xMin="111" yMin="0" xMax="1041" yMax="878">
      <contour>
        <pt x="556" y="733" on="1"/>
        <pt x="446" y="733" on="1"/>
        <pt x="595" y="878" on="1"/>
        <pt x="694" y="878" on="1"/>
        <pt x="776" y="733" on="1"/>
        <pt x="677" y="733" on="1"/>
        <pt x="635" y="810" on="1"/>
      </contour>
      <contour>
        <pt x="1041" y="670" on="1"/>
        <pt x="686" y="0" on="1"/>
        <pt x="571" y="0" on="1"/>
        <pt x="536" y="498" on="1"/>
        <pt x="270" y="0" on="1"/>
        <pt x="157" y="0" on="1"/>
        <pt x="111" y="670" on="1"/>
        <pt x="219" y="670" on="1"/>
        <pt x="249" y="165" on="1"/>
        <pt x="519" y="670" on="1"/>
        <pt x="625" y="670" on="1"/>
        <pt x="661" y="165" on="1"/>
        <pt x="925" y="670" on="1"/>
      </contour>
    </TTGlyph>
    <TTGlyph name="Wdieresis" xMin="111" yMin="0" xMax="1041" yMax="873">
      <contour>
        <pt x="504" y="744" on="1"/>
        <pt x="476" y="744" on="0"/>
        <pt x="439" y="780" on="0"/>
        <pt x="439" y="808" on="1"/>
        <pt x="439" y="834" on="0"/>
        <pt x="476" y="873" on="0"/>
        <pt x="532" y="873" on="0"/>
        <pt x="570" y="834" on="0"/>
        <pt x="570" y="808" on="1"/>
        <pt x="570" y="780" on="0"/>
        <pt x="533" y="744" on="0"/>
      </contour>
      <contour>
        <pt x="711" y="744" on="1"/>
        <pt x="683" y="744" on="0"/>
        <pt x="646" y="780" on="0"/>
        <pt x="646" y="808" on="1"/>
        <pt x="646" y="834" on="0"/>
        <pt x="683" y="873" on="0"/>
        <pt x="739" y="873" on="0"/>
        <pt x="777" y="834" on="0"/>
        <pt x="777" y="808" on="1"/>
        <pt x="777" y="780" on="0"/>
        <pt x="740" y="744" on="0"/>
      </contour>
      <contour>
        <pt x="1041" y="670" on="1"/>
        <pt x="686" y="0" on="1"/>
        <pt x="571" y="0" on="1"/>
        <pt x="536" y="498" on="1"/>
        <pt x="270" y="0" on="1"/>
        <pt x="157" y="0" on="1"/>
        <pt x="111" y="670" on="1"/>
        <pt x="219" y="670" on="1"/>
        <pt x="249" y="165" on="1"/>
        <pt x="519" y="670" on="1"/>
        <pt x="625" y="670" on="1"/>
        <pt x="661" y="165" on="1"/>
        <pt x="925" y="670" on="1"/>
      </contour>
    </TTGlyph>
    <TTGlyph name="Wgrave" xMin="111" yMin="0" xMax="1041" yMax="883">
      <contour>
        <pt x="547" y="741" on="1"/>
        <pt x="407" y="883" on="1"/>
        <pt x="537" y="883" on="1"/>
        <pt x="643" y="741" on="1"/>
      </contour>
      <contour>
        <pt x="1041" y="670" on="1"/>
        <pt x="686" y="0" on="1"/>
        <pt x="571" y="0" on="1"/>
        <pt x="536" y="498" on="1"/>
        <pt x="270" y="0" on="1"/>
        <pt x="157" y="0" on="1"/>
        <pt x="111" y="670" on="1"/>
        <pt x="219" y="670" on="1"/>
        <pt x="249" y="165" on="1"/>
        <pt x="519" y="670" on="1"/>
        <pt x="625" y="670" on="1"/>
        <pt x="661" y="165" on="1"/>
        <pt x="925" y="670" on="1"/>
      </contour>
    </TTGlyph>
    <TTGlyph name="X" xMin="-47" yMin="0" xMax="725" yMax="670">
      <contour>
        <pt x="409" y="334" on="1"/>
        <pt x="572" y="0" on="1"/>
        <pt x="449" y="0" on="1"/>
        <pt x="329" y="253" on="1"/>
        <pt x="93" y="0" on="1"/>
        <pt x="-47" y="0" on="1"/>
        <pt x="269" y="336" on="1"/>
        <pt x="110" y="670" on="1"/>
        <pt x="232" y="670" on="1"/>
        <pt x="351" y="419" on="1"/>
        <pt x="586" y="670" on="1"/>
        <pt x="725" y="670" on="1"/>
        <pt x="411" y="336" on="1"/>
      </contour>
    </TTGlyph>
    <TTGlyph name="Y" xMin="111" yMin="0" xMax="765" yMax="670">
      <contour>
        <pt x="387" y="224" on="1"/>
        <pt x="335" y="0" on="1"/>
        <pt x="227" y="0" on="1"/>
        <pt x="279" y="223" on="1"/>
        <pt x="111" y="670" on="1"/>
        <pt x="223" y="670" on="1"/>
        <pt x="351" y="334" on="1"/>
        <pt x="634" y="670" on="1"/>
        <pt x="765" y="670" on="1"/>
      </contour>
    </TTGlyph>
    <TTGlyph name="Yacute" xMin="111" yMin="0" xMax="765" yMax="883">
      <contour>
        <pt x="485" y="741" on="1"/>
        <pt x="389" y="741" on="1"/>
        <pt x="495" y="883" on="1"/>
        <pt x="625" y="883" on="1"/>
      </contour>
      <contour>
        <pt x="387" y="224" on="1"/>
        <pt x="335" y="0" on="1"/>
        <pt x="227" y="0" on="1"/>
        <pt x="279" y="223" on="1"/>
        <pt x="111" y="670" on="1"/>
        <pt x="223" y="670" on="1"/>
        <pt x="351" y="334" on="1"/>
        <pt x="634" y="670" on="1"/>
        <pt x="765" y="670" on="1"/>
      </contour>
    </TTGlyph>
    <TTGlyph name="Ycircumflex" xMin="111" yMin="0" xMax="765" yMax="878">
      <contour>
        <pt x="396" y="733" on="1"/>
        <pt x="286" y="733" on="1"/>
        <pt x="435" y="878" on="1"/>
        <pt x="534" y="878" on="1"/>
        <pt x="616" y="733" on="1"/>
        <pt x="517" y="733" on="1"/>
        <pt x="475" y="810" on="1"/>
      </contour>
      <contour>
        <pt x="387" y="224" on="1"/>
        <pt x="335" y="0" on="1"/>
        <pt x="227" y="0" on="1"/>
        <pt x="279" y="223" on="1"/>
        <pt x="111" y="670" on="1"/>
        <pt x="223" y="670" on="1"/>
        <pt x="351" y="334" on="1"/>
        <pt x="634" y="670" on="1"/>
        <pt x="765" y="670" on="1"/>
      </contour>
    </TTGlyph>
    <TTGlyph name="Ydieresis" xMin="111" yMin="0" xMax="765" yMax="873">
      <contour>
        <pt x="344" y="744" on="1"/>
        <pt x="316" y="744" on="0"/>
        <pt x="279" y="780" on="0"/>
        <pt x="279" y="808" on="1"/>
        <pt x="279" y="834" on="0"/>
        <pt x="316" y="873" on="0"/>
        <pt x="372" y="873" on="0"/>
        <pt x="410" y="834" on="0"/>
        <pt x="410" y="808" on="1"/>
        <pt x="410" y="780" on="0"/>
        <pt x="373" y="744" on="0"/>
      </contour>
      <contour>
        <pt x="551" y="744" on="1"/>
        <pt x="523" y="744" on="0"/>
        <pt x="486" y="780" on="0"/>
        <pt x="486" y="808" on="1"/>
        <pt x="486" y="834" on="0"/>
        <pt x="523" y="873" on="0"/>
        <pt x="579" y="873" on="0"/>
        <pt x="617" y="834" on="0"/>
        <pt x="617" y="808" on="1"/>
        <pt x="617" y="780" on="0"/>
        <pt x="580" y="744" on="0"/>
      </contour>
      <contour>
        <pt x="387" y="224" on="1"/>
        <pt x="335" y="0" on="1"/>
        <pt x="227" y="0" on="1"/>
        <pt x="279" y="223" on="1"/>
        <pt x="111" y="670" on="1"/>
        <pt x="223" y="670" on="1"/>
        <pt x="351" y="334" on="1"/>
        <pt x="634" y="670" on="1"/>
        <pt x="765" y="670" on="1"/>
      </contour>
    </TTGlyph>
    <TTGlyph name="Ygrave" xMin="111" yMin="0" xMax="765" yMax="883">
      <contour>
        <pt x="387" y="741" on="1"/>
        <pt x="247" y="883" on="1"/>
        <pt x="377" y="883" on="1"/>
        <pt x="483" y="741" on="1"/>
      </contour>
      <contour>
        <pt x="387" y="224" on="1"/>
        <pt x="335" y="0" on="1"/>
        <pt x="227" y="0" on="1"/>
        <pt x="279" y="223" on="1"/>
        <pt x="111" y="670" on="1"/>
        <pt x="223" y="670" on="1"/>
        <pt x="351" y="334" on="1"/>
        <pt x="634" y="670" on="1"/>
        <pt x="765" y="670" on="1"/>
      </contour>
    </TTGlyph>
    <TTGlyph name="Z" xMin="-4" yMin="0" xMax="671" yMax="670">
      <contour>
        <pt x="653" y="590" on="1"/>
        <pt x="170" y="92" on="1"/>
        <pt x="543" y="92" on="1"/>
        <pt x="522" y="0" on="1"/>
        <pt x="-4" y="0" on="1"/>
        <pt x="12" y="69" on="1"/>
        <pt x="512" y="578" on="1"/>
        <pt x="141" y="578" on="1"/>
        <pt x="161" y="670" on="1"/>
        <pt x="671" y="670" on="1"/>
      </contour>
    </TTGlyph>
    <TTGlyph name="Zacute" xMin="-4" yMin="0" xMax="671" yMax="883">
      <contour>
        <pt x="486" y="741" on="1"/>
        <pt x="390" y="741" on="1"/>
        <pt x="496" y="883" on="1"/>
        <pt x="626" y="883" on="1"/>
      </contour>
      <contour>
        <pt x="653" y="590" on="1"/>
        <pt x="170" y="92" on="1"/>
        <pt x="543" y="92" on="1"/>
        <pt x="522" y="0" on="1"/>
        <pt x="-4" y="0" on="1"/>
        <pt x="12" y="69" on="1"/>
        <pt x="512" y="578" on="1"/>
        <pt x="141" y="578" on="1"/>
        <pt x="161" y="670" on="1"/>
        <pt x="671" y="670" on="1"/>
      </contour>
    </TTGlyph>
    <TTGlyph name="Zcaron" xMin="-4" yMin="0" xMax="671" yMax="879">
      <contour>
        <pt x="383" y="733" on="1"/>
        <pt x="302" y="879" on="1"/>
        <pt x="400" y="879" on="1"/>
        <pt x="442" y="801" on="1"/>
        <pt x="521" y="879" on="1"/>
        <pt x="631" y="879" on="1"/>
        <pt x="482" y="733" on="1"/>
      </contour>
      <contour>
        <pt x="653" y="590" on="1"/>
        <pt x="170" y="92" on="1"/>
        <pt x="543" y="92" on="1"/>
        <pt x="522" y="0" on="1"/>
        <pt x="-4" y="0" on="1"/>
        <pt x="12" y="69" on="1"/>
        <pt x="512" y="578" on="1"/>
        <pt x="141" y="578" on="1"/>
        <pt x="161" y="670" on="1"/>
        <pt x="671" y="670" on="1"/>
      </contour>
    </TTGlyph>
    <TTGlyph name="Zdotaccent" xMin="-4" yMin="0" xMax="671" yMax="878">
      <contour>
        <pt x="477" y="752" on="0"/>
        <pt x="421" y="752" on="0"/>
        <pt x="385" y="788" on="0"/>
        <pt x="385" y="815" on="1"/>
        <pt x="385" y="841" on="0"/>
        <pt x="422" y="878" on="0"/>
        <pt x="476" y="878" on="0"/>
        <pt x="514" y="841" on="0"/>
        <pt x="514" y="815" on="1"/>
        <pt x="514" y="788" on="0"/>
      </contour>
      <contour>
        <pt x="653" y="590" on="1"/>
        <pt x="170" y="92" on="1"/>
        <pt x="543" y="92" on="1"/>
        <pt x="522" y="0" on="1"/>
        <pt x="-4" y="0" on="1"/>
        <pt x="12" y="69" on="1"/>
        <pt x="512" y="578" on="1"/>
        <pt x="141" y="578" on="1"/>
        <pt x="161" y="670" on="1"/>
        <pt x="671" y="670" on="1"/>
      </contour>
    </TTGlyph>
    <TTGlyph name="a" xMin="37" yMin="-14" xMax="625" yMax="510">
      <contour>
        <pt x="625" y="496" on="1"/>
        <pt x="510" y="0" on="1"/>
        <pt x="406" y="0" on="1"/>
        <pt x="418" y="51" on="1"/>
        <pt x="347" y="-14" on="0"/>
        <pt x="241" y="-14" on="1"/>
        <pt x="141" y="-14" on="0"/>
        <pt x="19" y="134" on="0"/>
        <pt x="37" y="249" on="1"/>
        <pt x="55" y="365" on="0"/>
        <pt x="217" y="510" on="0"/>
        <pt x="323" y="510" on="1"/>
        <pt x="455" y="510" on="0"/>
        <pt x="502" y="412" on="1"/>
        <pt x="521" y="496" on="1"/>
      </contour>
      <contour>
        <pt x="272" y="78" on="1"/>
        <pt x="337" y="78" on="0"/>
        <pt x="451" y="173" on="0"/>
        <pt x="475" y="325" on="0"/>
        <pt x="392" y="418" on="0"/>
        <pt x="327" y="418" on="1"/>
        <pt x="256" y="418" on="0"/>
        <pt x="151" y="325" on="0"/>
        <pt x="138" y="249" on="1"/>
        <pt x="125" y="172" on="0"/>
        <pt x="202" y="78" on="0"/>
      </contour>
    </TTGlyph>
    <TTGlyph name="a.ss01" xMin="11" yMin="-14" xMax="510" yMax="510">
      <contour>
        <pt x="327" y="510" on="1"/>
        <pt x="430" y="510" on="0"/>
        <pt x="533" y="400" on="0"/>
        <pt x="510" y="303" on="1"/>
        <pt x="440" y="0" on="1"/>
        <pt x="341" y="0" on="1"/>
        <pt x="353" y="54" on="1"/>
        <pt x="278" y="-14" on="0"/>
        <pt x="173" y="-14" on="1"/>
        <pt x="98" y="-14" on="0"/>
        <pt x="11" y="57" on="0"/>
        <pt x="11" y="119" on="1"/>
        <pt x="11" y="195" on="0"/>
        <pt x="140" y="297" on="0"/>
        <pt x="252" y="297" on="1"/>
        <pt x="409" y="297" on="1"/>
        <pt x="413" y="315" on="1"/>
        <pt x="424" y="363" on="0"/>
        <pt x="373" y="421" on="0"/>
        <pt x="318" y="421" on="1"/>
        <pt x="270" y="421" on="0"/>
        <pt x="191" y="374" on="0"/>
        <pt x="173" y="333" on="1"/>
        <pt x="80" y="358" on="1"/>
        <pt x="109" y="426" on="0"/>
        <pt x="245" y="510" on="0"/>
      </contour>
      <contour>
        <pt x="206" y="70" on="1"/>
        <pt x="267" y="70" on="0"/>
        <pt x="370" y="140" on="0"/>
        <pt x="384" y="190" on="1"/>
        <pt x="391" y="217" on="1"/>
        <pt x="229" y="217" on="1"/>
        <pt x="177" y="217" on="0"/>
        <pt x="114" y="170" on="0"/>
        <pt x="114" y="135" on="1"/>
        <pt x="114" y="105" on="0"/>
        <pt x="164" y="70" on="0"/>
      </contour>
    </TTGlyph>
    <TTGlyph name="aacute" xMin="37" yMin="-14" xMax="625" yMax="709">
      <contour>
        <pt x="440" y="567" on="1"/>
        <pt x="344" y="567" on="1"/>
        <pt x="450" y="709" on="1"/>
        <pt x="580" y="709" on="1"/>
      </contour>
      <contour>
        <pt x="625" y="496" on="1"/>
        <pt x="510" y="0" on="1"/>
        <pt x="406" y="0" on="1"/>
        <pt x="418" y="51" on="1"/>
        <pt x="347" y="-14" on="0"/>
        <pt x="241" y="-14" on="1"/>
        <pt x="141" y="-14" on="0"/>
        <pt x="19" y="134" on="0"/>
        <pt x="37" y="249" on="1"/>
        <pt x="55" y="365" on="0"/>
        <pt x="217" y="510" on="0"/>
        <pt x="323" y="510" on="1"/>
        <pt x="455" y="510" on="0"/>
        <pt x="502" y="412" on="1"/>
        <pt x="521" y="496" on="1"/>
      </contour>
      <contour>
        <pt x="272" y="78" on="1"/>
        <pt x="337" y="78" on="0"/>
        <pt x="451" y="173" on="0"/>
        <pt x="475" y="325" on="0"/>
        <pt x="392" y="418" on="0"/>
        <pt x="327" y="418" on="1"/>
        <pt x="256" y="418" on="0"/>
        <pt x="151" y="325" on="0"/>
        <pt x="138" y="249" on="1"/>
        <pt x="125" y="172" on="0"/>
        <pt x="202" y="78" on="0"/>
      </contour>
    </TTGlyph>
    <TTGlyph name="aacute.ss01" xMin="11" yMin="-14" xMax="562" yMax="709">
      <contour>
        <pt x="422" y="567" on="1"/>
        <pt x="326" y="567" on="1"/>
        <pt x="432" y="709" on="1"/>
        <pt x="562" y="709" on="1"/>
      </contour>
      <contour>
        <pt x="327" y="510" on="1"/>
        <pt x="430" y="510" on="0"/>
        <pt x="533" y="400" on="0"/>
        <pt x="510" y="303" on="1"/>
        <pt x="440" y="0" on="1"/>
        <pt x="341" y="0" on="1"/>
        <pt x="353" y="54" on="1"/>
        <pt x="278" y="-14" on="0"/>
        <pt x="173" y="-14" on="1"/>
        <pt x="98" y="-14" on="0"/>
        <pt x="11" y="57" on="0"/>
        <pt x="11" y="119" on="1"/>
        <pt x="11" y="195" on="0"/>
        <pt x="140" y="297" on="0"/>
        <pt x="252" y="297" on="1"/>
        <pt x="409" y="297" on="1"/>
        <pt x="413" y="315" on="1"/>
        <pt x="424" y="363" on="0"/>
        <pt x="373" y="421" on="0"/>
        <pt x="318" y="421" on="1"/>
        <pt x="270" y="421" on="0"/>
        <pt x="191" y="374" on="0"/>
        <pt x="173" y="333" on="1"/>
        <pt x="80" y="358" on="1"/>
        <pt x="109" y="426" on="0"/>
        <pt x="245" y="510" on="0"/>
      </contour>
      <contour>
        <pt x="206" y="70" on="1"/>
        <pt x="267" y="70" on="0"/>
        <pt x="370" y="140" on="0"/>
        <pt x="384" y="190" on="1"/>
        <pt x="391" y="217" on="1"/>
        <pt x="229" y="217" on="1"/>
        <pt x="177" y="217" on="0"/>
        <pt x="114" y="170" on="0"/>
        <pt x="114" y="135" on="1"/>
        <pt x="114" y="105" on="0"/>
        <pt x="164" y="70" on="0"/>
      </contour>
    </TTGlyph>
    <TTGlyph name="abreve" xMin="37" yMin="-14" xMax="625" yMax="693">
      <contour>
        <pt x="386" y="551" on="1"/>
        <pt x="314" y="551" on="0"/>
        <pt x="246" y="628" on="0"/>
        <pt x="261" y="693" on="1"/>
        <pt x="342" y="693" on="1"/>
        <pt x="335" y="662" on="0"/>
        <pt x="367" y="623" on="0"/>
        <pt x="396" y="623" on="1"/>
        <pt x="426" y="623" on="0"/>
        <pt x="473" y="662" on="0"/>
        <pt x="480" y="693" on="1"/>
        <pt x="573" y="693" on="1"/>
        <pt x="558" y="628" on="0"/>
        <pt x="457" y="551" on="0"/>
      </contour>
      <contour>
        <pt x="625" y="496" on="1"/>
        <pt x="510" y="0" on="1"/>
        <pt x="406" y="0" on="1"/>
        <pt x="418" y="51" on="1"/>
        <pt x="347" y="-14" on="0"/>
        <pt x="241" y="-14" on="1"/>
        <pt x="141" y="-14" on="0"/>
        <pt x="19" y="134" on="0"/>
        <pt x="37" y="249" on="1"/>
        <pt x="55" y="365" on="0"/>
        <pt x="217" y="510" on="0"/>
        <pt x="323" y="510" on="1"/>
        <pt x="455" y="510" on="0"/>
        <pt x="502" y="412" on="1"/>
        <pt x="521" y="496" on="1"/>
      </contour>
      <contour>
        <pt x="272" y="78" on="1"/>
        <pt x="337" y="78" on="0"/>
        <pt x="451" y="173" on="0"/>
        <pt x="475" y="325" on="0"/>
        <pt x="392" y="418" on="0"/>
        <pt x="327" y="418" on="1"/>
        <pt x="256" y="418" on="0"/>
        <pt x="151" y="325" on="0"/>
        <pt x="138" y="249" on="1"/>
        <pt x="125" y="172" on="0"/>
        <pt x="202" y="78" on="0"/>
      </contour>
    </TTGlyph>
    <TTGlyph name="abreve.ss01" xMin="11" yMin="-14" xMax="555" yMax="693">
      <contour>
        <pt x="368" y="551" on="1"/>
        <pt x="296" y="551" on="0"/>
        <pt x="228" y="628" on="0"/>
        <pt x="243" y="693" on="1"/>
        <pt x="324" y="693" on="1"/>
        <pt x="317" y="662" on="0"/>
        <pt x="349" y="623" on="0"/>
        <pt x="378" y="623" on="1"/>
        <pt x="408" y="623" on="0"/>
        <pt x="455" y="662" on="0"/>
        <pt x="462" y="693" on="1"/>
        <pt x="555" y="693" on="1"/>
        <pt x="540" y="628" on="0"/>
        <pt x="439" y="551" on="0"/>
      </contour>
      <contour>
        <pt x="327" y="510" on="1"/>
        <pt x="430" y="510" on="0"/>
        <pt x="533" y="400" on="0"/>
        <pt x="510" y="303" on="1"/>
        <pt x="440" y="0" on="1"/>
        <pt x="341" y="0" on="1"/>
        <pt x="353" y="54" on="1"/>
        <pt x="278" y="-14" on="0"/>
        <pt x="173" y="-14" on="1"/>
        <pt x="98" y="-14" on="0"/>
        <pt x="11" y="57" on="0"/>
        <pt x="11" y="119" on="1"/>
        <pt x="11" y="195" on="0"/>
        <pt x="140" y="297" on="0"/>
        <pt x="252" y="297" on="1"/>
        <pt x="409" y="297" on="1"/>
        <pt x="413" y="315" on="1"/>
        <pt x="424" y="363" on="0"/>
        <pt x="373" y="421" on="0"/>
        <pt x="318" y="421" on="1"/>
        <pt x="270" y="421" on="0"/>
        <pt x="191" y="374" on="0"/>
        <pt x="173" y="333" on="1"/>
        <pt x="80" y="358" on="1"/>
        <pt x="109" y="426" on="0"/>
        <pt x="245" y="510" on="0"/>
      </contour>
      <contour>
        <pt x="206" y="70" on="1"/>
        <pt x="267" y="70" on="0"/>
        <pt x="370" y="140" on="0"/>
        <pt x="384" y="190" on="1"/>
        <pt x="391" y="217" on="1"/>
        <pt x="229" y="217" on="1"/>
        <pt x="177" y="217" on="0"/>
        <pt x="114" y="170" on="0"/>
        <pt x="114" y="135" on="1"/>
        <pt x="114" y="105" on="0"/>
        <pt x="164" y="70" on="0"/>
      </contour>
    </TTGlyph>
    <TTGlyph name="acircumflex" xMin="37" yMin="-14" xMax="625" yMax="704">
      <contour>
        <pt x="351" y="559" on="1"/>
        <pt x="241" y="559" on="1"/>
        <pt x="390" y="704" on="1"/>
        <pt x="489" y="704" on="1"/>
        <pt x="571" y="559" on="1"/>
        <pt x="472" y="559" on="1"/>
        <pt x="430" y="636" on="1"/>
      </contour>
      <contour>
        <pt x="625" y="496" on="1"/>
        <pt x="510" y="0" on="1"/>
        <pt x="406" y="0" on="1"/>
        <pt x="418" y="51" on="1"/>
        <pt x="347" y="-14" on="0"/>
        <pt x="241" y="-14" on="1"/>
        <pt x="141" y="-14" on="0"/>
        <pt x="19" y="134" on="0"/>
        <pt x="37" y="249" on="1"/>
        <pt x="55" y="365" on="0"/>
        <pt x="217" y="510" on="0"/>
        <pt x="323" y="510" on="1"/>
        <pt x="455" y="510" on="0"/>
        <pt x="502" y="412" on="1"/>
        <pt x="521" y="496" on="1"/>
      </contour>
      <contour>
        <pt x="272" y="78" on="1"/>
        <pt x="337" y="78" on="0"/>
        <pt x="451" y="173" on="0"/>
        <pt x="475" y="325" on="0"/>
        <pt x="392" y="418" on="0"/>
        <pt x="327" y="418" on="1"/>
        <pt x="256" y="418" on="0"/>
        <pt x="151" y="325" on="0"/>
        <pt x="138" y="249" on="1"/>
        <pt x="125" y="172" on="0"/>
        <pt x="202" y="78" on="0"/>
      </contour>
    </TTGlyph>
    <TTGlyph name="acircumflex.ss01" xMin="11" yMin="-14" xMax="553" yMax="704">
      <contour>
        <pt x="333" y="559" on="1"/>
        <pt x="223" y="559" on="1"/>
        <pt x="372" y="704" on="1"/>
        <pt x="471" y="704" on="1"/>
        <pt x="553" y="559" on="1"/>
        <pt x="454" y="559" on="1"/>
        <pt x="412" y="636" on="1"/>
      </contour>
      <contour>
        <pt x="327" y="510" on="1"/>
        <pt x="430" y="510" on="0"/>
        <pt x="533" y="400" on="0"/>
        <pt x="510" y="303" on="1"/>
        <pt x="440" y="0" on="1"/>
        <pt x="341" y="0" on="1"/>
        <pt x="353" y="54" on="1"/>
        <pt x="278" y="-14" on="0"/>
        <pt x="173" y="-14" on="1"/>
        <pt x="98" y="-14" on="0"/>
        <pt x="11" y="57" on="0"/>
        <pt x="11" y="119" on="1"/>
        <pt x="11" y="195" on="0"/>
        <pt x="140" y="297" on="0"/>
        <pt x="252" y="297" on="1"/>
        <pt x="409" y="297" on="1"/>
        <pt x="413" y="315" on="1"/>
        <pt x="424" y="363" on="0"/>
        <pt x="373" y="421" on="0"/>
        <pt x="318" y="421" on="1"/>
        <pt x="270" y="421" on="0"/>
        <pt x="191" y="374" on="0"/>
        <pt x="173" y="333" on="1"/>
        <pt x="80" y="358" on="1"/>
        <pt x="109" y="426" on="0"/>
        <pt x="245" y="510" on="0"/>
      </contour>
      <contour>
        <pt x="206" y="70" on="1"/>
        <pt x="267" y="70" on="0"/>
        <pt x="370" y="140" on="0"/>
        <pt x="384" y="190" on="1"/>
        <pt x="391" y="217" on="1"/>
        <pt x="229" y="217" on="1"/>
        <pt x="177" y="217" on="0"/>
        <pt x="114" y="170" on="0"/>
        <pt x="114" y="135" on="1"/>
        <pt x="114" y="105" on="0"/>
        <pt x="164" y="70" on="0"/>
      </contour>
    </TTGlyph>
    <TTGlyph name="acute" xMin="298" yMin="567" xMax="534" yMax="709">
      <contour>
        <pt x="394" y="567" on="1"/>
        <pt x="298" y="567" on="1"/>
        <pt x="404" y="709" on="1"/>
        <pt x="534" y="709" on="1"/>
      </contour>
    </TTGlyph>
    <TTGlyph name="adieresis" xMin="37" yMin="-14" xMax="625" yMax="699">
      <contour>
        <pt x="299" y="570" on="1"/>
        <pt x="271" y="570" on="0"/>
        <pt x="234" y="606" on="0"/>
        <pt x="234" y="634" on="1"/>
        <pt x="234" y="660" on="0"/>
        <pt x="271" y="699" on="0"/>
        <pt x="327" y="699" on="0"/>
        <pt x="365" y="660" on="0"/>
        <pt x="365" y="634" on="1"/>
        <pt x="365" y="606" on="0"/>
        <pt x="328" y="570" on="0"/>
      </contour>
      <contour>
        <pt x="506" y="570" on="1"/>
        <pt x="478" y="570" on="0"/>
        <pt x="441" y="606" on="0"/>
        <pt x="441" y="634" on="1"/>
        <pt x="441" y="660" on="0"/>
        <pt x="478" y="699" on="0"/>
        <pt x="534" y="699" on="0"/>
        <pt x="572" y="660" on="0"/>
        <pt x="572" y="634" on="1"/>
        <pt x="572" y="606" on="0"/>
        <pt x="535" y="570" on="0"/>
      </contour>
      <contour>
        <pt x="625" y="496" on="1"/>
        <pt x="510" y="0" on="1"/>
        <pt x="406" y="0" on="1"/>
        <pt x="418" y="51" on="1"/>
        <pt x="347" y="-14" on="0"/>
        <pt x="241" y="-14" on="1"/>
        <pt x="141" y="-14" on="0"/>
        <pt x="19" y="134" on="0"/>
        <pt x="37" y="249" on="1"/>
        <pt x="55" y="365" on="0"/>
        <pt x="217" y="510" on="0"/>
        <pt x="323" y="510" on="1"/>
        <pt x="455" y="510" on="0"/>
        <pt x="502" y="412" on="1"/>
        <pt x="521" y="496" on="1"/>
      </contour>
      <contour>
        <pt x="272" y="78" on="1"/>
        <pt x="337" y="78" on="0"/>
        <pt x="451" y="173" on="0"/>
        <pt x="475" y="325" on="0"/>
        <pt x="392" y="418" on="0"/>
        <pt x="327" y="418" on="1"/>
        <pt x="256" y="418" on="0"/>
        <pt x="151" y="325" on="0"/>
        <pt x="138" y="249" on="1"/>
        <pt x="125" y="172" on="0"/>
        <pt x="202" y="78" on="0"/>
      </contour>
    </TTGlyph>
    <TTGlyph name="adieresis.ss01" xMin="11" yMin="-14" xMax="554" yMax="699">
      <contour>
        <pt x="281" y="570" on="1"/>
        <pt x="253" y="570" on="0"/>
        <pt x="216" y="606" on="0"/>
        <pt x="216" y="634" on="1"/>
        <pt x="216" y="660" on="0"/>
        <pt x="253" y="699" on="0"/>
        <pt x="309" y="699" on="0"/>
        <pt x="347" y="660" on="0"/>
        <pt x="347" y="634" on="1"/>
        <pt x="347" y="606" on="0"/>
        <pt x="310" y="570" on="0"/>
      </contour>
      <contour>
        <pt x="460" y="699" on="0"/>
        <pt x="516" y="699" on="0"/>
        <pt x="554" y="660" on="0"/>
        <pt x="554" y="634" on="1"/>
        <pt x="554" y="606" on="0"/>
        <pt x="517" y="570" on="0"/>
        <pt x="488" y="570" on="1"/>
        <pt x="460" y="570" on="0"/>
        <pt x="423" y="606" on="0"/>
        <pt x="423" y="634" on="1"/>
        <pt x="423" y="660" on="0"/>
      </contour>
      <contour>
        <pt x="327" y="510" on="1"/>
        <pt x="430" y="510" on="0"/>
        <pt x="533" y="400" on="0"/>
        <pt x="510" y="303" on="1"/>
        <pt x="440" y="0" on="1"/>
        <pt x="341" y="0" on="1"/>
        <pt x="353" y="54" on="1"/>
        <pt x="278" y="-14" on="0"/>
        <pt x="173" y="-14" on="1"/>
        <pt x="98" y="-14" on="0"/>
        <pt x="11" y="57" on="0"/>
        <pt x="11" y="119" on="1"/>
        <pt x="11" y="195" on="0"/>
        <pt x="140" y="297" on="0"/>
        <pt x="252" y="297" on="1"/>
        <pt x="409" y="297" on="1"/>
        <pt x="413" y="315" on="1"/>
        <pt x="424" y="363" on="0"/>
        <pt x="373" y="421" on="0"/>
        <pt x="318" y="421" on="1"/>
        <pt x="270" y="421" on="0"/>
        <pt x="191" y="374" on="0"/>
        <pt x="173" y="333" on="1"/>
        <pt x="80" y="358" on="1"/>
        <pt x="109" y="426" on="0"/>
        <pt x="245" y="510" on="0"/>
      </contour>
      <contour>
        <pt x="206" y="70" on="1"/>
        <pt x="267" y="70" on="0"/>
        <pt x="370" y="140" on="0"/>
        <pt x="384" y="190" on="1"/>
        <pt x="391" y="217" on="1"/>
        <pt x="229" y="217" on="1"/>
        <pt x="177" y="217" on="0"/>
        <pt x="114" y="170" on="0"/>
        <pt x="114" y="135" on="1"/>
        <pt x="114" y="105" on="0"/>
        <pt x="164" y="70" on="0"/>
      </contour>
    </TTGlyph>
    <TTGlyph name="ae" xMin="13" yMin="-14" xMax="874" yMax="510">
      <contour>
        <pt x="670" y="510" on="1"/>
        <pt x="773" y="510" on="0"/>
        <pt x="891" y="364" on="0"/>
        <pt x="874" y="249" on="1"/>
        <pt x="868" y="213" on="1"/>
        <pt x="477" y="213" on="1"/>
        <pt x="476" y="148" on="0"/>
        <pt x="545" y="76" on="0"/>
        <pt x="606" y="76" on="1"/>
        <pt x="644" y="76" on="0"/>
        <pt x="727" y="117" on="0"/>
        <pt x="754" y="161" on="1"/>
        <pt x="844" y="141" on="1"/>
        <pt x="813" y="72" on="0"/>
        <pt x="673" y="-14" on="0"/>
        <pt x="592" y="-14" on="1"/>
        <pt x="467" y="-14" on="0"/>
        <pt x="416" y="86" on="1"/>
        <pt x="377" y="42" on="0"/>
        <pt x="255" y="-14" on="0"/>
        <pt x="187" y="-14" on="1"/>
        <pt x="104" y="-14" on="0"/>
        <pt x="13" y="61" on="0"/>
        <pt x="13" y="124" on="1"/>
        <pt x="13" y="197" on="0"/>
        <pt x="126" y="288" on="0"/>
        <pt x="222" y="288" on="1"/>
        <pt x="392" y="288" on="1"/>
        <pt x="397" y="318" on="1"/>
        <pt x="404" y="365" on="0"/>
        <pt x="351" y="422" on="0"/>
        <pt x="301" y="422" on="1"/>
        <pt x="253" y="422" on="0"/>
        <pt x="182" y="374" on="0"/>
        <pt x="169" y="333" on="1"/>
        <pt x="77" y="354" on="1"/>
        <pt x="97" y="423" on="0"/>
        <pt x="227" y="510" on="0"/>
        <pt x="316" y="510" on="1"/>
        <pt x="434" y="510" on="0"/>
        <pt x="477" y="431" on="1"/>
        <pt x="561" y="510" on="0"/>
      </contour>
      <contour>
        <pt x="487" y="288" on="1"/>
        <pt x="774" y="288" on="1"/>
        <pt x="775" y="352" on="0"/>
        <pt x="712" y="421" on="0"/>
        <pt x="659" y="421" on="1"/>
        <pt x="602" y="421" on="0"/>
        <pt x="506" y="351" on="0"/>
      </contour>
      <contour>
        <pt x="381" y="213" on="1"/>
        <pt x="218" y="213" on="1"/>
        <pt x="168" y="213" on="0"/>
        <pt x="109" y="171" on="0"/>
        <pt x="109" y="136" on="1"/>
        <pt x="109" y="106" on="0"/>
        <pt x="158" y="70" on="0"/>
        <pt x="200" y="70" on="1"/>
        <pt x="261" y="70" on="0"/>
        <pt x="370" y="148" on="0"/>
        <pt x="379" y="202" on="1"/>
      </contour>
    </TTGlyph>
    <TTGlyph name="aeacute" xMin="13" yMin="-14" xMax="874" yMax="709">
      <contour>
        <pt x="595" y="567" on="1"/>
        <pt x="499" y="567" on="1"/>
        <pt x="605" y="709" on="1"/>
        <pt x="735" y="709" on="1"/>
      </contour>
      <contour>
        <pt x="670" y="510" on="1"/>
        <pt x="773" y="510" on="0"/>
        <pt x="891" y="364" on="0"/>
        <pt x="874" y="249" on="1"/>
        <pt x="868" y="213" on="1"/>
        <pt x="477" y="213" on="1"/>
        <pt x="476" y="148" on="0"/>
        <pt x="545" y="76" on="0"/>
        <pt x="606" y="76" on="1"/>
        <pt x="644" y="76" on="0"/>
        <pt x="727" y="117" on="0"/>
        <pt x="754" y="161" on="1"/>
        <pt x="844" y="141" on="1"/>
        <pt x="813" y="72" on="0"/>
        <pt x="673" y="-14" on="0"/>
        <pt x="592" y="-14" on="1"/>
        <pt x="467" y="-14" on="0"/>
        <pt x="416" y="86" on="1"/>
        <pt x="377" y="42" on="0"/>
        <pt x="255" y="-14" on="0"/>
        <pt x="187" y="-14" on="1"/>
        <pt x="104" y="-14" on="0"/>
        <pt x="13" y="61" on="0"/>
        <pt x="13" y="124" on="1"/>
        <pt x="13" y="197" on="0"/>
        <pt x="126" y="288" on="0"/>
        <pt x="222" y="288" on="1"/>
        <pt x="392" y="288" on="1"/>
        <pt x="397" y="318" on="1"/>
        <pt x="404" y="365" on="0"/>
        <pt x="351" y="422" on="0"/>
        <pt x="301" y="422" on="1"/>
        <pt x="253" y="422" on="0"/>
        <pt x="182" y="374" on="0"/>
        <pt x="169" y="333" on="1"/>
        <pt x="77" y="354" on="1"/>
        <pt x="97" y="423" on="0"/>
        <pt x="227" y="510" on="0"/>
        <pt x="316" y="510" on="1"/>
        <pt x="434" y="510" on="0"/>
        <pt x="477" y="431" on="1"/>
        <pt x="561" y="510" on="0"/>
      </contour>
      <contour>
        <pt x="487" y="288" on="1"/>
        <pt x="774" y="288" on="1"/>
        <pt x="775" y="352" on="0"/>
        <pt x="712" y="421" on="0"/>
        <pt x="659" y="421" on="1"/>
        <pt x="602" y="421" on="0"/>
        <pt x="506" y="351" on="0"/>
      </contour>
      <contour>
        <pt x="381" y="213" on="1"/>
        <pt x="218" y="213" on="1"/>
        <pt x="168" y="213" on="0"/>
        <pt x="109" y="171" on="0"/>
        <pt x="109" y="136" on="1"/>
        <pt x="109" y="106" on="0"/>
        <pt x="158" y="70" on="0"/>
        <pt x="200" y="70" on="1"/>
        <pt x="261" y="70" on="0"/>
        <pt x="370" y="148" on="0"/>
        <pt x="379" y="202" on="1"/>
      </contour>
    </TTGlyph>
    <TTGlyph name="agrave" xMin="37" yMin="-14" xMax="625" yMax="709">
      <contour>
        <pt x="342" y="567" on="1"/>
        <pt x="202" y="709" on="1"/>
        <pt x="332" y="709" on="1"/>
        <pt x="438" y="567" on="1"/>
      </contour>
      <contour>
        <pt x="625" y="496" on="1"/>
        <pt x="510" y="0" on="1"/>
        <pt x="406" y="0" on="1"/>
        <pt x="418" y="51" on="1"/>
        <pt x="347" y="-14" on="0"/>
        <pt x="241" y="-14" on="1"/>
        <pt x="141" y="-14" on="0"/>
        <pt x="19" y="134" on="0"/>
        <pt x="37" y="249" on="1"/>
        <pt x="55" y="365" on="0"/>
        <pt x="217" y="510" on="0"/>
        <pt x="323" y="510" on="1"/>
        <pt x="455" y="510" on="0"/>
        <pt x="502" y="412" on="1"/>
        <pt x="521" y="496" on="1"/>
      </contour>
      <contour>
        <pt x="272" y="78" on="1"/>
        <pt x="337" y="78" on="0"/>
        <pt x="451" y="173" on="0"/>
        <pt x="475" y="325" on="0"/>
        <pt x="392" y="418" on="0"/>
        <pt x="327" y="418" on="1"/>
        <pt x="256" y="418" on="0"/>
        <pt x="151" y="325" on="0"/>
        <pt x="138" y="249" on="1"/>
        <pt x="125" y="172" on="0"/>
        <pt x="202" y="78" on="0"/>
      </contour>
    </TTGlyph>
    <TTGlyph name="agrave.ss01" xMin="11" yMin="-14" xMax="510" yMax="709">
      <contour>
        <pt x="324" y="567" on="1"/>
        <pt x="184" y="709" on="1"/>
        <pt x="314" y="709" on="1"/>
        <pt x="420" y="567" on="1"/>
      </contour>
      <contour>
        <pt x="327" y="510" on="1"/>
        <pt x="430" y="510" on="0"/>
        <pt x="533" y="400" on="0"/>
        <pt x="510" y="303" on="1"/>
        <pt x="440" y="0" on="1"/>
        <pt x="341" y="0" on="1"/>
        <pt x="353" y="54" on="1"/>
        <pt x="278" y="-14" on="0"/>
        <pt x="173" y="-14" on="1"/>
        <pt x="98" y="-14" on="0"/>
        <pt x="11" y="57" on="0"/>
        <pt x="11" y="119" on="1"/>
        <pt x="11" y="195" on="0"/>
        <pt x="140" y="297" on="0"/>
        <pt x="252" y="297" on="1"/>
        <pt x="409" y="297" on="1"/>
        <pt x="413" y="315" on="1"/>
        <pt x="424" y="363" on="0"/>
        <pt x="373" y="421" on="0"/>
        <pt x="318" y="421" on="1"/>
        <pt x="270" y="421" on="0"/>
        <pt x="191" y="374" on="0"/>
        <pt x="173" y="333" on="1"/>
        <pt x="80" y="358" on="1"/>
        <pt x="109" y="426" on="0"/>
        <pt x="245" y="510" on="0"/>
      </contour>
      <contour>
        <pt x="206" y="70" on="1"/>
        <pt x="267" y="70" on="0"/>
        <pt x="370" y="140" on="0"/>
        <pt x="384" y="190" on="1"/>
        <pt x="391" y="217" on="1"/>
        <pt x="229" y="217" on="1"/>
        <pt x="177" y="217" on="0"/>
        <pt x="114" y="170" on="0"/>
        <pt x="114" y="135" on="1"/>
        <pt x="114" y="105" on="0"/>
        <pt x="164" y="70" on="0"/>
      </contour>
    </TTGlyph>
    <TTGlyph name="amacron" xMin="37" yMin="-14" xMax="625" yMax="663">
      <contour>
        <pt x="541" y="578" on="1"/>
        <pt x="240" y="578" on="1"/>
        <pt x="259" y="663" on="1"/>
        <pt x="560" y="663" on="1"/>
      </contour>
      <contour>
        <pt x="625" y="496" on="1"/>
        <pt x="510" y="0" on="1"/>
        <pt x="406" y="0" on="1"/>
        <pt x="418" y="51" on="1"/>
        <pt x="347" y="-14" on="0"/>
        <pt x="241" y="-14" on="1"/>
        <pt x="141" y="-14" on="0"/>
        <pt x="19" y="134" on="0"/>
        <pt x="37" y="249" on="1"/>
        <pt x="55" y="365" on="0"/>
        <pt x="217" y="510" on="0"/>
        <pt x="323" y="510" on="1"/>
        <pt x="455" y="510" on="0"/>
        <pt x="502" y="412" on="1"/>
        <pt x="521" y="496" on="1"/>
      </contour>
      <contour>
        <pt x="272" y="78" on="1"/>
        <pt x="337" y="78" on="0"/>
        <pt x="451" y="173" on="0"/>
        <pt x="475" y="325" on="0"/>
        <pt x="392" y="418" on="0"/>
        <pt x="327" y="418" on="1"/>
        <pt x="256" y="418" on="0"/>
        <pt x="151" y="325" on="0"/>
        <pt x="138" y="249" on="1"/>
        <pt x="125" y="172" on="0"/>
        <pt x="202" y="78" on="0"/>
      </contour>
    </TTGlyph>
    <TTGlyph name="amacron.ss01" xMin="11" yMin="-14" xMax="542" yMax="663">
      <contour>
        <pt x="542" y="663" on="1"/>
        <pt x="523" y="578" on="1"/>
        <pt x="222" y="578" on="1"/>
        <pt x="241" y="663" on="1"/>
      </contour>
      <contour>
        <pt x="327" y="510" on="1"/>
        <pt x="430" y="510" on="0"/>
        <pt x="533" y="400" on="0"/>
        <pt x="510" y="303" on="1"/>
        <pt x="440" y="0" on="1"/>
        <pt x="341" y="0" on="1"/>
        <pt x="353" y="54" on="1"/>
        <pt x="278" y="-14" on="0"/>
        <pt x="173" y="-14" on="1"/>
        <pt x="98" y="-14" on="0"/>
        <pt x="11" y="57" on="0"/>
        <pt x="11" y="119" on="1"/>
        <pt x="11" y="195" on="0"/>
        <pt x="140" y="297" on="0"/>
        <pt x="252" y="297" on="1"/>
        <pt x="409" y="297" on="1"/>
        <pt x="413" y="315" on="1"/>
        <pt x="424" y="363" on="0"/>
        <pt x="373" y="421" on="0"/>
        <pt x="318" y="421" on="1"/>
        <pt x="270" y="421" on="0"/>
        <pt x="191" y="374" on="0"/>
        <pt x="173" y="333" on="1"/>
        <pt x="80" y="358" on="1"/>
        <pt x="109" y="426" on="0"/>
        <pt x="245" y="510" on="0"/>
      </contour>
      <contour>
        <pt x="206" y="70" on="1"/>
        <pt x="267" y="70" on="0"/>
        <pt x="370" y="140" on="0"/>
        <pt x="384" y="190" on="1"/>
        <pt x="391" y="217" on="1"/>
        <pt x="229" y="217" on="1"/>
        <pt x="177" y="217" on="0"/>
        <pt x="114" y="170" on="0"/>
        <pt x="114" y="135" on="1"/>
        <pt x="114" y="105" on="0"/>
        <pt x="164" y="70" on="0"/>
      </contour>
    </TTGlyph>
    <TTGlyph name="ampersand" xMin="40" yMin="-24" xMax="638" yMax="684">
      <contour>
        <pt x="560" y="-24" on="1"/>
        <pt x="482" y="60" on="1"/>
        <pt x="388" y="-15" on="0"/>
        <pt x="261" y="-15" on="1"/>
        <pt x="163" y="-15" on="0"/>
        <pt x="40" y="78" on="0"/>
        <pt x="40" y="157" on="1"/>
        <pt x="40" y="225" on="0"/>
        <pt x="132" y="335" on="0"/>
        <pt x="208" y="368" on="1"/>
        <pt x="181" y="416" on="0"/>
        <pt x="181" y="470" on="1"/>
        <pt x="181" y="562" on="0"/>
        <pt x="310" y="684" on="0"/>
        <pt x="418" y="684" on="1"/>
        <pt x="499" y="684" on="0"/>
        <pt x="590" y="612" on="0"/>
        <pt x="595" y="545" on="1"/>
        <pt x="493" y="528" on="1"/>
        <pt x="485" y="597" on="0"/>
        <pt x="405" y="597" on="1"/>
        <pt x="351" y="597" on="0"/>
        <pt x="284" y="532" on="0"/>
        <pt x="284" y="481" on="1"/>
        <pt x="284" y="448" on="0"/>
        <pt x="322" y="383" on="0"/>
        <pt x="366" y="338" on="1"/>
        <pt x="492" y="202" on="1"/>
        <pt x="519" y="246" on="0"/>
        <pt x="530" y="297" on="1"/>
        <pt x="542" y="345" on="1"/>
        <pt x="635" y="345" on="1"/>
        <pt x="623" y="297" on="1"/>
        <pt x="601" y="207" on="0"/>
        <pt x="554" y="137" on="1"/>
        <pt x="638" y="46" on="1"/>
      </contour>
      <contour>
        <pt x="272" y="74" on="1"/>
        <pt x="354" y="74" on="0"/>
        <pt x="422" y="125" on="1"/>
        <pt x="272" y="287" on="1"/>
        <pt x="255" y="305" on="1"/>
        <pt x="204" y="283" on="0"/>
        <pt x="145" y="212" on="0"/>
        <pt x="145" y="171" on="1"/>
        <pt x="145" y="127" on="0"/>
        <pt x="214" y="74" on="0"/>
      </contour>
    </TTGlyph>
    <TTGlyph name="aogonek" xMin="37" yMin="-205" xMax="625" yMax="510">
      <contour>
        <pt x="625" y="496" on="1"/>
        <pt x="510" y="0" on="1"/>
        <pt x="502" y="-7" on="0"/>
        <pt x="478" y="-28" on="0"/>
        <pt x="467" y="-38" on="0"/>
        <pt x="449" y="-53" on="0"/>
        <pt x="442" y="-61" on="0"/>
        <pt x="431" y="-73" on="0"/>
        <pt x="426" y="-81" on="0"/>
        <pt x="421" y="-91" on="0"/>
        <pt x="419" y="-100" on="0"/>
        <pt x="419" y="-105" on="1"/>
        <pt x="419" y="-133" on="0"/>
        <pt x="451" y="-133" on="1"/>
        <pt x="464" y="-133" on="0"/>
        <pt x="499" y="-122" on="1"/>
        <pt x="485" y="-188" on="1"/>
        <pt x="452" y="-205" on="0"/>
        <pt x="417" y="-205" on="1"/>
        <pt x="380" y="-205" on="0"/>
        <pt x="335" y="-165" on="0"/>
        <pt x="335" y="-131" on="1"/>
        <pt x="335" y="-69" on="0"/>
        <pt x="436" y="0" on="1"/>
        <pt x="406" y="0" on="1"/>
        <pt x="418" y="51" on="1"/>
        <pt x="347" y="-14" on="0"/>
        <pt x="241" y="-14" on="1"/>
        <pt x="141" y="-14" on="0"/>
        <pt x="19" y="134" on="0"/>
        <pt x="37" y="249" on="1"/>
        <pt x="55" y="365" on="0"/>
        <pt x="217" y="510" on="0"/>
        <pt x="323" y="510" on="1"/>
        <pt x="455" y="510" on="0"/>
        <pt x="502" y="412" on="1"/>
        <pt x="521" y="496" on="1"/>
      </contour>
      <contour>
        <pt x="272" y="78" on="1"/>
        <pt x="337" y="78" on="0"/>
        <pt x="451" y="173" on="0"/>
        <pt x="475" y="325" on="0"/>
        <pt x="392" y="418" on="0"/>
        <pt x="327" y="418" on="1"/>
        <pt x="256" y="418" on="0"/>
        <pt x="151" y="325" on="0"/>
        <pt x="138" y="249" on="1"/>
        <pt x="125" y="172" on="0"/>
        <pt x="202" y="78" on="0"/>
      </contour>
    </TTGlyph>
    <TTGlyph name="aogonek.ss01" xMin="11" yMin="-205" xMax="510" yMax="510">
      <contour>
        <pt x="327" y="510" on="1"/>
        <pt x="430" y="510" on="0"/>
        <pt x="533" y="400" on="0"/>
        <pt x="510" y="303" on="1"/>
        <pt x="440" y="0" on="1"/>
        <pt x="432" y="-7" on="0"/>
        <pt x="408" y="-28" on="0"/>
        <pt x="397" y="-38" on="0"/>
        <pt x="379" y="-53" on="0"/>
        <pt x="372" y="-61" on="0"/>
        <pt x="361" y="-73" on="0"/>
        <pt x="356" y="-81" on="0"/>
        <pt x="351" y="-91" on="0"/>
        <pt x="349" y="-100" on="0"/>
        <pt x="349" y="-105" on="1"/>
        <pt x="349" y="-133" on="0"/>
        <pt x="381" y="-133" on="1"/>
        <pt x="394" y="-133" on="0"/>
        <pt x="429" y="-122" on="1"/>
        <pt x="415" y="-188" on="1"/>
        <pt x="382" y="-205" on="0"/>
        <pt x="347" y="-205" on="1"/>
        <pt x="310" y="-205" on="0"/>
        <pt x="265" y="-165" on="0"/>
        <pt x="265" y="-131" on="1"/>
        <pt x="265" y="-69" on="0"/>
        <pt x="366" y="0" on="1"/>
        <pt x="341" y="0" on="1"/>
        <pt x="353" y="54" on="1"/>
        <pt x="278" y="-14" on="0"/>
        <pt x="173" y="-14" on="1"/>
        <pt x="98" y="-14" on="0"/>
        <pt x="11" y="57" on="0"/>
        <pt x="11" y="119" on="1"/>
        <pt x="11" y="195" on="0"/>
        <pt x="140" y="297" on="0"/>
        <pt x="252" y="297" on="1"/>
        <pt x="409" y="297" on="1"/>
        <pt x="413" y="315" on="1"/>
        <pt x="424" y="363" on="0"/>
        <pt x="373" y="421" on="0"/>
        <pt x="318" y="421" on="1"/>
        <pt x="270" y="421" on="0"/>
        <pt x="191" y="374" on="0"/>
        <pt x="173" y="333" on="1"/>
        <pt x="80" y="358" on="1"/>
        <pt x="109" y="426" on="0"/>
        <pt x="245" y="510" on="0"/>
      </contour>
      <contour>
        <pt x="206" y="70" on="1"/>
        <pt x="267" y="70" on="0"/>
        <pt x="370" y="140" on="0"/>
        <pt x="384" y="190" on="1"/>
        <pt x="391" y="217" on="1"/>
        <pt x="229" y="217" on="1"/>
        <pt x="177" y="217" on="0"/>
        <pt x="114" y="170" on="0"/>
        <pt x="114" y="135" on="1"/>
        <pt x="114" y="105" on="0"/>
        <pt x="164" y="70" on="0"/>
      </contour>
    </TTGlyph>
    <TTGlyph name="approxequal" xMin="55" yMin="183" xMax="561" yMax="472">
      <contour>
        <pt x="561" y="444" on="1"/>
        <pt x="541" y="356" on="1"/>
        <pt x="496" y="336" on="0"/>
        <pt x="435" y="336" on="1"/>
        <pt x="384" y="336" on="0"/>
        <pt x="262" y="385" on="0"/>
        <pt x="213" y="385" on="1"/>
        <pt x="134" y="385" on="0"/>
        <pt x="90" y="354" on="1"/>
        <pt x="110" y="441" on="1"/>
        <pt x="156" y="472" on="0"/>
        <pt x="233" y="472" on="1"/>
        <pt x="283" y="472" on="0"/>
        <pt x="409" y="423" on="0"/>
        <pt x="457" y="423" on="1"/>
        <pt x="522" y="423" on="0"/>
      </contour>
      <contour>
        <pt x="526" y="292" on="1"/>
        <pt x="505" y="204" on="1"/>
        <pt x="460" y="183" on="0"/>
        <pt x="400" y="183" on="1"/>
        <pt x="348" y="183" on="0"/>
        <pt x="226" y="233" on="0"/>
        <pt x="177" y="233" on="1"/>
        <pt x="98" y="233" on="0"/>
        <pt x="55" y="202" on="1"/>
        <pt x="75" y="289" on="1"/>
        <pt x="121" y="320" on="0"/>
        <pt x="197" y="320" on="1"/>
        <pt x="247" y="320" on="0"/>
        <pt x="374" y="271" on="0"/>
        <pt x="422" y="271" on="1"/>
        <pt x="487" y="271" on="0"/>
      </contour>
    </TTGlyph>
    <TTGlyph name="approxequal.tf" xMin="69" yMin="183" xMax="575" yMax="472">
      <contour>
        <pt x="575" y="444" on="1"/>
        <pt x="554" y="356" on="1"/>
        <pt x="511" y="336" on="0"/>
        <pt x="449" y="336" on="1"/>
        <pt x="397" y="336" on="0"/>
        <pt x="275" y="385" on="0"/>
        <pt x="227" y="385" on="1"/>
        <pt x="147" y="385" on="0"/>
        <pt x="104" y="354" on="1"/>
        <pt x="124" y="441" on="1"/>
        <pt x="170" y="472" on="0"/>
        <pt x="246" y="472" on="1"/>
        <pt x="296" y="472" on="0"/>
        <pt x="424" y="423" on="0"/>
        <pt x="471" y="423" on="1"/>
        <pt x="534" y="423" on="0"/>
      </contour>
      <contour>
        <pt x="539" y="292" on="1"/>
        <pt x="519" y="204" on="1"/>
        <pt x="474" y="183" on="0"/>
        <pt x="414" y="183" on="1"/>
        <pt x="362" y="183" on="0"/>
        <pt x="240" y="233" on="0"/>
        <pt x="191" y="233" on="1"/>
        <pt x="112" y="233" on="0"/>
        <pt x="69" y="202" on="1"/>
        <pt x="89" y="289" on="1"/>
        <pt x="135" y="320" on="0"/>
        <pt x="211" y="320" on="1"/>
        <pt x="261" y="320" on="0"/>
        <pt x="388" y="271" on="0"/>
        <pt x="436" y="271" on="1"/>
        <pt x="501" y="271" on="0"/>
      </contour>
    </TTGlyph>
    <TTGlyph name="aring" xMin="37" yMin="-14" xMax="625" yMax="762">
      <contour>
        <pt x="397" y="547" on="1"/>
        <pt x="352" y="547" on="0"/>
        <pt x="294" y="605" on="0"/>
        <pt x="294" y="647" on="1"/>
        <pt x="294" y="694" on="0"/>
        <pt x="365" y="762" on="0"/>
        <pt x="414" y="762" on="1"/>
        <pt x="459" y="762" on="0"/>
        <pt x="517" y="704" on="0"/>
        <pt x="517" y="662" on="1"/>
        <pt x="517" y="614" on="0"/>
        <pt x="446" y="547" on="0"/>
      </contour>
      <contour>
        <pt x="409" y="701" on="1"/>
        <pt x="388" y="701" on="0"/>
        <pt x="359" y="672" on="0"/>
        <pt x="359" y="651" on="1"/>
        <pt x="359" y="632" on="0"/>
        <pt x="382" y="607" on="0"/>
        <pt x="402" y="607" on="1"/>
        <pt x="423" y="607" on="0"/>
        <pt x="454" y="638" on="0"/>
        <pt x="454" y="659" on="1"/>
        <pt x="454" y="677" on="0"/>
        <pt x="429" y="701" on="0"/>
      </contour>
      <contour>
        <pt x="625" y="496" on="1"/>
        <pt x="510" y="0" on="1"/>
        <pt x="406" y="0" on="1"/>
        <pt x="418" y="51" on="1"/>
        <pt x="347" y="-14" on="0"/>
        <pt x="241" y="-14" on="1"/>
        <pt x="141" y="-14" on="0"/>
        <pt x="19" y="134" on="0"/>
        <pt x="37" y="249" on="1"/>
        <pt x="55" y="365" on="0"/>
        <pt x="217" y="510" on="0"/>
        <pt x="323" y="510" on="1"/>
        <pt x="455" y="510" on="0"/>
        <pt x="502" y="412" on="1"/>
        <pt x="521" y="496" on="1"/>
      </contour>
      <contour>
        <pt x="272" y="78" on="1"/>
        <pt x="337" y="78" on="0"/>
        <pt x="451" y="173" on="0"/>
        <pt x="475" y="325" on="0"/>
        <pt x="392" y="418" on="0"/>
        <pt x="327" y="418" on="1"/>
        <pt x="256" y="418" on="0"/>
        <pt x="151" y="325" on="0"/>
        <pt x="138" y="249" on="1"/>
        <pt x="125" y="172" on="0"/>
        <pt x="202" y="78" on="0"/>
      </contour>
    </TTGlyph>
    <TTGlyph name="aring.ss01" xMin="11" yMin="-14" xMax="510" yMax="762">
      <contour>
        <pt x="379" y="547" on="1"/>
        <pt x="334" y="547" on="0"/>
        <pt x="276" y="605" on="0"/>
        <pt x="276" y="647" on="1"/>
        <pt x="276" y="694" on="0"/>
        <pt x="347" y="762" on="0"/>
        <pt x="396" y="762" on="1"/>
        <pt x="441" y="762" on="0"/>
        <pt x="499" y="704" on="0"/>
        <pt x="499" y="662" on="1"/>
        <pt x="499" y="614" on="0"/>
        <pt x="428" y="547" on="0"/>
      </contour>
      <contour>
        <pt x="391" y="701" on="1"/>
        <pt x="370" y="701" on="0"/>
        <pt x="341" y="672" on="0"/>
        <pt x="341" y="651" on="1"/>
        <pt x="341" y="632" on="0"/>
        <pt x="364" y="607" on="0"/>
        <pt x="384" y="607" on="1"/>
        <pt x="405" y="607" on="0"/>
        <pt x="436" y="638" on="0"/>
        <pt x="436" y="659" on="1"/>
        <pt x="436" y="677" on="0"/>
        <pt x="411" y="701" on="0"/>
      </contour>
      <contour>
        <pt x="327" y="510" on="1"/>
        <pt x="430" y="510" on="0"/>
        <pt x="533" y="400" on="0"/>
        <pt x="510" y="303" on="1"/>
        <pt x="440" y="0" on="1"/>
        <pt x="341" y="0" on="1"/>
        <pt x="353" y="54" on="1"/>
        <pt x="278" y="-14" on="0"/>
        <pt x="173" y="-14" on="1"/>
        <pt x="98" y="-14" on="0"/>
        <pt x="11" y="57" on="0"/>
        <pt x="11" y="119" on="1"/>
        <pt x="11" y="195" on="0"/>
        <pt x="140" y="297" on="0"/>
        <pt x="252" y="297" on="1"/>
        <pt x="409" y="297" on="1"/>
        <pt x="413" y="315" on="1"/>
        <pt x="424" y="363" on="0"/>
        <pt x="373" y="421" on="0"/>
        <pt x="318" y="421" on="1"/>
        <pt x="270" y="421" on="0"/>
        <pt x="191" y="374" on="0"/>
        <pt x="173" y="333" on="1"/>
        <pt x="80" y="358" on="1"/>
        <pt x="109" y="426" on="0"/>
        <pt x="245" y="510" on="0"/>
      </contour>
      <contour>
        <pt x="206" y="70" on="1"/>
        <pt x="267" y="70" on="0"/>
        <pt x="370" y="140" on="0"/>
        <pt x="384" y="190" on="1"/>
        <pt x="391" y="217" on="1"/>
        <pt x="229" y="217" on="1"/>
        <pt x="177" y="217" on="0"/>
        <pt x="114" y="170" on="0"/>
        <pt x="114" y="135" on="1"/>
        <pt x="114" y="105" on="0"/>
        <pt x="164" y="70" on="0"/>
      </contour>
    </TTGlyph>
    <TTGlyph name="arrowdown" xMin="40" yMin="-7" xMax="707" yMax="670">
      <contour>
        <pt x="707" y="326" on="1"/>
        <pt x="374" y="-7" on="1"/>
        <pt x="40" y="327" on="1"/>
        <pt x="117" y="403" on="1"/>
        <pt x="320" y="200" on="1"/>
        <pt x="320" y="670" on="1"/>
        <pt x="428" y="670" on="1"/>
        <pt x="428" y="200" on="1"/>
        <pt x="631" y="402" on="1"/>
      </contour>
    </TTGlyph>
    <TTGlyph name="arrowleft" xMin="10" yMin="-9" xMax="687" yMax="658">
      <contour>
        <pt x="687" y="270" on="1"/>
        <pt x="217" y="270" on="1"/>
        <pt x="419" y="68" on="1"/>
        <pt x="343" y="-9" on="1"/>
        <pt x="10" y="324" on="1"/>
        <pt x="344" y="658" on="1"/>
        <pt x="420" y="581" on="1"/>
        <pt x="217" y="378" on="1"/>
        <pt x="687" y="378" on="1"/>
      </contour>
    </TTGlyph>
    <TTGlyph name="arrowright" xMin="40" yMin="-9" xMax="717" yMax="658">
      <contour>
        <pt x="717" y="324" on="1"/>
        <pt x="384" y="-9" on="1"/>
        <pt x="308" y="68" on="1"/>
        <pt x="511" y="270" on="1"/>
        <pt x="40" y="270" on="1"/>
        <pt x="40" y="378" on="1"/>
        <pt x="511" y="378" on="1"/>
        <pt x="307" y="581" on="1"/>
        <pt x="383" y="658" on="1"/>
      </contour>
    </TTGlyph>
    <TTGlyph name="arrowup" xMin="40" yMin="0" xMax="707" yMax="677">
      <contour>
        <pt x="631" y="268" on="1"/>
        <pt x="428" y="471" on="1"/>
        <pt x="428" y="0" on="1"/>
        <pt x="320" y="0" on="1"/>
        <pt x="320" y="471" on="1"/>
        <pt x="117" y="267" on="1"/>
        <pt x="40" y="343" on="1"/>
        <pt x="374" y="677" on="1"/>
        <pt x="707" y="344" on="1"/>
      </contour>
    </TTGlyph>
    <TTGlyph name="asciicircum" xMin="68" yMin="444" xMax="442" yMax="670">
      <contour>
        <pt x="165" y="444" on="1"/>
        <pt x="68" y="444" on="1"/>
        <pt x="270" y="670" on="1"/>
        <pt x="344" y="670" on="1"/>
        <pt x="442" y="444" on="1"/>
        <pt x="354" y="444" on="1"/>
        <pt x="293" y="584" on="1"/>
      </contour>
    </TTGlyph>
    <TTGlyph name="asciitilde" xMin="44" yMin="231" xMax="472" yMax="374">
      <contour>
        <pt x="126" y="234" on="1"/>
        <pt x="44" y="234" on="1"/>
        <pt x="62" y="307" on="0"/>
        <pt x="149" y="373" on="0"/>
        <pt x="195" y="373" on="1"/>
        <pt x="227" y="373" on="0"/>
        <pt x="274" y="347" on="0"/>
        <pt x="309" y="321" on="0"/>
        <pt x="328" y="321" on="1"/>
        <pt x="349" y="321" on="0"/>
        <pt x="379" y="350" on="0"/>
        <pt x="384" y="374" on="1"/>
        <pt x="472" y="374" on="1"/>
        <pt x="455" y="299" on="0"/>
        <pt x="363" y="231" on="0"/>
        <pt x="316" y="231" on="1"/>
        <pt x="274" y="231" on="0"/>
        <pt x="204" y="283" on="0"/>
        <pt x="185" y="283" on="1"/>
        <pt x="162" y="283" on="0"/>
        <pt x="130" y="256" on="0"/>
      </contour>
    </TTGlyph>
    <TTGlyph name="asterisk" xMin="106" yMin="357" xMax="489" yMax="721">
      <contour>
        <pt x="359" y="517" on="1"/>
        <pt x="444" y="416" on="1"/>
        <pt x="394" y="374" on="1"/>
        <pt x="312" y="472" on="1"/>
        <pt x="270" y="357" on="1"/>
        <pt x="201" y="382" on="1"/>
        <pt x="243" y="496" on="1"/>
        <pt x="117" y="474" on="1"/>
        <pt x="106" y="539" on="1"/>
        <pt x="236" y="562" on="1"/>
        <pt x="151" y="663" on="1"/>
        <pt x="202" y="705" on="1"/>
        <pt x="284" y="608" on="1"/>
        <pt x="325" y="721" on="1"/>
        <pt x="394" y="696" on="1"/>
        <pt x="352" y="582" on="1"/>
        <pt x="478" y="604" on="1"/>
        <pt x="489" y="540" on="1"/>
      </contour>
    </TTGlyph>
    <TTGlyph name="at" xMin="60" yMin="-131" xMax="915" yMax="684">
      <contour>
        <pt x="724" y="474" on="1"/>
        <pt x="657" y="185" on="1"/>
        <pt x="651" y="159" on="0"/>
        <pt x="683" y="126" on="0"/>
        <pt x="712" y="126" on="1"/>
        <pt x="771" y="126" on="0"/>
        <pt x="846" y="272" on="0"/>
        <pt x="846" y="351" on="1"/>
        <pt x="846" y="471" on="0"/>
        <pt x="680" y="622" on="0"/>
        <pt x="550" y="622" on="1"/>
        <pt x="380" y="622" on="0"/>
        <pt x="130" y="390" on="0"/>
        <pt x="130" y="225" on="1"/>
        <pt x="130" y="97" on="0"/>
        <pt x="292" y="-67" on="0"/>
        <pt x="419" y="-67" on="1"/>
        <pt x="555" y="-67" on="0"/>
        <pt x="674" y="9" on="1"/>
        <pt x="699" y="-47" on="1"/>
        <pt x="641" y="-86" on="0"/>
        <pt x="483" y="-131" on="0"/>
        <pt x="409" y="-131" on="1"/>
        <pt x="257" y="-131" on="0"/>
        <pt x="60" y="63" on="0"/>
        <pt x="60" y="215" on="1"/>
        <pt x="60" y="345" on="0"/>
        <pt x="199" y="562" on="0"/>
        <pt x="429" y="684" on="0"/>
        <pt x="561" y="684" on="1"/>
        <pt x="716" y="684" on="0"/>
        <pt x="915" y="502" on="0"/>
        <pt x="915" y="360" on="1"/>
        <pt x="915" y="313" on="0"/>
        <pt x="888" y="213" on="0"/>
        <pt x="836" y="123" on="0"/>
        <pt x="746" y="65" on="0"/>
        <pt x="690" y="65" on="1"/>
        <pt x="600" y="65" on="0"/>
        <pt x="585" y="132" on="1"/>
        <pt x="522" y="67" on="0"/>
        <pt x="425" y="67" on="1"/>
        <pt x="349" y="67" on="0"/>
        <pt x="255" y="161" on="0"/>
        <pt x="255" y="239" on="1"/>
        <pt x="255" y="345" on="0"/>
        <pt x="400" y="482" on="0"/>
        <pt x="496" y="482" on="1"/>
        <pt x="598" y="482" on="0"/>
        <pt x="636" y="398" on="1"/>
        <pt x="654" y="474" on="1"/>
      </contour>
      <contour>
        <pt x="447" y="137" on="1"/>
        <pt x="507" y="137" on="0"/>
        <pt x="602" y="227" on="0"/>
        <pt x="602" y="297" on="1"/>
        <pt x="602" y="349" on="0"/>
        <pt x="541" y="410" on="0"/>
        <pt x="494" y="410" on="1"/>
        <pt x="434" y="410" on="0"/>
        <pt x="339" y="322" on="0"/>
        <pt x="339" y="252" on="1"/>
        <pt x="339" y="199" on="0"/>
        <pt x="400" y="137" on="0"/>
      </contour>
    </TTGlyph>
    <TTGlyph name="at.case" xMin="63" yMin="-91" xMax="917" yMax="724">
      <contour>
        <pt x="726" y="514" on="1"/>
        <pt x="660" y="225" on="1"/>
        <pt x="653" y="199" on="0"/>
        <pt x="686" y="166" on="0"/>
        <pt x="714" y="166" on="1"/>
        <pt x="773" y="166" on="0"/>
        <pt x="848" y="312" on="0"/>
        <pt x="848" y="391" on="1"/>
        <pt x="848" y="511" on="0"/>
        <pt x="683" y="662" on="0"/>
        <pt x="553" y="662" on="1"/>
        <pt x="382" y="662" on="0"/>
        <pt x="132" y="430" on="0"/>
        <pt x="132" y="265" on="1"/>
        <pt x="132" y="137" on="0"/>
        <pt x="294" y="-27" on="0"/>
        <pt x="421" y="-27" on="1"/>
        <pt x="557" y="-27" on="0"/>
        <pt x="676" y="49" on="1"/>
        <pt x="701" y="-7" on="1"/>
        <pt x="643" y="-46" on="0"/>
        <pt x="485" y="-91" on="0"/>
        <pt x="412" y="-91" on="1"/>
        <pt x="259" y="-91" on="0"/>
        <pt x="63" y="102" on="0"/>
        <pt x="63" y="255" on="1"/>
        <pt x="63" y="385" on="0"/>
        <pt x="202" y="602" on="0"/>
        <pt x="431" y="724" on="0"/>
        <pt x="563" y="724" on="1"/>
        <pt x="718" y="724" on="0"/>
        <pt x="917" y="542" on="0"/>
        <pt x="917" y="400" on="1"/>
        <pt x="917" y="353" on="0"/>
        <pt x="890" y="253" on="0"/>
        <pt x="838" y="163" on="0"/>
        <pt x="748" y="105" on="0"/>
        <pt x="692" y="105" on="1"/>
        <pt x="602" y="105" on="0"/>
        <pt x="587" y="172" on="1"/>
        <pt x="524" y="107" on="0"/>
        <pt x="427" y="107" on="1"/>
        <pt x="351" y="107" on="0"/>
        <pt x="258" y="201" on="0"/>
        <pt x="258" y="279" on="1"/>
        <pt x="258" y="385" on="0"/>
        <pt x="403" y="522" on="0"/>
        <pt x="499" y="522" on="1"/>
        <pt x="601" y="522" on="0"/>
        <pt x="639" y="436" on="1"/>
        <pt x="657" y="514" on="1"/>
      </contour>
      <contour>
        <pt x="449" y="177" on="1"/>
        <pt x="509" y="177" on="0"/>
        <pt x="604" y="267" on="0"/>
        <pt x="604" y="337" on="1"/>
        <pt x="604" y="389" on="0"/>
        <pt x="543" y="450" on="0"/>
        <pt x="496" y="450" on="1"/>
        <pt x="436" y="450" on="0"/>
        <pt x="341" y="362" on="0"/>
        <pt x="341" y="292" on="1"/>
        <pt x="341" y="239" on="0"/>
        <pt x="402" y="177" on="0"/>
      </contour>
    </TTGlyph>
    <TTGlyph name="atilde" xMin="37" yMin="-14" xMax="625" yMax="705">
      <contour>
        <pt x="348" y="629" on="1"/>
        <pt x="333" y="629" on="0"/>
        <pt x="311" y="607" on="0"/>
        <pt x="307" y="589" on="1"/>
        <pt x="236" y="589" on="1"/>
        <pt x="250" y="650" on="0"/>
        <pt x="321" y="705" on="0"/>
        <pt x="360" y="705" on="1"/>
        <pt x="394" y="705" on="0"/>
        <pt x="452" y="662" on="0"/>
        <pt x="472" y="662" on="1"/>
        <pt x="487" y="662" on="0"/>
        <pt x="509" y="686" on="0"/>
        <pt x="514" y="705" on="1"/>
        <pt x="585" y="705" on="1"/>
        <pt x="570" y="642" on="0"/>
        <pt x="500" y="587" on="0"/>
        <pt x="460" y="587" on="1"/>
        <pt x="426" y="587" on="0"/>
        <pt x="368" y="629" on="0"/>
      </contour>
      <contour>
        <pt x="625" y="496" on="1"/>
        <pt x="510" y="0" on="1"/>
        <pt x="406" y="0" on="1"/>
        <pt x="418" y="51" on="1"/>
        <pt x="347" y="-14" on="0"/>
        <pt x="241" y="-14" on="1"/>
        <pt x="141" y="-14" on="0"/>
        <pt x="19" y="134" on="0"/>
        <pt x="37" y="249" on="1"/>
        <pt x="55" y="365" on="0"/>
        <pt x="217" y="510" on="0"/>
        <pt x="323" y="510" on="1"/>
        <pt x="455" y="510" on="0"/>
        <pt x="502" y="412" on="1"/>
        <pt x="521" y="496" on="1"/>
      </contour>
      <contour>
        <pt x="272" y="78" on="1"/>
        <pt x="337" y="78" on="0"/>
        <pt x="451" y="173" on="0"/>
        <pt x="475" y="325" on="0"/>
        <pt x="392" y="418" on="0"/>
        <pt x="327" y="418" on="1"/>
        <pt x="256" y="418" on="0"/>
        <pt x="151" y="325" on="0"/>
        <pt x="138" y="249" on="1"/>
        <pt x="125" y="172" on="0"/>
        <pt x="202" y="78" on="0"/>
      </contour>
    </TTGlyph>
    <TTGlyph name="atilde.ss01" xMin="11" yMin="-14" xMax="567" yMax="705">
      <contour>
        <pt x="496" y="705" on="1"/>
        <pt x="567" y="705" on="1"/>
        <pt x="552" y="642" on="0"/>
        <pt x="482" y="587" on="0"/>
        <pt x="442" y="587" on="1"/>
        <pt x="408" y="587" on="0"/>
        <pt x="350" y="629" on="0"/>
        <pt x="330" y="629" on="1"/>
        <pt x="315" y="629" on="0"/>
        <pt x="293" y="607" on="0"/>
        <pt x="289" y="589" on="1"/>
        <pt x="218" y="589" on="1"/>
        <pt x="232" y="650" on="0"/>
        <pt x="303" y="705" on="0"/>
        <pt x="342" y="705" on="1"/>
        <pt x="376" y="705" on="0"/>
        <pt x="434" y="662" on="0"/>
        <pt x="454" y="662" on="1"/>
        <pt x="469" y="662" on="0"/>
        <pt x="491" y="686" on="0"/>
      </contour>
      <contour>
        <pt x="327" y="510" on="1"/>
        <pt x="430" y="510" on="0"/>
        <pt x="533" y="400" on="0"/>
        <pt x="510" y="303" on="1"/>
        <pt x="440" y="0" on="1"/>
        <pt x="341" y="0" on="1"/>
        <pt x="353" y="54" on="1"/>
        <pt x="278" y="-14" on="0"/>
        <pt x="173" y="-14" on="1"/>
        <pt x="98" y="-14" on="0"/>
        <pt x="11" y="57" on="0"/>
        <pt x="11" y="119" on="1"/>
        <pt x="11" y="195" on="0"/>
        <pt x="140" y="297" on="0"/>
        <pt x="252" y="297" on="1"/>
        <pt x="409" y="297" on="1"/>
        <pt x="413" y="315" on="1"/>
        <pt x="424" y="363" on="0"/>
        <pt x="373" y="421" on="0"/>
        <pt x="318" y="421" on="1"/>
        <pt x="270" y="421" on="0"/>
        <pt x="191" y="374" on="0"/>
        <pt x="173" y="333" on="1"/>
        <pt x="80" y="358" on="1"/>
        <pt x="109" y="426" on="0"/>
        <pt x="245" y="510" on="0"/>
      </contour>
      <contour>
        <pt x="206" y="70" on="1"/>
        <pt x="267" y="70" on="0"/>
        <pt x="370" y="140" on="0"/>
        <pt x="384" y="190" on="1"/>
        <pt x="391" y="217" on="1"/>
        <pt x="229" y="217" on="1"/>
        <pt x="177" y="217" on="0"/>
        <pt x="114" y="170" on="0"/>
        <pt x="114" y="135" on="1"/>
        <pt x="114" y="105" on="0"/>
        <pt x="164" y="70" on="0"/>
      </contour>
    </TTGlyph>
    <TTGlyph name="b" xMin="21" yMin="-14" xMax="611" yMax="720">
      <contour>
        <pt x="407" y="510" on="1"/>
        <pt x="507" y="510" on="0"/>
        <pt x="629" y="362" on="0"/>
        <pt x="611" y="247" on="1"/>
        <pt x="592" y="131" on="0"/>
        <pt x="430" y="-14" on="0"/>
        <pt x="324" y="-14" on="1"/>
        <pt x="192" y="-14" on="0"/>
        <pt x="146" y="85" on="1"/>
        <pt x="126" y="0" on="1"/>
        <pt x="21" y="0" on="1"/>
        <pt x="188" y="720" on="1"/>
        <pt x="292" y="720" on="1"/>
        <pt x="228" y="444" on="1"/>
        <pt x="302" y="510" on="0"/>
      </contour>
      <contour>
        <pt x="321" y="78" on="1"/>
        <pt x="391" y="78" on="0"/>
        <pt x="497" y="171" on="0"/>
        <pt x="510" y="247" on="1"/>
        <pt x="522" y="324" on="0"/>
        <pt x="445" y="418" on="0"/>
        <pt x="376" y="418" on="1"/>
        <pt x="311" y="418" on="0"/>
        <pt x="197" y="323" on="0"/>
        <pt x="173" y="171" on="0"/>
        <pt x="255" y="78" on="0"/>
      </contour>
    </TTGlyph>
    <TTGlyph name="backslash" xMin="103" yMin="-72" xMax="290" yMax="741">
      <contour>
        <pt x="290" y="-72" on="1"/>
        <pt x="203" y="-72" on="1"/>
        <pt x="103" y="741" on="1"/>
        <pt x="190" y="741" on="1"/>
      </contour>
    </TTGlyph>
    <TTGlyph name="backslash.case" xMin="124" yMin="0" xMax="312" yMax="670">
      <contour>
        <pt x="312" y="0" on="1"/>
        <pt x="209" y="0" on="1"/>
        <pt x="124" y="670" on="1"/>
        <pt x="227" y="670" on="1"/>
      </contour>
    </TTGlyph>
    <TTGlyph name="bar" xMin="5" yMin="-72" xMax="294" yMax="741">
      <contour>
        <pt x="106" y="-72" on="1"/>
        <pt x="5" y="-72" on="1"/>
        <pt x="193" y="741" on="1"/>
        <pt x="294" y="741" on="1"/>
      </contour>
    </TTGlyph>
    <TTGlyph name="bar.case" xMin="12" yMin="-41" xMax="287" yMax="711">
      <contour>
        <pt x="113" y="-41" on="1"/>
        <pt x="12" y="-41" on="1"/>
        <pt x="186" y="711" on="1"/>
        <pt x="287" y="711" on="1"/>
      </contour>
    </TTGlyph>
    <TTGlyph name="braceleft" xMin="42" yMin="-82" xMax="494" yMax="741">
      <contour>
        <pt x="494" y="741" on="1"/>
        <pt x="473" y="653" on="1"/>
        <pt x="379" y="653" on="1"/>
        <pt x="358" y="653" on="0"/>
        <pt x="325" y="625" on="0"/>
        <pt x="321" y="603" on="1"/>
        <pt x="283" y="438" on="1"/>
        <pt x="263" y="355" on="0"/>
        <pt x="188" y="329" on="1"/>
        <pt x="249" y="300" on="0"/>
        <pt x="232" y="220" on="1"/>
        <pt x="194" y="55" on="1"/>
        <pt x="189" y="33" on="0"/>
        <pt x="209" y="6" on="0"/>
        <pt x="230" y="6" on="1"/>
        <pt x="324" y="6" on="1"/>
        <pt x="304" y="-82" on="1"/>
        <pt x="197" y="-82" on="1"/>
        <pt x="136" y="-82" on="0"/>
        <pt x="78" y="-13" on="0"/>
        <pt x="91" y="45" on="1"/>
        <pt x="128" y="208" on="1"/>
        <pt x="142" y="266" on="0"/>
        <pt x="68" y="282" on="1"/>
        <pt x="42" y="290" on="1"/>
        <pt x="61" y="368" on="1"/>
        <pt x="89" y="376" on="1"/>
        <pt x="171" y="393" on="0"/>
        <pt x="184" y="450" on="1"/>
        <pt x="222" y="613" on="1"/>
        <pt x="235" y="671" on="0"/>
        <pt x="326" y="741" on="0"/>
        <pt x="387" y="741" on="1"/>
      </contour>
    </TTGlyph>
    <TTGlyph name="braceleft.case" xMin="44" yMin="0" xMax="478" yMax="670">
      <contour>
        <pt x="478" y="670" on="1"/>
        <pt x="457" y="582" on="1"/>
        <pt x="363" y="582" on="1"/>
        <pt x="342" y="582" on="0"/>
        <pt x="309" y="554" on="0"/>
        <pt x="304" y="532" on="1"/>
        <pt x="283" y="443" on="1"/>
        <pt x="264" y="358" on="0"/>
        <pt x="191" y="333" on="1"/>
        <pt x="252" y="304" on="0"/>
        <pt x="233" y="224" on="1"/>
        <pt x="213" y="138" on="1"/>
        <pt x="208" y="116" on="0"/>
        <pt x="228" y="88" on="0"/>
        <pt x="249" y="88" on="1"/>
        <pt x="343" y="88" on="1"/>
        <pt x="323" y="0" on="1"/>
        <pt x="216" y="0" on="1"/>
        <pt x="155" y="0" on="0"/>
        <pt x="97" y="70" on="0"/>
        <pt x="110" y="128" on="1"/>
        <pt x="129" y="212" on="1"/>
        <pt x="142" y="270" on="0"/>
        <pt x="69" y="287" on="1"/>
        <pt x="44" y="295" on="1"/>
        <pt x="62" y="373" on="1"/>
        <pt x="91" y="381" on="1"/>
        <pt x="172" y="396" on="0"/>
        <pt x="186" y="455" on="1"/>
        <pt x="206" y="542" on="1"/>
        <pt x="219" y="600" on="0"/>
        <pt x="310" y="670" on="0"/>
        <pt x="371" y="670" on="1"/>
      </contour>
    </TTGlyph>
    <TTGlyph name="braceright" xMin="-28" yMin="-82" xMax="423" yMax="741">
      <contour>
        <pt x="423" y="369" on="1"/>
        <pt x="405" y="291" on="1"/>
        <pt x="377" y="283" on="1"/>
        <pt x="295" y="266" on="0"/>
        <pt x="282" y="209" on="1"/>
        <pt x="244" y="46" on="1"/>
        <pt x="231" y="-12" on="0"/>
        <pt x="140" y="-82" on="0"/>
        <pt x="79" y="-82" on="1"/>
        <pt x="-28" y="-82" on="1"/>
        <pt x="-8" y="6" on="1"/>
        <pt x="87" y="6" on="1"/>
        <pt x="108" y="6" on="0"/>
        <pt x="141" y="34" on="0"/>
        <pt x="145" y="56" on="1"/>
        <pt x="183" y="221" on="1"/>
        <pt x="203" y="304" on="0"/>
        <pt x="278" y="330" on="1"/>
        <pt x="249" y="344" on="0"/>
        <pt x="225" y="401" on="0"/>
        <pt x="234" y="439" on="1"/>
        <pt x="271" y="604" on="1"/>
        <pt x="277" y="626" on="0"/>
        <pt x="257" y="653" on="0"/>
        <pt x="235" y="653" on="1"/>
        <pt x="141" y="653" on="1"/>
        <pt x="162" y="741" on="1"/>
        <pt x="269" y="741" on="1"/>
        <pt x="330" y="741" on="0"/>
        <pt x="388" y="671" on="0"/>
        <pt x="375" y="614" on="1"/>
        <pt x="337" y="451" on="1"/>
        <pt x="324" y="392" on="0"/>
        <pt x="398" y="377" on="1"/>
      </contour>
    </TTGlyph>
    <TTGlyph name="braceright.case" xMin="-9" yMin="0" xMax="425" yMax="670">
      <contour>
        <pt x="425" y="376" on="1"/>
        <pt x="406" y="297" on="1"/>
        <pt x="378" y="290" on="1"/>
        <pt x="296" y="273" on="0"/>
        <pt x="283" y="215" on="1"/>
        <pt x="263" y="128" on="1"/>
        <pt x="250" y="70" on="0"/>
        <pt x="159" y="0" on="0"/>
        <pt x="98" y="0" on="1"/>
        <pt x="-9" y="0" on="1"/>
        <pt x="12" y="88" on="1"/>
        <pt x="106" y="88" on="1"/>
        <pt x="127" y="88" on="0"/>
        <pt x="159" y="115" on="0"/>
        <pt x="164" y="138" on="1"/>
        <pt x="185" y="227" on="1"/>
        <pt x="205" y="312" on="0"/>
        <pt x="279" y="337" on="1"/>
        <pt x="217" y="366" on="0"/>
        <pt x="236" y="447" on="1"/>
        <pt x="255" y="532" on="1"/>
        <pt x="261" y="555" on="0"/>
        <pt x="240" y="582" on="0"/>
        <pt x="219" y="582" on="1"/>
        <pt x="125" y="582" on="1"/>
        <pt x="146" y="670" on="1"/>
        <pt x="253" y="670" on="1"/>
        <pt x="314" y="670" on="0"/>
        <pt x="371" y="600" on="0"/>
        <pt x="358" y="542" on="1"/>
        <pt x="339" y="459" on="1"/>
        <pt x="326" y="400" on="0"/>
        <pt x="399" y="383" on="1"/>
      </contour>
    </TTGlyph>
    <TTGlyph name="bracketleft" xMin="2" yMin="-82" xMax="464" yMax="741">
      <contour>
        <pt x="272" y="651" on="1"/>
        <pt x="124" y="8" on="1"/>
        <pt x="295" y="8" on="1"/>
        <pt x="274" y="-82" on="1"/>
        <pt x="2" y="-82" on="1"/>
        <pt x="192" y="741" on="1"/>
        <pt x="464" y="741" on="1"/>
        <pt x="443" y="651" on="1"/>
      </contour>
    </TTGlyph>
    <TTGlyph name="bracketleft.case" xMin="22" yMin="0" xMax="448" yMax="670">
      <contour>
        <pt x="256" y="580" on="1"/>
        <pt x="144" y="90" on="1"/>
        <pt x="315" y="90" on="1"/>
        <pt x="294" y="0" on="1"/>
        <pt x="22" y="0" on="1"/>
        <pt x="176" y="670" on="1"/>
        <pt x="448" y="670" on="1"/>
        <pt x="427" y="580" on="1"/>
      </contour>
    </TTGlyph>
    <TTGlyph name="bracketright" xMin="-28" yMin="-82" xMax="434" yMax="741">
      <contour>
        <pt x="434" y="741" on="1"/>
        <pt x="244" y="-82" on="1"/>
        <pt x="-28" y="-82" on="1"/>
        <pt x="-8" y="8" on="1"/>
        <pt x="164" y="8" on="1"/>
        <pt x="312" y="651" on="1"/>
        <pt x="141" y="651" on="1"/>
        <pt x="162" y="741" on="1"/>
      </contour>
    </TTGlyph>
    <TTGlyph name="bracketright.case" xMin="-9" yMin="0" xMax="417" yMax="670">
      <contour>
        <pt x="417" y="670" on="1"/>
        <pt x="263" y="0" on="1"/>
        <pt x="-9" y="0" on="1"/>
        <pt x="12" y="90" on="1"/>
        <pt x="183" y="90" on="1"/>
        <pt x="295" y="580" on="1"/>
        <pt x="124" y="580" on="1"/>
        <pt x="145" y="670" on="1"/>
      </contour>
    </TTGlyph>
    <TTGlyph name="breve" xMin="215" yMin="551" xMax="527" yMax="693">
      <contour>
        <pt x="340" y="551" on="1"/>
        <pt x="268" y="551" on="0"/>
        <pt x="200" y="628" on="0"/>
        <pt x="215" y="693" on="1"/>
        <pt x="296" y="693" on="1"/>
        <pt x="289" y="662" on="0"/>
        <pt x="321" y="623" on="0"/>
        <pt x="350" y="623" on="1"/>
        <pt x="380" y="623" on="0"/>
        <pt x="427" y="662" on="0"/>
        <pt x="434" y="693" on="1"/>
        <pt x="527" y="693" on="1"/>
        <pt x="512" y="628" on="0"/>
        <pt x="411" y="551" on="0"/>
      </contour>
    </TTGlyph>
    <TTGlyph name="bullet" xMin="52" yMin="107" xMax="372" yMax="416">
      <contour>
        <pt x="144" y="416" on="0"/>
        <pt x="280" y="416" on="0"/>
        <pt x="372" y="324" on="0"/>
        <pt x="372" y="261" on="1"/>
        <pt x="372" y="195" on="0"/>
        <pt x="281" y="107" on="0"/>
        <pt x="143" y="107" on="0"/>
        <pt x="52" y="195" on="0"/>
        <pt x="52" y="261" on="1"/>
        <pt x="52" y="324" on="0"/>
      </contour>
    </TTGlyph>
    <TTGlyph name="bullet.case" xMin="68" yMin="175" xMax="388" yMax="484">
      <contour>
        <pt x="160" y="484" on="0"/>
        <pt x="296" y="484" on="0"/>
        <pt x="388" y="392" on="0"/>
        <pt x="388" y="329" on="1"/>
        <pt x="388" y="263" on="0"/>
        <pt x="297" y="175" on="0"/>
        <pt x="159" y="175" on="0"/>
        <pt x="68" y="263" on="0"/>
        <pt x="68" y="329" on="1"/>
        <pt x="68" y="392" on="0"/>
      </contour>
    </TTGlyph>
    <TTGlyph name="c" xMin="31" yMin="-14" xMax="549" yMax="510">
      <contour>
        <pt x="268" y="82" on="1"/>
        <pt x="318" y="82" on="0"/>
        <pt x="400" y="134" on="0"/>
        <pt x="422" y="181" on="1"/>
        <pt x="521" y="163" on="1"/>
        <pt x="488" y="83" on="0"/>
        <pt x="345" y="-14" on="0"/>
        <pt x="260" y="-14" on="1"/>
        <pt x="145" y="-14" on="0"/>
        <pt x="13" y="133" on="0"/>
        <pt x="31" y="248" on="1"/>
        <pt x="49" y="362" on="0"/>
        <pt x="225" y="510" on="0"/>
        <pt x="334" y="510" on="1"/>
        <pt x="419" y="510" on="0"/>
        <pt x="539" y="415" on="0"/>
        <pt x="549" y="336" on="1"/>
        <pt x="442" y="315" on="1"/>
        <pt x="438" y="362" on="0"/>
        <pt x="370" y="414" on="0"/>
        <pt x="320" y="414" on="1"/>
        <pt x="250" y="414" on="0"/>
        <pt x="144" y="321" on="0"/>
        <pt x="132" y="248" on="1"/>
        <pt x="121" y="174" on="0"/>
        <pt x="198" y="82" on="0"/>
      </contour>
    </TTGlyph>
    <TTGlyph name="cacute" xMin="31" yMin="-14" xMax="549" yMax="709">
      <contour>
        <pt x="402" y="567" on="1"/>
        <pt x="306" y="567" on="1"/>
        <pt x="412" y="709" on="1"/>
        <pt x="542" y="709" on="1"/>
      </contour>
      <contour>
        <pt x="268" y="82" on="1"/>
        <pt x="318" y="82" on="0"/>
        <pt x="400" y="134" on="0"/>
        <pt x="422" y="181" on="1"/>
        <pt x="521" y="163" on="1"/>
        <pt x="488" y="83" on="0"/>
        <pt x="345" y="-14" on="0"/>
        <pt x="260" y="-14" on="1"/>
        <pt x="145" y="-14" on="0"/>
        <pt x="13" y="133" on="0"/>
        <pt x="31" y="248" on="1"/>
        <pt x="49" y="362" on="0"/>
        <pt x="225" y="510" on="0"/>
        <pt x="334" y="510" on="1"/>
        <pt x="419" y="510" on="0"/>
        <pt x="539" y="415" on="0"/>
        <pt x="549" y="336" on="1"/>
        <pt x="442" y="315" on="1"/>
        <pt x="438" y="362" on="0"/>
        <pt x="370" y="414" on="0"/>
        <pt x="320" y="414" on="1"/>
        <pt x="250" y="414" on="0"/>
        <pt x="144" y="321" on="0"/>
        <pt x="132" y="248" on="1"/>
        <pt x="121" y="174" on="0"/>
        <pt x="198" y="82" on="0"/>
      </contour>
    </TTGlyph>
    <TTGlyph name="caron" xMin="210" yMin="559" xMax="539" yMax="705">
      <contour>
        <pt x="539" y="705" on="1"/>
        <pt x="390" y="559" on="1"/>
        <pt x="291" y="559" on="1"/>
        <pt x="210" y="705" on="1"/>
        <pt x="308" y="705" on="1"/>
        <pt x="350" y="627" on="1"/>
        <pt x="429" y="705" on="1"/>
      </contour>
    </TTGlyph>
    <TTGlyph name="caron.alt" xMin="286" yMin="464" xMax="434" yMax="650">
      <contour>
        <pt x="368" y="464" on="1"/>
        <pt x="286" y="464" on="1"/>
        <pt x="329" y="650" on="1"/>
        <pt x="434" y="650" on="1"/>
      </contour>
    </TTGlyph>
    <TTGlyph name="ccaron" xMin="31" yMin="-14" xMax="549" yMax="705">
      <contour>
        <pt x="299" y="559" on="1"/>
        <pt x="218" y="705" on="1"/>
        <pt x="316" y="705" on="1"/>
        <pt x="358" y="627" on="1"/>
        <pt x="437" y="705" on="1"/>
        <pt x="547" y="705" on="1"/>
        <pt x="398" y="559" on="1"/>
      </contour>
      <contour>
        <pt x="268" y="82" on="1"/>
        <pt x="318" y="82" on="0"/>
        <pt x="400" y="134" on="0"/>
        <pt x="422" y="181" on="1"/>
        <pt x="521" y="163" on="1"/>
        <pt x="488" y="83" on="0"/>
        <pt x="345" y="-14" on="0"/>
        <pt x="260" y="-14" on="1"/>
        <pt x="145" y="-14" on="0"/>
        <pt x="13" y="133" on="0"/>
        <pt x="31" y="248" on="1"/>
        <pt x="49" y="362" on="0"/>
        <pt x="225" y="510" on="0"/>
        <pt x="334" y="510" on="1"/>
        <pt x="419" y="510" on="0"/>
        <pt x="539" y="415" on="0"/>
        <pt x="549" y="336" on="1"/>
        <pt x="442" y="315" on="1"/>
        <pt x="438" y="362" on="0"/>
        <pt x="370" y="414" on="0"/>
        <pt x="320" y="414" on="1"/>
        <pt x="250" y="414" on="0"/>
        <pt x="144" y="321" on="0"/>
        <pt x="132" y="248" on="1"/>
        <pt x="121" y="174" on="0"/>
        <pt x="198" y="82" on="0"/>
      </contour>
    </TTGlyph>
</ttFont>
